<svg xmlns="http://www.w3.org/2000/svg" width="118" height="85" viewBox="0 0 118 85">
    <g fill="#FFF" fill-rule="nonzero">
        <path d="M76.905 44.466a1.924 1.924 0 0 0-1.56-1.297l-9.75-1.397-4.36-8.71A1.937 1.937 0 0 0 59.5 32c-.736 0-1.409.412-1.734 1.063l-4.361 8.709-9.75 1.397a1.926 1.926 0 0 0-1.561 1.297 1.888 1.888 0 0 0 .489 1.954l7.055 6.78-1.665 9.572a1.894 1.894 0 0 0 .769 1.864 1.958 1.958 0 0 0 2.036.145l8.721-4.52 8.721 4.52a1.955 1.955 0 0 0 2.037-.145 1.893 1.893 0 0 0 .769-1.864l-1.666-9.573 7.056-6.779a1.888 1.888 0 0 0 .488-1.954zm-10.971 6.703a1.888 1.888 0 0 0-.556 1.687l1.175 6.754-6.152-3.189a1.96 1.96 0 0 0-1.8 0l-6.153 3.189 1.175-6.754c.108-.618-.1-1.249-.555-1.687l-4.978-4.782 6.879-.986c.63-.09 1.174-.48 1.456-1.042l3.076-6.145 3.077 6.145c.282.562.826.952 1.456 1.042l6.879.986-4.98 4.782z"/>
        <path d="M27.052 33.648c7.786 0 15.095-4.889 17.838-12.699a1.929 1.929 0 0 0-1.163-2.457 18.638 18.638 0 0 0-14.377.732 43.277 43.277 0 0 1 3.79-4.372 1.936 1.936 0 0 0 0-2.723 1.899 1.899 0 0 0-2.7 0 47.285 47.285 0 0 0-2.789 3.076c-.209-5.718-2.949-11.282-7.92-14.848a1.9 1.9 0 0 0-2.662.452 19.054 19.054 0 0 0-3.24 14.216c.777 4.646 3.174 8.749 6.787 11.675a47.073 47.073 0 0 0-1.65 4.469 19.41 19.41 0 0 0-1.311-2.463c-2.704-4.3-6.907-7.28-11.835-8.392a1.897 1.897 0 0 0-1.44.253c-.427.273-.73.707-.84 1.205-2.199 9.898 3.71 19.752 13.269 22.49-.048 2.041.037 4.084.25 6.115a19.326 19.326 0 0 0-1.388-1.134c-4.068-3.015-9.057-4.252-14.05-3.484a1.923 1.923 0 0 0-1.599 2.193c.762 5.032 3.423 9.464 7.491 12.48 3.28 2.43 7.16 3.705 11.156 3.705.64 0 1.283-.036 1.926-.101a46.804 46.804 0 0 0 2.703 5.355c-5.907-1.91-12.628-.866-17.775 3.383a1.936 1.936 0 0 0-.267 2.71c3.199 3.938 7.728 6.384 12.753 6.889.638.064 1.274.096 1.908.096 3.9 0 7.662-1.209 10.857-3.487a47.068 47.068 0 0 0 6.985 5.7 1.904 1.904 0 0 0 2.646-.546 1.935 1.935 0 0 0-.542-2.668 43.251 43.251 0 0 1-6.722-5.536 42.977 42.977 0 0 1-9.997-15.874c9.067-3.523 14.111-13.554 11.336-23.123a1.908 1.908 0 0 0-2.369-1.307c-4.846 1.428-8.85 4.674-11.276 9.14-.077.142-.147.286-.22.43a43.764 43.764 0 0 1 1.77-12.146c1.553.401 3.12.596 4.667.596zm-10.328 6.541c-6.324-2.368-10.342-8.756-9.77-15.533 3.079 1.148 5.688 3.268 7.475 6.11a15.19 15.19 0 0 1 2.295 9.423zM9.775 57.33a15.093 15.093 0 0 1-5.533-7.938l.243-.002c6.646 0 12.57 4.451 14.457 10.895a14.907 14.907 0 0 1-9.167-2.955zm8.612 21.213a14.917 14.917 0 0 1-8.773-3.988c5.748-3.56 13.215-2.81 18.155 1.822a14.88 14.88 0 0 1-9.382 2.166zm5.798-31.926c1.603-2.952 4.072-5.236 7.07-6.581 1.003 6.725-2.6 13.36-8.76 16.133-.492-3.272.087-6.6 1.69-9.552zm6.738-23.885a14.862 14.862 0 0 1 9.554-1.169c-3.09 6.046-9.861 9.304-16.467 7.92a15.03 15.03 0 0 1 6.913-6.751zm-13.328-8.346a15.2 15.2 0 0 1 1.51-9.582c4.917 4.655 6.164 12.114 3.03 18.137-2.396-2.262-3.985-5.236-4.54-8.555zM99.33 64.137c3.997 0 7.877-1.275 11.157-3.706 4.068-3.015 6.73-7.446 7.49-12.479a1.923 1.923 0 0 0-1.598-2.193c-5.79-.891-11.376.979-15.44 4.631.214-2.036.3-4.083.252-6.127 4.474-1.279 8.277-4.13 10.787-8.121a19.062 19.062 0 0 0 2.482-14.37 1.91 1.91 0 0 0-2.28-1.458c-4.927 1.112-9.13 4.092-11.834 8.392-.5.795-.938 1.618-1.312 2.463a47.037 47.037 0 0 0-1.65-4.47c7.73-6.267 9.373-17.638 3.548-25.89a1.905 1.905 0 0 0-1.239-.782 1.893 1.893 0 0 0-1.424.33c-4.114 2.951-6.842 7.341-7.681 12.361a19.544 19.544 0 0 0-.248 2.476 47.158 47.158 0 0 0-2.78-3.064 1.899 1.899 0 0 0-2.7 0 1.936 1.936 0 0 0 0 2.722 43.27 43.27 0 0 1 3.79 4.372 18.637 18.637 0 0 0-14.377-.731 1.929 1.929 0 0 0-1.163 2.456c2.743 7.81 10.052 12.699 17.838 12.699 1.547 0 3.113-.194 4.666-.596a43.773 43.773 0 0 1 1.771 12.164c-2.29-4.489-6.323-8.063-11.496-9.588a1.907 1.907 0 0 0-2.369 1.307 19.07 19.07 0 0 0 1.563 14.501c2.169 3.994 5.604 7.008 9.772 8.623a42.983 42.983 0 0 1-9.996 15.873 43.24 43.24 0 0 1-6.722 5.536 1.935 1.935 0 0 0-.541 2.668 1.904 1.904 0 0 0 2.645.545 47.053 47.053 0 0 0 6.986-5.7 18.712 18.712 0 0 0 10.875 3.478c5.476 0 10.91-2.38 14.643-6.976a1.936 1.936 0 0 0-.268-2.709c-3.906-3.225-8.825-4.723-13.85-4.219a18.96 18.96 0 0 0-3.915.82 46.786 46.786 0 0 0 2.693-5.339 18.95 18.95 0 0 0 1.926.101zm11.718-39.479a15.192 15.192 0 0 1-2.295 9.422c-1.788 2.843-4.397 4.963-7.475 6.11-.572-6.775 3.446-13.164 9.77-15.532zm2.709 24.733c-1.91 6.522-7.956 10.996-14.698 10.892 1.91-6.522 7.952-11.004 14.698-10.892zM77.523 21.563a14.86 14.86 0 0 1 9.554 1.168 15.028 15.028 0 0 1 6.913 6.75c-6.608 1.384-13.378-1.872-16.467-7.918zm18.34 1.377a15.197 15.197 0 0 1-1.509-9.582c.555-3.32 2.144-6.293 4.54-8.555 3.134 6.022 1.887 13.482-3.03 18.137zm3.142 49.446c3.323-.334 6.586.43 9.381 2.166-4.94 4.631-12.406 5.38-18.154 1.822a14.917 14.917 0 0 1 8.773-3.988zm-3.5-16.217c-3-1.345-5.469-3.63-7.072-6.582a15.2 15.2 0 0 1-1.69-9.551c6.16 2.772 9.763 9.407 8.761 16.133z"/>
    </g>
</svg>
