<svg xmlns="http://www.w3.org/2000/svg" width="110" height="80" viewBox="0 0 110 80">
    <g fill="#FFF" fill-rule="evenodd">
        <path fill-rule="nonzero" d="M107.976 10.07h-4.843V5.508a2.018 2.018 0 0 0-1.787-2L73.285.228A33.324 33.324 0 0 0 55 3.259 33.321 33.321 0 0 0 36.715.228L8.654 3.509a2.018 2.018 0 0 0-1.788 2v4.56H2.024A2.019 2.019 0 0 0 0 12.083v65.903C0 79.098.906 80 2.024 80h105.952A2.019 2.019 0 0 0 110 77.986V12.083a2.019 2.019 0 0 0-2.024-2.014zM72.813 4.23L99.086 7.3v59.895l-25.801-3.016a33.323 33.323 0 0 0-16.262 2.147V6.763a29.278 29.278 0 0 1 15.79-2.534zm-35.626 0a29.276 29.276 0 0 1 15.79 2.533v59.563a33.265 33.265 0 0 0-12.347-2.375c-1.301 0-2.608.076-3.915.228l-25.801 3.016V7.3l26.273-3.07zm68.766 71.742H4.047V14.097h2.82v55.362c0 .575.246 1.123.678 1.505a2.03 2.03 0 0 0 1.581.495l28.061-3.28c5.83-.681 11.669.38 16.882 3.068a2.031 2.031 0 0 0 1.862 0 29.28 29.28 0 0 1 16.881-3.067l28.061 3.28a2.029 2.029 0 0 0 1.58-.495c.433-.383.68-.93.68-1.506V14.097h2.82v61.875z"/>
        <path d="M61.556 15.519a32.666 32.666 0 0 1 11.1-.735l21.083 2.204c.08.008.16.012.238.012 1.013 0 1.888-.675 2.009-1.592.13-.989-.664-1.884-1.775-2l-21.083-2.204a37.164 37.164 0 0 0-12.633.836c-1.08.261-1.717 1.252-1.424 2.212.294.96 1.407 1.527 2.485 1.267zM16.023 17c.079 0 .159-.004.239-.013l21.08-2.204a32.855 32.855 0 0 1 11.1.737c1.079.262 2.193-.305 2.486-1.266.294-.961-.342-1.953-1.422-2.214a37.381 37.381 0 0 0-12.634-.84l-21.083 2.205c-1.11.116-1.905 1.012-1.775 2.002.121.918.996 1.593 2.009 1.593zM61.556 24.519a32.665 32.665 0 0 1 11.1-.735l21.083 2.204c.08.008.16.012.238.012 1.013 0 1.888-.675 2.009-1.592.13-.99-.664-1.884-1.775-2l-21.083-2.204a37.17 37.17 0 0 0-12.633.836c-1.08.261-1.717 1.252-1.424 2.212.294.96 1.407 1.528 2.485 1.267zM16.023 26c.079 0 .159-.004.239-.013l21.08-2.204a32.866 32.866 0 0 1 11.1.737c1.079.262 2.193-.305 2.486-1.266.294-.961-.342-1.953-1.422-2.214a37.386 37.386 0 0 0-12.634-.84l-21.083 2.205c-1.11.116-1.905 1.012-1.775 2.002.121.918.996 1.593 2.009 1.593zM61.556 34.519a32.664 32.664 0 0 1 11.1-.735l21.083 2.204c.08.008.16.012.238.012 1.013 0 1.888-.675 2.009-1.592.13-.99-.664-1.885-1.775-2l-21.083-2.204a37.176 37.176 0 0 0-12.633.836c-1.08.261-1.717 1.252-1.424 2.212.294.96 1.407 1.528 2.485 1.267zM16.023 36c.079 0 .159-.004.239-.013l21.08-2.204a32.867 32.867 0 0 1 11.1.737c1.079.262 2.193-.305 2.486-1.266.294-.961-.342-1.952-1.422-2.214a37.391 37.391 0 0 0-12.634-.84l-21.083 2.205c-1.11.116-1.905 1.012-1.775 2.001.121.919.996 1.594 2.009 1.594zM61.556 42.519a32.656 32.656 0 0 1 11.1-.735l21.083 2.204c.08.008.16.012.238.012 1.013 0 1.888-.675 2.009-1.592.13-.99-.664-1.885-1.775-2l-21.083-2.204a37.176 37.176 0 0 0-12.633.836c-1.08.261-1.717 1.252-1.424 2.212.294.96 1.407 1.528 2.485 1.267zM16.023 44c.079 0 .159-.004.239-.013l21.08-2.204a32.857 32.857 0 0 1 11.1.737c1.079.262 2.193-.305 2.486-1.266.294-.961-.342-1.953-1.422-2.214a37.387 37.387 0 0 0-12.634-.84l-21.083 2.205c-1.11.116-1.905 1.012-1.775 2.002.121.918.996 1.593 2.009 1.593zM94.211 50.407l-21.083-2.203a37.176 37.176 0 0 0-12.633.836c-1.08.261-1.717 1.251-1.424 2.212.294.96 1.407 1.528 2.485 1.267a32.679 32.679 0 0 1 11.1-.735l21.083 2.204c.08.008.16.012.238.012 1.013 0 1.888-.675 2.009-1.592.13-.989-.664-1.885-1.775-2zM16.023 54c.079 0 .159-.004.239-.013l21.08-2.204a32.866 32.866 0 0 1 11.1.737c1.079.262 2.193-.305 2.486-1.266.294-.961-.342-1.953-1.422-2.214a37.386 37.386 0 0 0-12.634-.84l-21.083 2.205c-1.11.116-1.905 1.012-1.775 2.002.121.918.996 1.593 2.009 1.593z"/>
    </g>
</svg>
