<?xml version="1.0" encoding="UTF-8"?>
<svg width="82px" height="90px" viewBox="0 0 82 90" version="1.1" xmlns="http://www.w3.org/2000/svg" xmlns:xlink="http://www.w3.org/1999/xlink">
    <!-- Generator: sketchtool 52.5 (67469) - http://www.bohemiancoding.com/sketch -->
    <title>2F9B2E45-7D2B-441C-BAC5-74095811FD2F</title>
    <desc>Created with sketchtool.</desc>
    <g id="Landing-Pages" stroke="none" stroke-width="1" fill="none" fill-rule="evenodd">
        <g id="SCTE_DTPWEB-Bootcamp" transform="translate(-164.000000, -194.000000)" fill="#FFFFFF">
            <g id="boot" transform="translate(164.000000, 194.000000)">
                <path d="M11.7903901,10.2214051 L11.7903901,12.5065614 C11.7903901,13.2350922 12.3809052,13.8256073 13.1087494,13.8256073 C13.8372803,13.8256073 14.4271088,13.2350922 14.4271088,12.5065614 L14.4271088,10.2214051 C14.4271088,9.4928741 13.8372803,8.90304574 13.1087494,8.90304574 C12.3809052,8.90304574 11.7903901,9.4928741 11.7903901,10.2214051 Z" id="Path"></path>
                <path d="M38.3683778,13.8256073 C39.0969086,13.8256073 39.6874238,13.2350922 39.6874238,12.5065614 L39.6874238,10.2214051 C39.6874238,9.4928741 39.0969086,8.90304574 38.3683778,8.90304574 C37.6405334,8.90304574 37.0500184,9.4928741 37.0500184,10.2214051 L37.0500184,12.5065614 C37.0500184,13.2350922 37.6405334,13.8256073 38.3683778,13.8256073 Z" id="Path"></path>
                <path d="M27.8633881,11.4800263 C27.3477173,12.0698546 26.5731812,12.408371 25.7389068,12.408371 C24.9039459,12.408371 24.1300965,12.0698546 23.6144257,11.4800263 C23.1351471,10.9320831 22.3022461,10.8757782 21.7536163,11.3550567 C21.2056733,11.8343354 21.1493682,12.6672363 21.6286469,13.2151795 C22.6455688,14.3783569 24.1431427,15.0457764 25.7389068,15.0457764 C27.3339844,15.0457764 28.832245,14.3783569 29.8484803,13.2158661 C30.3277588,12.6672363 30.2721405,11.8343354 29.7235107,11.3550567 C29.1755675,10.8757782 28.3426666,10.9320831 27.8633881,11.4800263 Z" id="Path"></path>
                <path d="M19.621582,72.2117616 C19.8591613,72.8874207 20.628891,73.254776 21.3024902,73.0178833 C21.9898223,72.7768707 22.350998,72.0243072 22.1092987,71.3369751 C21.8209076,70.5178071 21.4803315,69.706192 21.09581,68.9261627 C20.7737733,68.2731629 19.9834443,68.0046845 19.3304443,68.3267212 C18.6774444,68.6487579 18.4082794,69.4390869 18.7303162,70.0920868 C19.0688324,70.7780457 19.3682099,71.4907837 19.621582,72.2117616 Z" id="Path"></path>
                <path d="M16.8578339,63.0361176 C16.3414765,62.5231934 15.5065155,62.5259399 14.9935913,63.0422974 C14.4799805,63.5593414 14.4827271,64.3936157 14.9997711,64.9072266 C15.5429077,65.4462432 16.0592651,66.0237121 16.5344238,66.6238403 C16.9704438,67.1738433 17.816391,67.2898866 18.3869933,66.8373871 C18.9575958,66.3848877 19.0530396,65.5554199 18.6005401,64.9855041 C18.0608368,64.3043517 17.4744415,63.6486054 16.8578339,63.0361176 Z" id="Path"></path>
                <path d="M9.78744516,61.2103271 C10.4754639,61.544037 11.1518096,61.9223785 11.7965698,62.3364258 C12.3863984,62.7147675 13.2234191,62.5527192 13.6175537,61.9381714 C14.0110015,61.3256836 13.8331603,60.5099487 13.2199859,60.1165009 C12.4873351,59.6468354 11.7189789,59.2163086 10.9368896,58.8372803 C10.2818299,58.52005 9.4928741,58.7940216 9.17564396,59.4490815 C8.85841365,60.104828 9.13238525,60.8930968 9.78744516,61.2103271 Z" id="Path"></path>
                <path d="M55.1101685,66.7385102 C55.5812072,66.7357636 56.0405732,66.4823914 56.2747192,66.0436249 C56.6413879,65.3569794 57.0423888,64.6778869 57.4681092,64.0255737 C57.8656768,63.4158325 57.6940155,62.5987245 57.0835877,62.2011567 C56.4738465,61.8035889 55.6574249,61.9752502 55.2591705,62.5856781 C54.7922515,63.3025361 54.3507384,64.048233 53.9483643,64.8028564 C53.6057281,65.44487 53.8488007,66.2434386 54.4908143,66.5867616 C54.6871948,66.6911317 54.9000548,66.7398834 55.1101685,66.7385102 Z" id="Path"></path>
                <path d="M52.1095275,69.0161133 C51.8293761,69.8249816 51.5828705,70.6565094 51.3755035,71.4873505 C51.1997222,72.1939087 51.6295624,72.9093934 52.3361206,73.0851746 C53.0330658,73.2588959 53.7609101,72.8221894 53.9346313,72.1252441 C54.1227723,71.3692475 54.3473053,70.6132508 54.6013642,69.8778534 C54.83963,69.1891479 54.4743348,68.4386445 53.7863159,68.201065 C53.098297,67.962799 52.3471069,68.3280946 52.1095275,69.0161133 Z" id="Path"></path>
                <path d="M68.0417633,59.1984559 C65.7195282,58.0393983 63.1336212,57.4598693 60.5875396,57.0410156 C58.3428955,56.6716004 55.9389496,56.4841461 53.3846283,56.4841461 C53.3784484,56.4841461 53.371582,56.4841461 53.3654023,56.4841461 C50.7774354,56.5239716 49.1102599,56.0158539 48.0205536,54.8204041 C48.7353516,53.9339447 49.0127563,52.7185821 48.6529541,51.5499115 C48.2807921,50.3407287 47.3208618,49.4528961 46.1405181,49.1562652 C46.038208,48.1530762 45.9750366,47.0111846 45.9475708,45.6660461 C46.9947052,45.0494385 47.7005767,43.9130401 47.7005767,42.6132202 C47.7005767,41.3346864 47.0180512,40.2154541 46.0004425,39.59198 C46.0292817,38.4432221 46.1466981,34.5410156 46.167984,33.7980653 C47.1890259,33.1752778 47.8736114,32.0539855 47.8736114,30.7733917 C47.8736114,29.5511627 47.2521973,28.4717559 46.3087462,27.8345489 C46.3320923,26.4296723 46.3458252,25.0920868 46.3513184,23.788147 C48.755951,23.1969452 50.5453491,21.0230255 50.5453491,18.4384918 L50.5453491,5.51033016 C50.5446625,2.47192383 48.0734253,-5.68434189e-14 45.035019,-5.68434189e-14 L38.5366059,-5.68434189e-14 C37.8087616,-5.68434189e-14 37.2182465,0.590515137 37.2182465,1.31835937 C37.2182465,2.04689021 37.8087616,2.63671875 38.5366059,2.63671875 L45.035019,2.63671875 C46.6191102,2.63671875 47.9079438,3.92555232 47.9079438,5.51033016 L47.9079438,18.4384918 C47.9079438,20.022583 46.6191102,21.3114166 45.035019,21.3114166 L6.44279484,21.3114166 C4.85801701,21.3114166 3.56987004,20.022583 3.56987004,18.4384918 L3.56987004,5.51033016 C3.56987004,3.92555232 4.85870361,2.63671875 6.44279484,2.63671875 L33.2631684,2.63671875 C33.9910126,2.63671875 34.5815278,2.04689021 34.5815278,1.31835937 C34.5815278,0.590515137 33.9910126,-5.68434189e-14 33.2631684,-5.68434189e-14 L6.44279484,-5.68434189e-14 C3.40438852,-5.68434189e-14 0.932464687,2.47192383 0.932464687,5.51033016 L0.932464687,18.4384918 C0.932464687,21.0209657 2.71980281,23.1935119 5.12168889,23.7867736 C5.10040283,31.4820098 4.8621368,38.0202485 4.39521785,43.7372589 C4.33547965,44.4630431 4.87586971,45.0995636 5.60165414,45.1586152 C6.3267518,45.2183534 6.96395883,44.6779633 7.02301025,43.9521789 C7.49336238,38.2035829 7.734375,31.6474914 7.75909424,23.9481353 L43.713913,23.9481353 C43.7091064,25.012436 43.6981201,26.1000824 43.680954,27.2289277 L40.3713227,27.2289277 C39.4230653,26.2628174 38.1163788,25.7004547 36.7513276,25.7004547 C33.9546203,25.7004547 31.6790771,27.975998 31.6790771,30.7727051 C31.6790771,33.5700988 33.9546203,35.8456421 36.7513276,35.8456421 C38.1163788,35.8456421 39.4230653,35.2832794 40.3713227,34.3171691 L43.5147857,34.3171691 C43.498993,34.8527528 43.4028625,38.0525207 43.3753966,39.0680694 L40.1976014,39.0680694 C39.2500304,38.1019591 37.9426574,37.5402832 36.5782929,37.5402832 C33.780899,37.5402832 31.5053559,39.8151397 31.5053559,42.6125336 C31.5053559,45.4092407 33.780899,47.684784 36.5782929,47.684784 C37.9426574,47.684784 39.2500304,47.1231079 40.1976014,46.1569976 L43.3218384,46.1569976 C43.3541108,47.3874664 43.4179688,48.4593202 43.5168457,49.4219971 L40.4427338,50.3675079 C39.7018433,49.9658203 38.8648223,49.747467 38.0223084,49.747467 C37.5183105,49.747467 37.0163726,49.822998 36.5309142,49.9720001 C33.8571167,50.7952881 32.3519897,53.6386871 33.1739044,56.3124848 C33.8330841,58.4548188 35.7810975,59.8940278 38.0209351,59.8940278 C38.5256196,59.8940278 39.0282441,59.8184967 39.5137023,59.668808 C40.8217621,59.2664337 41.906662,58.3442687 42.5280762,57.1419526 L45.7038116,56.1655426 C47.2940826,58.2282257 49.7694396,59.1737365 53.3935547,59.1201782 C54.930954,59.1201782 56.4058686,59.1929627 57.8182983,59.333725 C57.6177979,59.8322296 57.7352143,60.4241181 58.1575011,60.8045196 C58.6841583,61.2789917 59.5349121,61.2453461 60.0196837,60.7077026 C60.3067017,60.3890991 60.6060791,60.0780487 60.9095763,59.7718048 C62.2931671,60.0313569 63.6032867,60.3684998 64.836502,60.7818604 C62.7731323,62.5266265 61.0283661,64.6414947 59.670868,66.9760894 C57.8656768,70.0797271 56.8274688,73.6255645 56.6125488,77.2064209 C56.6111756,77.2290802 56.6091156,77.2517394 56.6077423,77.2743988 L53.1772613,77.2743988 C53.1937408,76.9317627 53.2157135,76.5891265 53.2452393,76.2499237 C53.3084106,75.5241395 52.7714539,74.8848725 52.0463563,74.8217011 C51.3205719,74.7585297 50.6813048,75.2954864 50.6181336,76.0205841 C50.5817413,76.4360047 50.5549621,76.8548584 50.5364228,77.2743988 L23.302002,77.2743988 C23.2738495,76.8074799 23.2326508,76.3412476 23.1756592,75.8805084 C23.0863954,75.1581573 22.4279023,74.6445465 21.7048644,74.7344971 C20.9825135,74.8237609 20.4689025,75.482254 20.5588531,76.2046051 C20.6027984,76.5582275 20.6357574,76.9159698 20.65979,77.2743988 L17.2238159,77.2743988 C17.2217559,77.2434998 17.2169494,77.2126007 17.214203,77.1817017 C16.8605805,73.1764985 14.9359131,69.3848419 11.9318389,66.7158507 C9.77508545,64.8001099 7.08618164,63.4851837 4.24621582,62.9743194 C4.24072266,62.9736328 4.23522949,62.9722596 4.22973633,62.9708862 C4.34715275,62.3460389 4.77836613,60.1020812 4.87312313,59.6056366 C5.22537223,59.6701812 5.57693473,59.7429657 5.92369084,59.8267364 C6.62200928,59.9942779 7.34504695,59.5527648 7.51396184,58.8530732 C7.68424992,58.1451416 7.24822998,57.4330903 6.54029842,57.2628022 C6.14822379,57.168045 5.74996957,57.0856475 5.3503418,57.0128632 C5.74859619,54.7661591 6.14616398,52.2468566 6.49635311,49.2716217 C6.58149715,48.548584 6.06376652,47.8928375 5.34072867,47.8076934 C4.617691,47.7225494 3.96263127,48.2402802 3.87748723,48.9633179 C3.31306453,53.7609101 2.64770508,57.2195435 2.00500488,60.5648804 C1.78665152,61.6971588 1.58134465,62.7669526 1.38496395,63.8607788 C0.606308027,68.1955719 0.0872040234,72.3593902 0.0872040234,78.5927582 L0.0872040234,84.3255615 C0.0872040234,86.4761353 1.27922063,88.4165955 3.19770809,89.3902588 C4.77905273,90.1922607 6.72981258,90.2046203 8.33518986,89.3902588 C9.5690918,88.7640381 10.7013702,88.7729644 11.918106,89.3902588 C13.4994507,90.1922607 15.4515839,90.2039337 17.0562744,89.3902588 C18.2908631,88.7633515 19.4210815,88.7722778 20.6391906,89.3902588 C22.2205352,90.1922607 24.1712951,90.2046203 25.777359,89.3902588 C27.0146943,88.7619781 28.1387329,88.7702179 29.3595887,89.3902588 C30.9608459,90.2025605 32.8971864,90.2018739 34.4977569,89.3902588 C35.7309722,88.7647247 36.862564,88.7715912 38.0806733,89.3902588 C39.6620177,90.1922607 41.614151,90.2039337 43.2188416,89.3902588 C44.4486236,88.7660981 45.5863954,88.7736512 46.8017578,89.3902588 C48.3810425,90.1908875 50.3366089,90.2032471 51.9392394,89.3902588 C53.1697082,88.7660981 54.3067931,88.7736512 55.5228424,89.3902588 C57.1234131,90.2018739 59.0590668,90.2025605 60.6603241,89.3902588 C61.8990326,88.7619781 63.0223847,88.7702179 64.2432403,89.3902588 C65.8238984,90.1922607 67.7767182,90.2039337 69.3814087,89.3902588 C70.6180572,88.7626649 71.7448426,88.7709045 72.964325,89.3902588 C76.6886903,91.2799072 81.2123107,88.4770204 81.2123107,84.3255615 L81.2123107,78.6003114 C81.2150575,78.3400727 81.2184906,75.0716401 79.6508789,71.1055756 C78.1711578,67.3640441 74.9569702,62.2608947 68.0417633,59.1984559 Z M38.7384796,57.1488189 C37.4640655,57.540207 36.0859679,56.8103027 35.6945801,55.5372619 C35.2997589,54.2539215 36.0227967,52.8881836 37.3061371,52.4933624 C37.505951,52.4315644 37.7105713,52.3958588 37.9165649,52.3869325 C37.6213075,53.0323791 37.5313569,53.7636567 37.6535797,54.4626617 C37.8273009,55.4548644 38.4267426,56.3564301 39.2864228,56.8837738 C39.2926025,56.887207 39.2974091,56.891327 39.3029023,56.8947602 C39.1291808,57.0011903 38.9403534,57.0870209 38.7384796,57.1488189 Z M36.4766694,30.7830048 C36.4780426,31.3652802 36.6215516,31.946869 36.9065094,32.4707794 C37.0362853,32.707672 37.1887207,32.9301454 37.3672485,33.1306457 C37.1694946,33.1821441 36.9628144,33.2089233 36.7520142,33.2089233 C35.4089355,33.2089233 34.3164825,32.1164703 34.3164825,30.7733917 C34.3164825,29.4303131 35.4089355,28.3378602 36.7520142,28.3378602 C36.9628144,28.3378602 37.1694946,28.3639526 37.3672485,28.4154511 C37.1887207,28.6159516 37.0362853,28.8384247 36.9071961,29.076004 C36.6181182,29.6047211 36.4746094,30.1938629 36.4766694,30.7830048 Z M40.0170136,31.6804504 C39.5267486,31.6804504 39.1092681,31.2629699 39.1092681,30.7733917 C39.1092681,30.2824403 39.526062,29.8656464 40.0170136,29.8656464 L44.3291474,29.8656464 C44.8214722,29.8656464 45.2368927,30.2824403 45.2368927,30.7733917 C45.2368927,31.2602235 44.818039,31.6804504 44.3291474,31.6804504 L40.0170136,31.6804504 Z M36.3173676,42.9634093 C36.3922119,43.6994933 36.7012023,44.417038 37.1935273,44.9704742 C36.9957734,45.0219727 36.7890929,45.0480653 36.5782929,45.0480653 C35.2352143,45.0480653 34.1427612,43.9556122 34.1427612,42.6125336 C34.1427612,41.269455 35.2352143,40.177002 36.5782929,40.177002 C36.7890929,40.177002 36.9957734,40.2037812 37.1935273,40.2552795 C37.0149994,40.4557801 36.862564,40.6782531 36.7327881,40.9158325 C36.3956451,41.5365601 36.2459565,42.2602843 36.3173676,42.9634093 Z M39.8432921,43.5202789 C39.3544005,43.5202789 38.9362335,43.1007384 38.9362335,42.6125336 C38.9362335,42.1277618 39.3578339,41.7054748 39.8432921,41.7054748 L44.1561127,41.7054748 C44.6484375,41.7054748 45.0631714,42.1208954 45.0631714,42.6125336 C45.0631714,43.1014252 44.6450043,43.5202789 44.1561127,43.5202789 L39.8432921,43.5202789 Z M45.5321503,53.4594727 L41.4102173,54.727707 C40.9384918,54.8732758 40.4228211,54.5965576 40.2758789,54.1275787 C40.1330566,53.6702729 40.4166412,53.1415557 40.8766938,52.9932403 L44.9986268,51.725006 C45,51.7243194 45.00206,51.7243194 45.0034332,51.7236328 C45.4730987,51.5808105 45.9880829,51.8561554 46.132965,52.3258209 C46.2799072,52.8037262 46.0100556,53.3125304 45.5321503,53.4594727 Z M59.2959595,76.6928101 C59.6900939,72.4232482 61.4396668,68.3164215 64.2425537,65.0720215 C65.2429962,63.9136505 66.4027404,62.8376769 67.6496886,61.9216919 C72.1540832,64.0921783 75.3511046,67.4725342 77.159729,71.9783019 C78.0221558,74.1268158 78.3592988,76.0645294 78.4911347,77.2750854 L59.2506408,77.2750854 C59.2630005,77.0807647 59.2781066,76.8871308 59.2959595,76.6928101 Z M3.76487736,65.5684662 C3.77517691,65.6041718 4.29840088,65.6762695 4.34234619,65.6858827 C7.96440129,66.5057373 11.1779023,68.9364624 12.9837799,72.1774292 C13.7651825,73.5795594 14.2767334,75.1279449 14.5081329,76.7154693 C14.5349121,76.9015503 14.5561982,77.0883179 14.5747375,77.2750854 L2.73284912,77.2750854 C2.79327393,72.5214386 3.18466195,69.0270996 3.76487736,65.5684662 Z M78.575592,84.3262481 C78.575592,86.5097808 76.1654663,88.0574799 74.1570282,87.0391846 C72.1856689,86.0387421 70.1449585,86.0462951 68.1887055,87.0391846 C67.3400116,87.4697113 66.2853241,87.4697113 65.4366303,87.0391846 C63.4728241,86.0428619 61.4190674,86.0497284 59.4683075,87.0391846 C58.6189269,87.4697113 57.5642394,87.4697113 56.7155457,87.0391846 C54.7483062,86.0408019 52.6986694,86.0490418 50.7472228,87.0391846 C49.8978424,87.4697113 48.8438416,87.4697113 47.9951476,87.0391846 C46.0272217,86.0408019 43.9775849,86.0490418 42.0261383,87.0391846 C41.1774444,87.4697113 40.1227569,87.4697113 39.2740631,87.0391846 C37.3013306,86.0380555 35.2613067,86.0462951 33.3050537,87.0391846 C32.4563599,87.4697113 31.4016724,87.4697113 30.5529785,87.0391846 C28.5816192,86.0387421 26.5395356,86.0469819 24.5846558,87.038498 C23.7359619,87.4697113 22.6805878,87.4697113 21.831894,87.038498 C19.8687744,86.0428619 17.8136445,86.0490418 15.8635712,87.038498 C15.0141906,87.4690246 13.9601899,87.4697113 13.1108094,87.038498 C11.1387635,86.0380555 9.09873967,86.0462951 7.14248648,87.038498 C5.14778133,88.0506134 2.72392277,86.5489198 2.72392277,84.3255615 L2.72392277,79.9118042 L78.575592,79.9118042 L78.575592,84.3262481 Z" id="Shape" fill-rule="nonzero"></path>
            </g>
        </g>
    </g>
</svg>