<?xml version="1.0" encoding="UTF-8"?>
<svg width="14px" height="14px" viewBox="0 0 14 14" version="1.1" xmlns="http://www.w3.org/2000/svg" xmlns:xlink="http://www.w3.org/1999/xlink">
    <!-- Generator: sketchtool 53.2 (72643) - https://sketchapp.com -->
    <title>F63CF5B3-F447-4CC2-9B9E-2DE8CBFF5E89</title>
    <desc>Created with sketchtool.</desc>
    <g id="All-Pages" stroke="none" stroke-width="1" fill="none" fill-rule="evenodd">
        <g id="SCTE_DTPWEB-Chapter_Chapter-Event-Details" transform="translate(-952.000000, -572.000000)" fill="#B3BDBC">
            <g id="calendar-copy" transform="translate(952.000000, 572.000000)">
                <path d="M12.359375,1.09375 L11.703125,1.09375 L11.703125,0 L10.609375,0 L10.609375,1.09375 L3.390625,1.09375 L3.390625,0 L2.296875,0 L2.296875,1.09375 L1.640625,1.09375 C0.735984375,1.09375 0,1.82973437 0,2.734375 L0,12.359375 C0,13.2640156 0.735984375,14 1.640625,14 L12.359375,14 C13.2640156,14 14,13.2640156 14,12.359375 L14,2.734375 C14,1.82973437 13.2640156,1.09375 12.359375,1.09375 Z M12.90625,12.359375 C12.90625,12.6609219 12.6609219,12.90625 12.359375,12.90625 L1.640625,12.90625 C1.33907813,12.90625 1.09375,12.6609219 1.09375,12.359375 L1.09375,5.140625 L12.90625,5.140625 L12.90625,12.359375 Z M12.90625,4.046875 L1.09375,4.046875 L1.09375,2.734375 C1.09375,2.43282812 1.33907813,2.1875 1.640625,2.1875 L2.296875,2.1875 L2.296875,3.28125 L3.390625,3.28125 L3.390625,2.1875 L10.609375,2.1875 L10.609375,3.28125 L11.703125,3.28125 L11.703125,2.1875 L12.359375,2.1875 C12.6609219,2.1875 12.90625,2.43282812 12.90625,2.734375 L12.90625,4.046875 Z" id="Shape" fill-rule="nonzero"></path>
                <rect id="Rectangle" x="2.078125" y="6.2890625" width="1.09375" height="1.09375"></rect>
                <rect id="Rectangle" x="4.265625" y="6.2890625" width="1.09375" height="1.09375"></rect>
                <rect id="Rectangle" x="6.453125" y="6.2890625" width="1.09375" height="1.09375"></rect>
                <rect id="Rectangle" x="8.640625" y="6.2890625" width="1.09375" height="1.09375"></rect>
                <rect id="Rectangle" x="10.828125" y="6.2890625" width="1.09375" height="1.09375"></rect>
                <rect id="Rectangle" x="2.078125" y="8.4765625" width="1.09375" height="1.09375"></rect>
                <rect id="Rectangle" x="4.265625" y="8.4765625" width="1.09375" height="1.09375"></rect>
                <rect id="Rectangle" x="6.453125" y="8.4765625" width="1.09375" height="1.09375"></rect>
                <rect id="Rectangle" x="8.640625" y="8.4765625" width="1.09375" height="1.09375"></rect>
                <rect id="Rectangle" x="2.078125" y="10.6640625" width="1.09375" height="1.09375"></rect>
                <rect id="Rectangle" x="4.265625" y="10.6640625" width="1.09375" height="1.09375"></rect>
                <rect id="Rectangle" x="6.453125" y="10.6640625" width="1.09375" height="1.09375"></rect>
                <rect id="Rectangle" x="8.640625" y="10.6640625" width="1.09375" height="1.09375"></rect>
                <rect id="Rectangle" x="10.828125" y="8.4765625" width="1.09375" height="1.09375"></rect>
            </g>
        </g>
    </g>
</svg>