<svg xmlns="http://www.w3.org/2000/svg" width="112" height="101" viewBox="0 0 112 101">
    <g fill="#FFF" fill-rule="evenodd">
        <path fill-rule="nonzero" d="M104.533 0H18.667C14.543 0 11.2 3.35 11.2 7.481v59.852H1.867c-1.031 0-1.867.838-1.867 1.87 0 4.133 3.343 7.482 7.467 7.482H61.6V99.13a1.864 1.864 0 1 0 3.186 1.322l9.88-9.9 9.88 9.9a1.865 1.865 0 0 0 3.187-1.322V76.685h5.6c4.124 0 7.467-3.35 7.467-7.481V9.352h9.333c1.031 0 1.867-.838 1.867-1.87C112 3.35 108.657 0 104.533 0zm-7.466 7.481v59.852H89.6v3.741h6.965a3.732 3.732 0 0 1-3.232 1.87h-5.6v-1.87H84v23.54l-8.014-8.029a1.864 1.864 0 0 0-2.64 0l-8.013 8.03v-23.54H61.6v1.87H7.467a3.732 3.732 0 0 1-3.232-1.87h55.498v-3.742h-44.8V7.481a3.737 3.737 0 0 1 3.734-3.74h79.438a7.417 7.417 0 0 0-1.038 3.74zm4.235-1.87a3.73 3.73 0 0 1 6.463 0h-6.463z"/>
        <path fill-rule="nonzero" d="M92.755 57.732l-2.345-4.248 2.354-4.244a1.862 1.862 0 0 0-.833-2.592l-4.369-2.023-.564-4.83a1.835 1.835 0 0 0-2.172-1.598l-4.719.946-3.263-3.574a1.87 1.87 0 0 0-2.667-.021l-.02.021-3.264 3.574-4.719-.946a1.831 1.831 0 0 0-2.172 1.598l-.564 4.83-4.37 2.027a1.86 1.86 0 0 0-.832 2.591l2.354 4.24-2.354 4.245a1.862 1.862 0 0 0 .833 2.591l4.369 2.027.564 4.835a1.835 1.835 0 0 0 2.172 1.597l4.72-.946 3.263 3.574a1.816 1.816 0 0 0 2.687 0l3.263-3.574 4.719.946c.5.103 1.02-.012 1.431-.318.41-.305.674-.769.732-1.28l.564-4.83 4.37-2.027a1.86 1.86 0 0 0 .832-2.591zm-6.038-3.345l1.883 3.398-3.5 1.624c-.58.269-.98.824-1.054 1.466l-.45 3.873-3.784-.757a1.792 1.792 0 0 0-1.698.556L75.5 67.412l-2.614-2.862a1.82 1.82 0 0 0-1.698-.557l-3.784.757-.45-3.874A1.85 1.85 0 0 0 65.9 59.41l-3.5-1.623 1.884-3.398a1.834 1.834 0 0 0 0-1.81v.007L62.4 49.188l3.5-1.623c.58-.27.98-.825 1.054-1.466l.45-3.874 3.784.757a1.8 1.8 0 0 0 1.698-.555l2.614-2.871 2.614 2.861a1.79 1.79 0 0 0 1.698.556l3.784-.757.45 3.874a1.85 1.85 0 0 0 1.054 1.465l3.5 1.624-1.883 3.398a1.87 1.87 0 0 0 0 1.81z"/>
        <path fill-rule="nonzero" d="M75 45c-4.97 0-9 4.253-9 9.5.006 5.244 4.032 9.494 9 9.5 4.97 0 9-4.253 9-9.5S79.97 45 75 45zm0 15.2c-2.982 0-5.4-2.552-5.4-5.7s2.418-5.7 5.4-5.7 5.4 2.552 5.4 5.7-2.418 5.7-5.4 5.7z"/>
        <path d="M42 11h30v4H42zM23 22h67v4H23zM23 30h67v4H23zM24 54h25v4H24z"/>
    </g>
</svg>
