<?xml version="1.0" encoding="UTF-8"?>
<svg width="89px" height="90px" viewBox="0 0 89 90" version="1.1" xmlns="http://www.w3.org/2000/svg" xmlns:xlink="http://www.w3.org/1999/xlink">
    <!-- Generator: sketchtool 52.5 (67469) - http://www.bohemiancoding.com/sketch -->
    <title>C758FC14-4562-4892-9304-E069C17BFFFB</title>
    <desc>Created with sketchtool.</desc>
    <g id="Landing-Pages" stroke="none" stroke-width="1" fill="none" fill-rule="evenodd">
        <g id="SCTE_DTPWEB-What-We-Do" transform="translate(-550.000000, -835.000000)" fill="#FFFFFF">
            <g id="meeting" transform="translate(550.000000, 835.000000)">
                <path d="M82.7714833,30.7795055 C84.7739833,28.8850549 86.0333333,26.2102747 86.0333333,23.2417582 C86.0333333,17.5153846 81.3756667,12.8571429 75.65,12.8571429 C69.9243333,12.8571429 65.2666667,17.5153846 65.2666667,23.2417582 C65.2666667,26.8852747 67.1564333,30.0911538 70.00295,31.9440659 C68.0419833,33.2807143 66.75,35.5297253 66.75,38.0769231 L66.75,48.4615385 L60.8166667,48.4615385 L60.8166667,41.043956 C60.8166667,35.7359341 56.8116667,31.3506593 51.6645,30.7394505 C53.6432667,28.847967 54.8833333,26.1895055 54.8833333,23.2417582 C54.8833333,17.5153846 50.2256667,12.8571429 44.5,12.8571429 C38.7743333,12.8571429 34.1166667,17.5153846 34.1166667,23.2417582 C34.1166667,26.1895055 35.3567333,28.847967 37.3355,30.7394505 C32.1883333,31.3506593 28.1833333,35.7359341 28.1833333,41.043956 L28.1833333,48.4615385 L22.25,48.4615385 L22.25,38.0769231 C22.25,35.5297253 20.9580167,33.2807143 18.99705,31.9440659 C21.8435667,30.0911538 23.7333333,26.8852747 23.7333333,23.2417582 C23.7333333,17.5153846 19.0756667,12.8571429 13.35,12.8571429 C7.62433333,12.8571429 2.96666667,17.5153846 2.96666667,23.2417582 C2.96666667,26.2102747 4.22601667,28.8850549 6.22851667,30.7795055 C2.7056,31.3521429 0,34.3933516 0,38.0769231 L0,60.3296703 C0,63.9108791 2.55281667,66.9075824 5.93333333,67.5974176 L5.93333333,90 L8.9,90 L8.9,67.7472527 L22.25,67.7472527 L22.25,88.5164835 C22.25,89.3353846 22.9145333,90 23.7333333,90 L32.6333333,90 C33.4521333,90 34.1166667,89.3353846 34.1166667,88.5164835 L34.1166667,64.7802198 L43.0166667,64.7802198 L43.0166667,87.032967 L37.0833333,87.032967 L37.0833333,90 L51.9166667,90 L51.9166667,87.032967 L45.9833333,87.032967 L45.9833333,64.7802198 L54.8833333,64.7802198 L54.8833333,88.5164835 C54.8833333,89.3353846 55.5478667,90 56.3666667,90 L65.2666667,90 C66.0854667,90 66.75,89.3353846 66.75,88.5164835 L66.75,67.7472527 L80.1,67.7472527 L80.1,90 L83.0666667,90 L83.0666667,67.5974176 C86.4471833,66.9075824 89,63.9123626 89,60.3296703 L89,38.0769231 C89,34.3933516 86.2944,31.3521429 82.7714833,30.7795055 Z M68.2333333,23.2417582 C68.2333333,19.1517033 71.56045,15.8241758 75.65,15.8241758 C79.73955,15.8241758 83.0666667,19.1517033 83.0666667,23.2417582 C83.0666667,27.3318132 79.73955,30.6593407 75.65,30.6593407 C71.56045,30.6593407 68.2333333,27.3318132 68.2333333,23.2417582 Z M37.0833333,23.2417582 C37.0833333,19.1517033 40.41045,15.8241758 44.5,15.8241758 C48.58955,15.8241758 51.9166667,19.1517033 51.9166667,23.2417582 C51.9166667,27.3318132 48.58955,30.6593407 44.5,30.6593407 C40.41045,30.6593407 37.0833333,27.3318132 37.0833333,23.2417582 Z M46.80955,33.6263736 L44.5,39.7859341 L42.19045,33.6263736 L46.80955,33.6263736 Z M31.15,41.043956 C31.15,36.9539011 34.4771167,33.6263736 38.5666667,33.6263736 L39.02205,33.6263736 L43.1116,44.5317033 C43.3281667,45.1102747 43.88145,45.4945055 44.5,45.4945055 C45.11855,45.4945055 45.6718333,45.1102747 45.8898833,44.5317033 L49.97795,33.6263736 L50.4333333,33.6263736 C54.5228833,33.6263736 57.85,36.9539011 57.85,41.043956 L57.85,48.4615385 L51.9166667,48.4615385 C51.0978667,48.4615385 50.4333333,49.1261538 50.4333333,49.9450549 L50.4333333,55.8791209 L38.5666667,55.8791209 L38.5666667,49.9450549 C38.5666667,49.1261538 37.9021333,48.4615385 37.0833333,48.4615385 L31.15,48.4615385 L31.15,41.043956 Z M5.93333333,23.2417582 C5.93333333,19.1517033 9.26045,15.8241758 13.35,15.8241758 C17.43955,15.8241758 20.7666667,19.1517033 20.7666667,23.2417582 C20.7666667,27.3318132 17.43955,30.6593407 13.35,30.6593407 C9.26045,30.6593407 5.93333333,27.3318132 5.93333333,23.2417582 Z M31.15,87.032967 L25.2166667,87.032967 L25.2166667,66.2637363 C25.2166667,65.4448352 24.5521333,64.7802198 23.7333333,64.7802198 L7.41666667,64.7802198 C4.96323333,64.7802198 2.96666667,62.7834066 2.96666667,60.3296703 L2.96666667,38.0769231 C2.96666667,35.6231868 4.96323333,33.6263736 7.41666667,33.6263736 L14.8333333,33.6263736 C17.2867667,33.6263736 19.2833333,35.6231868 19.2833333,38.0769231 L19.2833333,49.9450549 C19.2833333,50.763956 19.9478667,51.4285714 20.7666667,51.4285714 L35.6,51.4285714 L35.6,55.8791209 L14.8333333,55.8791209 L14.8333333,42.5274725 L11.8666667,42.5274725 L11.8666667,57.3626374 C11.8666667,58.1815385 12.5312,58.8461538 13.35,58.8461538 L26.7,58.8461538 C29.1534333,58.8461538 31.15,60.842967 31.15,63.2967033 L31.15,87.032967 Z M55.0494667,61.8131868 L33.9505333,61.8131868 C33.72655,60.7198352 33.2771,59.7080769 32.6303667,58.8461538 L37.0833333,58.8461538 L51.9166667,58.8461538 L56.3696333,58.8461538 C55.7229,59.7080769 55.27345,60.7198352 55.0494667,61.8131868 Z M86.0333333,60.3296703 C86.0333333,62.7834066 84.0367667,64.7802198 81.5833333,64.7802198 L65.2666667,64.7802198 C64.4478667,64.7802198 63.7833333,65.4448352 63.7833333,66.2637363 L63.7833333,87.032967 L57.85,87.032967 L57.85,63.2967033 C57.85,60.842967 59.8465667,58.8461538 62.3,58.8461538 L75.65,58.8461538 C76.4688,58.8461538 77.1333333,58.1815385 77.1333333,57.3626374 L77.1333333,42.5274725 L74.1666667,42.5274725 L74.1666667,55.8791209 L53.4,55.8791209 L53.4,51.4285714 L68.2333333,51.4285714 C69.0521333,51.4285714 69.7166667,50.763956 69.7166667,49.9450549 L69.7166667,38.0769231 C69.7166667,35.6231868 71.7132333,33.6263736 74.1666667,33.6263736 L81.5833333,33.6263736 C84.0367667,33.6263736 86.0333333,35.6231868 86.0333333,38.0769231 L86.0333333,60.3296703 Z" id="Shape" fill-rule="nonzero"></path>
                <rect id="Rectangle" x="44.0412371" y="48.6734694" width="2.75257732" height="2.75510204"></rect>
                <path d="M37.1024485,0 L17.0315722,0 C16.2402062,0 15.5979381,0.699428571 15.5979381,1.56122449 L15.5979381,9.36734694 C15.5979381,10.2291429 16.2402062,10.9285714 17.0315722,10.9285714 L22.7661082,10.9285714 L22.7661082,14.0510204 C22.7661082,14.6427245 23.0729059,15.1829082 23.5589079,15.4483163 C23.7610503,15.557602 23.9818299,15.6122449 24.1997423,15.6122449 C24.5036727,15.6122449 24.8061695,15.5060816 25.0599227,15.3 L30.4116785,10.9285714 L37.1024485,10.9285714 C37.8938144,10.9285714 38.5360825,10.2291429 38.5360825,9.36734694 L38.5360825,1.56122449 C38.5360825,0.699428571 37.8938144,0 37.1024485,0 Z M35.6688144,7.80612245 L29.9342784,7.80612245 C29.6246134,7.80612245 29.3221166,7.91540816 29.0740979,8.11836735 L25.6333763,10.9285714 L25.6333763,9.36734694 C25.6333763,8.50555102 24.9911082,7.80612245 24.1997423,7.80612245 L18.4652062,7.80612245 L18.4652062,3.12244898 L35.6688144,3.12244898 L35.6688144,7.80612245 Z" id="Shape" fill-rule="nonzero"></path>
                <rect id="Rectangle" x="51.3814433" y="5.51020408" width="2.75257732" height="2.75510204"></rect>
                <rect id="Rectangle" x="57.8041237" y="5.51020408" width="2.75257732" height="2.75510204"></rect>
                <rect id="Rectangle" x="64.2268041" y="5.51020408" width="2.75257732" height="2.75510204"></rect>
            </g>
        </g>
    </g>
</svg>