<?xml version="1.0" encoding="UTF-8"?>
<svg width="89px" height="90px" viewBox="0 0 89 90" version="1.1" xmlns="http://www.w3.org/2000/svg" xmlns:xlink="http://www.w3.org/1999/xlink">
    <!-- Generator: sketchtool 52.5 (67469) - http://www.bohemiancoding.com/sketch -->
    <title>52887FBD-FF7B-4BBB-8532-F44D39BF9F96</title>
    <desc>Created with sketchtool.</desc>
    <g id="All-Pages" stroke="none" stroke-width="1" fill="none" fill-rule="evenodd">
        <g id="SCTE_DTPWEB-Education_Cortex" transform="translate(-158.000000, -195.000000)" fill="#FFFFFF">
            <g id="artificial-intelligence" transform="translate(158.000000, 195.000000)">
                <path d="M20.3101172,46.96875 L16.5285352,46.96875 C14.1161133,46.96875 12.1533398,45.018457 12.1533398,42.6213281 C12.1533398,41.8930664 11.5632422,41.3029687 10.8349805,41.3029687 C10.1067187,41.3029687 9.51662109,41.8930664 9.51662109,42.6213281 C9.51662109,46.4723438 12.6622266,49.6054688 16.5287109,49.6054688 L20.3101172,49.6054688 C21.0383789,49.6054688 21.6284766,49.0153711 21.6284766,48.2871094 C21.6284766,47.5588477 21.0383789,46.96875 20.3101172,46.96875 Z" id="Path"></path>
                <path d="M32.6983008,56.7260156 L21.4356445,56.7260156 C17.7157617,56.7260156 14.6893359,59.7401367 14.6893359,63.4454297 C14.6893359,64.1736914 15.2794336,64.7637891 16.0076953,64.7637891 C16.735957,64.7637891 17.3260547,64.1735156 17.3260547,63.4454297 C17.3260547,61.1941992 19.1694727,59.3627344 21.4356445,59.3627344 L32.6983008,59.3627344 C33.4265625,59.3627344 34.0166602,58.7726367 34.0166602,58.044375 C34.0166602,57.3161133 33.4265625,56.7260156 32.6983008,56.7260156 Z" id="Path"></path>
                <path d="M43.440293,56.7260156 L37.9719141,56.7260156 C37.2436523,56.7260156 36.6535547,57.3161133 36.6535547,58.044375 C36.6535547,58.7726367 37.2436523,59.3627344 37.9719141,59.3627344 L43.440293,59.3627344 C44.1685547,59.3627344 44.7586523,58.7726367 44.7586523,58.044375 C44.7586523,57.3161133 44.1683789,56.7260156 43.440293,56.7260156 Z" id="Path"></path>
                <path d="M34.1704687,31.1092383 C33.442207,31.1092383 32.8521094,31.6995117 32.8521094,32.4275977 C32.8521094,36.1974023 29.7671484,39.2642578 25.9751953,39.2642578 C25.2469336,39.2642578 24.6568359,39.8543555 24.6568359,40.5826172 C24.6568359,41.3108789 25.2469336,41.9009766 25.9751953,41.9009766 C31.2210352,41.9009766 35.4888281,37.6512891 35.4888281,32.4275977 C35.4888281,31.6995117 34.8987305,31.1092383 34.1704687,31.1092383 Z" id="Path"></path>
                <path d="M31.740293,11.1789844 C28.5909961,10.9768359 25.8604102,13.3644727 25.6561523,16.5032227 C25.6088672,17.2299023 26.1595898,17.8570898 26.8860938,17.9045508 C26.9152734,17.9064844 26.9442773,17.9073633 26.9731055,17.9073633 C27.662168,17.9073633 28.2418945,17.3719336 28.2874219,16.6746094 C28.3971094,14.9857031 29.8701563,13.7030273 31.5708398,13.8102539 C32.2980469,13.8589453 32.9243555,13.3061133 32.9711133,12.5794336 C33.0180469,11.8527539 32.4669727,11.225918 31.740293,11.1789844 Z" id="Path"></path>
                <path d="M27.3065625,62.5964062 C26.5783008,62.5964062 25.9882031,63.1865039 25.9882031,63.9147656 C25.9882031,64.6430273 26.5783008,65.233125 27.3065625,65.233125 C29.4836133,65.233125 31.2547852,66.9925195 31.2547852,69.1549805 C31.2547852,71.3179687 29.4836133,73.0773633 27.3065625,73.0773633 C26.5783008,73.0773633 25.9882031,73.6674609 25.9882031,74.3957227 C25.9882031,75.1239844 26.5783008,75.714082 27.3065625,75.714082 C30.9375,75.714082 33.8915039,72.7718555 33.8915039,69.1549805 C33.8915039,65.5386328 30.9375,62.5964062 27.3065625,62.5964062 Z" id="Path"></path>
                <path d="M40.7988281,31.5515039 C40.0705664,31.5515039 39.4804688,32.1416016 39.4804688,32.8698633 C39.4804688,33.598125 40.0705664,34.1882227 40.7988281,34.1882227 C42.5476758,34.1882227 43.970625,35.6009766 43.970625,37.3376953 C43.970625,39.0745898 42.5476758,40.4875195 40.7988281,40.4875195 C40.0705664,40.4875195 39.4804688,41.0776172 39.4804688,41.8058789 C39.4804688,42.5341406 40.0705664,43.1242383 40.7988281,43.1242383 C44.0017383,43.1242383 46.6073437,40.5283008 46.6073437,37.3376953 C46.6073437,34.1472656 44.0017383,31.5515039 40.7988281,31.5515039 Z" id="Path"></path>
                <path d="M17.5747852,23.1691992 C16.8465234,23.1691992 16.2564258,23.7592969 16.2564258,24.4875586 C16.2564258,25.2158203 16.8465234,25.805918 17.5747852,25.805918 C20.5795898,25.805918 23.0240039,28.2352148 23.0240039,31.2213867 C23.0240039,34.2077344 20.5795898,36.637207 17.5747852,36.637207 C16.8465234,36.637207 16.2564258,37.2273047 16.2564258,37.9555664 C16.2564258,38.6838281 16.8465234,39.2739258 17.5747852,39.2739258 C22.0333008,39.2739258 25.6607227,35.6616211 25.6607227,31.2213867 C25.6607227,26.7813281 22.0333008,23.1691992 17.5747852,23.1691992 Z" id="Path"></path>
                <path d="M79.5519141,23.1094336 C77.0739258,23.1094336 75.0578906,25.1184375 75.0578906,27.5878125 C75.0578906,30.0573633 77.0739258,32.0663672 79.5519141,32.0663672 C82.0299023,32.0663672 84.0459375,30.0573633 84.0459375,27.5878125 C84.0459375,25.1184375 82.0299023,23.1094336 79.5519141,23.1094336 Z M79.5520898,29.4298242 C78.5279883,29.4298242 77.6947852,28.6036523 77.6947852,27.5879883 C77.6946094,26.5725 78.5278125,25.7463281 79.5520898,25.7463281 C80.5761914,25.7463281 81.4093945,26.5725 81.4093945,27.5879883 C81.4093945,28.6034766 80.5761914,29.4298242 79.5520898,29.4298242 Z" id="Shape" fill-rule="nonzero"></path>
                <path d="M83.9569922,56.8508203 C81.4788281,56.8508203 79.4629688,58.8598242 79.4629688,61.329375 C79.4629688,63.7989258 81.4790039,65.8077539 83.9569922,65.8077539 C86.4349805,65.8077539 88.4508398,63.79875 88.4508398,61.329375 C88.4508398,58.86 86.4349805,56.8508203 83.9569922,56.8508203 Z M83.9569922,63.1710352 C82.9328906,63.1710352 82.0996875,62.3448633 82.0996875,61.329375 C82.0996875,60.3138867 82.9328906,59.4875391 83.9569922,59.4875391 C84.9810937,59.4875391 85.8141211,60.3137109 85.8141211,61.329375 C85.8142969,62.3448633 84.9810937,63.1710352 83.9569922,63.1710352 Z" id="Shape" fill-rule="nonzero"></path>
                <path d="M81.1908984,41.0503711 C80.4304687,41.0505469 79.7139844,41.2403906 79.0853906,41.5741992 L76.5154687,39.0169336 C75.9990234,38.5033008 75.1645898,38.5055859 74.6511328,39.0215039 C74.1375,39.5375977 74.1396094,40.372207 74.6557031,40.8858398 L77.2191211,43.4366016 C76.8863672,44.0616797 76.696875,44.773418 76.696875,45.52875 C76.696875,47.9983008 78.7129102,50.0073047 81.1908984,50.0073047 C83.6690625,50.0073047 85.6849219,47.9983008 85.6849219,45.52875 C85.6849219,43.059375 83.6688867,41.0503711 81.1908984,41.0503711 Z M81.1910742,47.3707617 C80.1669727,47.3707617 79.3337695,46.5445898 79.3337695,45.5289258 C79.3337695,44.5136133 80.1669727,43.6872656 81.1910742,43.6872656 C82.2151758,43.6872656 83.0483789,44.5134375 83.0483789,45.5289258 C83.0483789,46.5444141 82.2151758,47.3707617 81.1910742,47.3707617 Z" id="Shape" fill-rule="nonzero"></path>
                <path d="M78.2201953,70.6123828 C75.7420312,70.6123828 73.7261719,72.6213867 73.7261719,75.0909375 C73.7261719,77.5604883 75.742207,79.5694922 78.2201953,79.5694922 C80.6983594,79.5694922 82.7142188,77.5604883 82.7142188,75.0909375 C82.7142188,72.6213867 80.6983594,70.6123828 78.2201953,70.6123828 Z M78.2201953,76.9325977 C77.1960938,76.9325977 76.3628906,76.1064258 76.3628906,75.0907617 C76.3628906,74.0752734 77.1960938,73.2489258 78.2201953,73.2489258 C79.2442969,73.2489258 80.0775,74.0750977 80.0775,75.0907617 C80.0776758,76.1064258 79.2444727,76.9325977 78.2201953,76.9325977 Z" id="Shape" fill-rule="nonzero"></path>
                <path d="M62.7945117,24.7754883 C63.6324609,24.7754883 64.6323047,24.3627539 65.2262695,23.7717773 L70.3193555,18.7036523 C70.8312305,18.9059766 71.3881055,19.0184766 71.9711719,19.0184766 C74.4493359,19.0184766 76.4651953,17.0094727 76.4651953,14.5399219 C76.4651953,12.0705469 74.4491602,10.0617187 71.9711719,10.0617187 C69.4931836,10.0617187 67.4773242,12.0707227 67.4773242,14.5399219 C67.4773242,15.467168 67.7615625,16.3297266 68.248125,17.0451562 L63.3668555,21.9023438 C63.2636719,22.0013086 62.9370703,22.1363086 62.7945117,22.1387695 L51.9125977,22.1387695 L51.9125977,13.4117578 L54.9734766,13.4117578 C55.539668,15.239707 57.2507227,16.5719531 59.2685156,16.5719531 C61.7466797,16.5719531 63.7625391,14.5629492 63.7625391,12.0933984 C63.7625391,9.62402344 61.7465039,7.61501953 59.2685156,7.61501953 C57.2507227,7.61501953 55.539668,8.94708984 54.9734766,10.7750391 L51.9125977,10.7750391 L51.9125977,10.5753516 C51.9125977,4.74398438 47.1480469,0 41.2913672,0 C37.1046094,0 33.3488672,2.44019531 31.635,6.17132812 C31.3715039,6.15269531 31.1087109,6.14320313 30.8480273,6.14320313 C24.7610742,6.14320313 19.7926172,11.0028516 19.6514648,17.0303906 C19.1258789,16.9555078 18.5943164,16.9177148 18.0604687,16.9177148 C11.8849219,16.9177148 6.86091797,21.9200977 6.86091797,28.06875 C6.86091797,29.4183984 7.09769531,30.7242773 7.56597656,31.9665234 C2.95628906,34.7016797 0.142910156,39.5876953 0.142910156,45 C0.142910156,47.9060156 0.970664062,50.7308203 2.53652344,53.1687305 C3.82640625,55.1768555 5.56417969,56.8483594 7.60816406,58.0580859 C7.11703125,59.330918 6.86091797,60.6939258 6.86091797,62.0625586 C6.86091797,64.7769727 7.85197266,67.3927734 9.65144531,69.4281445 C10.1336133,69.9735938 10.9668164,70.0249219 11.5124414,69.5425781 C12.0580664,69.0602344 12.1092187,68.227207 11.626875,67.681582 C10.2536719,66.1285547 9.49763672,64.1329102 9.49763672,62.0623828 C9.49763672,60.6694922 9.826875,59.3409375 10.4751562,58.1132813 C11.2489453,56.6435742 12.4511133,55.4025586 13.9717969,54.5791992 C14.612168,54.2323828 14.85,53.4324023 14.5031836,52.792207 C14.156543,52.1516602 13.3562109,51.9134766 12.7161914,52.2608203 C11.1413672,53.1138867 9.82845703,54.3100781 8.84671875,55.7261719 C5.07691406,53.458418 2.77962891,49.4486719 2.77962891,45 C2.77962891,40.2433594 5.41423828,35.9792578 9.66779297,33.8210156 C9.66779297,33.8210156 12.129082,32.4516797 15.3965039,32.4516797 C16.1247656,32.4516797 16.7148633,31.861582 16.7148633,31.1333203 C16.7148633,30.4050586 16.1247656,29.8149609 15.3965039,29.8149609 C13.4811914,29.8149609 11.647793,30.1691602 9.95748047,30.81375 C9.65443359,29.9348437 9.49798828,29.0163867 9.49798828,28.0689258 C9.49798828,23.3739844 13.3391602,19.5546094 18.0608203,19.5546094 C18.9483398,19.5546094 19.8263672,19.6904883 20.6704687,19.9585547 C21.1030664,20.0958398 21.5757422,20.0010937 21.9218555,19.7075391 C22.2681445,19.4139844 22.4390039,18.9632812 22.3741406,18.5139844 C22.3152539,18.1047656 22.2853711,17.6944922 22.2853711,17.2944141 C22.2853711,12.5996484 26.1267188,8.78009766 30.8483789,8.78009766 C31.3120898,8.78009766 31.7859961,8.81982422 32.2576172,8.89734375 C36.3107812,9.56777344 39.4112109,13.0768945 39.4112109,17.2944141 C39.4112109,18.0226758 40.0013086,18.6127734 40.7295703,18.6127734 C41.457832,18.6127734 42.0479297,18.0226758 42.0479297,17.2944141 C42.0479297,12.3546094 38.8038867,8.15748047 34.3260352,6.69744141 C35.7180469,4.22208984 38.3635547,2.63671875 41.2913672,2.63671875 C45.6939844,2.63671875 49.2758789,6.19804688 49.2758789,10.5753516 L49.2758789,10.7217773 L46.7402344,10.7217773 C46.0119727,10.7217773 45.421875,11.311875 45.421875,12.0401367 C45.421875,12.7683984 46.0119727,13.3584961 46.7402344,13.3584961 L49.2758789,13.3584961 L49.2758789,22.1385938 L38.6129883,22.1385938 C36.2003906,22.1385938 34.2376172,20.1884766 34.2376172,17.7915234 C34.2376172,17.0632617 33.6475195,16.4731641 32.9192578,16.4731641 C32.1909961,16.4731641 31.6008984,17.0632617 31.6008984,17.7915234 C31.6008984,21.6423633 34.7465039,24.7753125 38.6129883,24.7753125 L49.2758789,24.7753125 L49.2758789,46.96875 L27.8906836,46.96875 C27.1624219,46.96875 26.5723242,47.5588477 26.5723242,48.2871094 C26.5723242,49.0153711 27.1624219,49.6054688 27.8906836,49.6054688 L49.2758789,49.6054688 L49.2758789,67.7067187 L45.2019727,67.7067187 C41.4820898,67.7067187 38.4558398,70.7208398 38.4558398,74.425957 C38.4558398,75.1542187 39.0459375,75.7443164 39.7741992,75.7443164 C40.5024609,75.7443164 41.0925586,75.1542187 41.0925586,74.425957 C41.0925586,72.1749023 42.9359766,70.3434375 45.2019727,70.3434375 L49.2758789,70.3434375 L49.2758789,79.4246484 C49.2758789,79.6317187 49.265332,79.8363281 49.2496875,80.0393555 L46.7402344,80.0393555 C46.0119727,80.0393555 45.421875,80.6294531 45.421875,81.3577148 C45.421875,82.0859766 46.0119727,82.6760742 46.7402344,82.6760742 L48.5725781,82.6760742 C47.3208398,85.4361914 44.529082,87.3632812 41.2913672,87.3632812 C38.3832422,87.3632812 35.7474023,85.7942578 34.3483594,83.3426367 C35.9407617,82.8225 37.40625,81.9481641 38.6409375,80.7570703 C39.1649414,80.2515234 39.1798828,79.4169141 38.6743359,78.8930859 C38.1687891,78.3687305 37.3341797,78.3539648 36.8103516,78.8595117 C35.5514062,80.0741602 33.9776367,80.8583203 32.2781836,81.1416797 C31.7990039,81.2218359 31.3178906,81.2626172 30.8480273,81.2626172 C26.1263672,81.2626172 22.2850195,77.4430664 22.2850195,72.748125 C22.2850195,72.6280664 22.2922266,72.5034375 22.2980273,72.3800391 C23.362207,71.9469141 24.361875,71.3541797 25.2534375,70.6099219 C25.8124219,70.1433984 25.8871289,69.3119531 25.4204297,68.7529688 C24.9537305,68.1939844 24.1359961,68.1361523 23.5634766,68.5859766 C20.9179687,70.6640625 18.3592969,70.6317187 17.3357227,70.5468164 C16.6079883,70.4851172 15.9730664,71.0259961 15.9125977,71.7514453 C15.8523047,72.4770703 16.3917773,73.1141016 17.1174023,73.1745703 C17.9602734,73.2441797 18.8189648,73.2197461 19.6539258,73.1007422 C19.8413086,79.0871484 24.790957,83.8993359 30.8482031,83.8993359 C31.1150391,83.8993359 31.3841602,83.8893164 31.6541602,83.8696289 C33.377168,87.5761523 37.1253516,90 41.2913672,90 C47.1478711,90 51.9125977,85.2560156 51.9125977,79.4246484 L51.9125977,76.51125 L58.9013086,76.51125 C59.0443945,76.5137109 59.3709961,76.6485352 59.4738281,76.7473242 L62.6169727,79.875 C62.1917578,80.5589648 61.9454883,81.3645703 61.9454883,82.2266016 C61.9454883,84.6961523 63.9615234,86.7051563 66.4395117,86.7051563 C68.9176758,86.7051563 70.9335352,84.6961523 70.9335352,82.2266016 C70.9335352,79.7570508 68.9175,77.7480469 66.4395117,77.7480469 C65.7878906,77.7480469 65.1689648,77.8881445 64.6092773,78.1377539 L61.3335937,74.8782422 C60.7396289,74.2872656 59.7397852,73.8745313 58.9018359,73.8745313 L51.9125977,73.8745313 L51.9125977,66.8271094 L63.3735352,66.8271094 C63.9397266,68.6550586 65.6507812,69.9873047 67.66875,69.9873047 C70.1469141,69.9873047 72.1627734,67.9783008 72.1627734,65.50875 C72.1627734,63.0391992 70.1467383,61.0301953 67.66875,61.0301953 C65.650957,61.0301953 63.9397266,62.3622656 63.3735352,64.1903906 L51.9125977,64.1903906 L51.9125977,55.3591406 L65.6274023,55.3591406 C66.1935937,57.1870898 67.9046484,58.5193359 69.9226172,58.5193359 C72.4007812,58.5193359 74.4166406,56.510332 74.4166406,54.0407813 C74.4166406,51.5712305 72.4006055,49.5622266 69.9226172,49.5622266 C67.9046484,49.5622266 66.1935937,50.8942969 65.6274023,52.7224219 L51.9125977,52.7224219 L51.9125977,43.1266992 L55.1782617,43.1266992 C55.7446289,44.9544727 57.4556836,46.2867187 59.4734766,46.2867187 C61.9516406,46.2867187 63.9675,44.2777148 63.9675,41.8083398 C63.9675,39.3387891 61.9514648,37.3297852 59.4734766,37.3297852 C57.4556836,37.3297852 55.7444531,38.6618555 55.1782617,40.4899805 L51.9125977,40.4899805 L51.9125977,32.8819922 L66.2770898,32.8819922 C66.42,32.8846289 66.7467773,33.0192773 66.8496094,33.1180664 L69.5576953,35.8131445 C69.8148633,36.069082 70.1511328,36.1970508 70.4875781,36.1970508 C70.825957,36.1970508 71.1645117,36.0675 71.4220312,35.8085742 C71.9356641,35.2924805 71.9335547,34.4576953 71.4174609,33.9440625 L68.709375,31.2489844 C68.1154102,30.6580078 67.1155664,30.2452734 66.2776172,30.2452734 L51.9125977,30.2452734 L51.9125977,24.7754883 L62.7945117,24.7754883 Z M71.9711719,12.6982617 C72.9952734,12.6982617 73.8284766,13.5244336 73.8284766,14.5397461 C73.8284766,15.5552344 72.9952734,16.381582 71.9711719,16.381582 C70.9470703,16.381582 70.114043,15.5554102 70.114043,14.5397461 C70.114043,13.5244336 70.9470703,12.6982617 71.9711719,12.6982617 Z M59.2685156,10.2517383 C60.2926172,10.2517383 61.1258203,11.0779102 61.1258203,12.0933984 C61.1258203,13.1088867 60.2926172,13.9352344 59.2685156,13.9352344 C58.2444141,13.9352344 57.4113867,13.1090625 57.4113867,12.0933984 C57.4112109,11.0779102 58.2444141,10.2517383 59.2685156,10.2517383 Z M66.4395117,80.3845898 C67.4636133,80.3845898 68.2968164,81.2109375 68.2968164,82.2264258 C68.2968164,83.2419141 67.4636133,84.0682617 66.4395117,84.0682617 C65.4154102,84.0682617 64.582207,83.2420898 64.582207,82.2264258 C64.582207,81.2109375 65.4154102,80.3845898 66.4395117,80.3845898 Z M67.66875,63.6669141 C68.6928516,63.6669141 69.5260547,64.4930859 69.5260547,65.50875 C69.5260547,66.5242383 68.6928516,67.3505859 67.66875,67.3505859 C66.6446484,67.3505859 65.8114453,66.5244141 65.8114453,65.50875 C65.8114453,64.4932617 66.6446484,63.6669141 67.66875,63.6669141 Z M69.9224414,52.1989453 C70.946543,52.1989453 71.7797461,53.0251172 71.7797461,54.0407813 C71.7797461,55.0562695 70.946543,55.8826172 69.9224414,55.8826172 C68.8983398,55.8826172 68.0651367,55.0564453 68.0651367,54.0407813 C68.0651367,53.0251172 68.8983398,52.1989453 69.9224414,52.1989453 Z M59.4734766,39.9665039 C60.4975781,39.9665039 61.3307812,40.7926758 61.3307812,41.8083398 C61.3307812,42.8236523 60.4975781,43.65 59.4734766,43.65 C58.449375,43.65 57.6161719,42.8238281 57.6161719,41.8083398 C57.6161719,40.7926758 58.449375,39.9665039 59.4734766,39.9665039 Z" id="Shape" fill-rule="nonzero"></path>
            </g>
        </g>
    </g>
</svg>