<svg xmlns="http://www.w3.org/2000/svg" width="15" height="18" viewBox="0 0 15 18">
    <g fill="#00AEEF" fill-rule="evenodd">
        <path fill-rule="nonzero" d="M12.49 2.154H9.693A2.437 2.437 0 0 0 7.275 0a2.437 2.437 0 0 0-2.417 2.154H2.06A2.056 2.056 0 0 0 .006 4.208v.105c0 .866.539 1.607 1.298 1.908v9.704c0 1.132.921 2.054 2.054 2.054h7.835a2.056 2.056 0 0 0 2.053-2.054V6.222a2.056 2.056 0 0 0 1.298-1.909v-.105a2.056 2.056 0 0 0-2.053-2.054zM7.276.974c.71 0 1.302.509 1.433 1.18H5.843A1.462 1.462 0 0 1 7.275.974zm4.997 14.95c0 .596-.484 1.08-1.08 1.08H3.358c-.596 0-1.08-.484-1.08-1.08V6.368h9.994v9.558zm1.298-11.61c0 .595-.484 1.08-1.08 1.08H2.06c-.596 0-1.08-.485-1.08-1.08v-.106c0-.595.484-1.08 1.08-1.08h10.43c.596 0 1.08.485 1.08 1.08v.105z"/>
        <path d="M4.664 15.759a.487.487 0 0 0 .487-.487V9.788a.487.487 0 0 0-.974 0v5.484c0 .269.218.487.487.487zM7.275 15.759a.487.487 0 0 0 .487-.487V9.788a.487.487 0 0 0-.974 0v5.484c0 .269.218.487.487.487zM9.886 15.759a.487.487 0 0 0 .487-.487V9.788a.487.487 0 0 0-.974 0v5.484c0 .269.218.487.487.487z"/>
    </g>
</svg>
