<svg xmlns="http://www.w3.org/2000/svg" width="99" height="97" viewBox="0 0 99 97">
    <g fill="#FFF" fill-rule="evenodd">
        <path d="M48.53 36H19.47c-.812 0-1.47.895-1.47 2s.658 2 1.47 2h29.06c.812 0 1.47-.895 1.47-2s-.658-2-1.47-2zM41.598 43H21.402c-.774 0-1.402.895-1.402 2s.628 2 1.402 2h20.196c.774 0 1.402-.895 1.402-2s-.628-2-1.402-2zM41.598 52H21.402c-.774 0-1.402.895-1.402 2s.628 2 1.402 2h20.196c.774 0 1.402-.895 1.402-2s-.628-2-1.402-2zM41.598 70H21.402c-.774 0-1.402.895-1.402 2s.628 2 1.402 2h20.196c.774 0 1.402-.895 1.402-2s-.628-2-1.402-2z"/>
        <path fill-rule="nonzero" d="M98.376 15.097a1.453 1.453 0 0 0-.826-.262H60.528l-7.05-7.083a5.217 5.217 0 0 0 .646-2.521C54.124 2.347 51.788 0 48.917 0S43.71 2.347 43.71 5.23c0 .914.235 1.774.647 2.522l-7.051 7.083h-14.96c-.8 0-1.45.653-1.45 1.457 0 .805.65 1.457 1.45 1.457h71.85l-8.125 8.68c-.15-.05-73.215-.077-73.215-.077L4.804 17.75h11.741c.801 0 1.45-.652 1.45-1.457 0-.804-.649-1.457-1.45-1.457H1.45c-.785 0-1.45.669-1.45 1.457v79.25c0 .562.346 1.091.852 1.325.188.087.391.133.598.133h71.04c.801 0 1.45-.652 1.45-1.457s-.649-1.457-1.45-1.457H4.804l8.052-8.603h72.75c.158 0 .316-.026.466-.077l8.124 8.68H78.29c-.8 0-1.45.653-1.45 1.457 0 .805.65 1.457 1.45 1.457h19.26c.757 0 1.418-.641 1.448-1.402L99 16.292c0-.469-.243-.926-.624-1.195zM48.917 2.914a2.314 2.314 0 0 1 2.306 2.317 2.314 2.314 0 0 1-2.306 2.317 2.314 2.314 0 0 1-2.306-2.317 2.314 2.314 0 0 1 2.306-2.317zm-7.51 11.921l5-5.023c.745.413 1.6.65 2.51.65.91 0 1.765-.237 2.51-.65l5 5.023h-15.02zM10.78 83.45L2.9 91.866V19.97l7.879 8.417V83.45zm74.542-.898l-.039.018H13.68V29.266h71.576l.066.034V82.55zM96.1 91.866L88.22 83.45V28.386L96.1 19.97v71.897z"/>
        <path fill-rule="nonzero" d="M82.929 75.944l-6.114-18.582a4.857 4.857 0 0 0 2.863-5.152 1.981 1.981 0 0 1 .538-1.662 4.87 4.87 0 0 0 0-6.781 1.981 1.981 0 0 1-.538-1.662 4.855 4.855 0 0 0-3.972-5.486 1.97 1.97 0 0 1-1.409-1.027 4.849 4.849 0 0 0-6.426-2.096 2.01 2.01 0 0 1-1.741 0 4.85 4.85 0 0 0-6.426 2.095 1.97 1.97 0 0 1-1.41 1.028 4.855 4.855 0 0 0-3.97 5.486 1.981 1.981 0 0 1-.539 1.662 4.87 4.87 0 0 0 0 6.78 1.98 1.98 0 0 1 .538 1.663 4.857 4.857 0 0 0 2.863 5.152l-6.114 18.582c-.376 1.144.788 2.24 1.901 1.792l4.998-2.01 2.823 4.602c.63 1.028 2.215.838 2.59-.304L67 69.034l3.616 10.99c.375 1.14 1.964 1.327 2.59.304l2.823-4.602 4.998 2.01c1.112.448 2.276-.654 1.902-1.792zm-21.306.228l-1.837-2.995a1.452 1.452 0 0 0-1.76-.583l-3.253 1.308 4.97-15.105c.022.04.046.077.069.115a4.711 4.711 0 0 0 1.261 1.421c.85.625 1.87.982 2.925.982.744 0 1.46-.167 2.132-.496a1.95 1.95 0 0 1 .603-.179l-5.11 15.532zM64.9 58.209l-.034.016a1.996 1.996 0 0 1-2.621-.855 4.888 4.888 0 0 0-3.453-2.518 1.98 1.98 0 0 1-1.62-2.238 4.856 4.856 0 0 0-1.32-4.074 1.986 1.986 0 0 1 0-2.766 4.856 4.856 0 0 0 1.32-4.073 1.98 1.98 0 0 1 1.62-2.239 4.828 4.828 0 0 0 3.453-2.517 2.003 2.003 0 0 1 2.622-.855 4.927 4.927 0 0 0 4.267 0 2.002 2.002 0 0 1 2.622.855 4.83 4.83 0 0 0 3.453 2.517 1.98 1.98 0 0 1 1.62 2.238 4.856 4.856 0 0 0 1.319 4.074c.748.776.748 1.99 0 2.766a4.856 4.856 0 0 0-1.319 4.074 1.98 1.98 0 0 1-1.62 2.238 4.82 4.82 0 0 0-2.922 1.717c-.01.01-.018.022-.027.033-.259.323-.425.7-.671 1.028-.726.973-1.777.857-2.77.456a4.871 4.871 0 0 0-3.92.123zm11.075 14.385a1.436 1.436 0 0 0-1.76.583l-1.837 2.995-3.863-11.742 1.032-3.137c.015.002.03 0 .045.002a4.891 4.891 0 0 0 3.155-.832 4.866 4.866 0 0 0 1.51-1.667l4.97 15.106-3.252-1.308z"/>
    </g>
</svg>
