<?xml version="1.0" encoding="UTF-8"?>
<svg width="84px" height="90px" viewBox="0 0 84 90" version="1.1" xmlns="http://www.w3.org/2000/svg" xmlns:xlink="http://www.w3.org/1999/xlink">
    <!-- Generator: sketchtool 52.5 (67469) - http://www.bohemiancoding.com/sketch -->
    <title>794A9369-3ECD-44E1-9839-3F27C0A7A25C</title>
    <desc>Created with sketchtool.</desc>
    <g id="Landing-Pages" stroke="none" stroke-width="1" fill="none" fill-rule="evenodd">
        <g id="SCTE_DTPWEB-Standards_Download" transform="translate(-159.000000, -158.000000)" fill="#FFFFFF">
            <g id="download" transform="translate(159.000000, 158.000000)">
                <path d="M26.3799582,36.9770355 C25.3841336,37.9728601 25.3841336,39.5699374 26.3799582,40.565762 L39.8329854,54.0187891 C40.3215031,54.5073069 40.9791232,54.7703549 41.6179541,54.7703549 C42.256785,54.7703549 42.914405,54.526096 43.4029228,54.0187891 L56.8559499,40.565762 C57.8517745,39.5699374 57.8517745,37.9728601 56.8559499,36.9770355 C55.8601253,35.9812109 54.263048,35.9812109 53.2672234,36.9770355 L44.1544885,46.0897704 L44.1544885,2.53653445 C44.1544885,1.12734864 43.0271399,0 41.6179541,0 C40.2087683,0 39.0814196,1.12734864 39.0814196,2.53653445 L39.0814196,46.0897704 L29.9686848,36.9770355 C28.9728601,35.9812109 27.3569937,35.9812109 26.3799582,36.9770355 Z" id="Path"></path>
                <path d="M83.085595,57.7578288 L74.2546973,25.8162839 C74.0480167,25.0835073 73.5407098,24.5010438 72.8643006,24.1816284 L72.6200418,24.0688935 C72.2818372,23.9185804 71.9248434,23.8434238 71.5678497,23.8434238 L55.6534447,23.8434238 C54.2442589,23.8434238 53.1169102,24.9707724 53.1169102,26.3799582 C53.1169102,27.7891441 54.2442589,28.9164927 55.6534447,28.9164927 L69.8580376,28.9164927 L77.3173278,55.9352818 L57.5887265,55.9352818 C56.1795407,55.9352818 55.0521921,57.0626305 55.0521921,58.4718163 L55.0521921,60.7640919 C55.0521921,64.1273486 52.3277662,66.8517745 48.9645094,66.8517745 L33.4822547,66.8517745 C30.1189979,66.8517745 27.394572,64.1273486 27.394572,60.7640919 L27.394572,58.4718163 C27.394572,57.0626305 26.2672234,55.9352818 24.8580376,55.9352818 L5.89979123,55.9352818 L13.3966597,28.8601253 L27.6012526,28.8601253 C29.0104384,28.8601253 30.1377871,27.7327766 30.1377871,26.3235908 C30.1377871,24.914405 29.0104384,23.7870564 27.6012526,23.7870564 L11.6680585,23.7870564 C11.3110647,23.7870564 10.954071,23.8622129 10.6158664,24.0125261 L10.3716075,24.125261 C9.69519833,24.4446764 9.1691023,25.0271399 8.98121086,25.7599165 L0.150313152,57.7014614 C0.0939457203,57.9269311 0.0563674322,58.1524008 0.0563674322,58.3778706 L0.0563674322,71.6993737 C0.0563674322,81.7891441 8.26722338,90 18.3569937,90 L64.8789144,90 C74.9686848,90 83.1795407,81.7891441 83.1795407,71.6993737 L83.1795407,58.434238 C83.1795407,58.1899791 83.1607516,57.9645094 83.085595,57.7578288 Z M78.1064718,71.6993737 C78.1064718,78.9895616 72.1691023,84.9269311 64.8789144,84.9269311 L18.3569937,84.9269311 C11.0668058,84.9269311 5.12943633,78.9895616 5.12943633,71.6993737 L5.12943633,61.0083507 L22.3590814,61.0083507 C22.4906054,67.039666 27.4509395,71.9060543 33.519833,71.9060543 L49.0020877,71.9060543 C55.0709812,71.9060543 60.0313152,67.039666 60.1628392,61.0083507 L78.1440501,61.0083507 L78.1440501,71.6993737 L78.1064718,71.6993737 Z" id="Shape" fill-rule="nonzero"></path>
            </g>
        </g>
    </g>
</svg>