<svg xmlns="http://www.w3.org/2000/svg" width="671" height="353" viewBox="0 0 671 353">
    <g fill="none" fill-rule="evenodd">
        <path fill="#D5EDF2" d="M459.78 157.749v133c0 5.53-4.48 10-10 10H210.73v-133c0-5.52 4.48-10 10-10h239.05M380.61 341.679v4.16c0 1.65-1.35 3-3 3h-89.37v-4.16c0-2.12.94-4.13 2.56-5.491l11.02-8.209c2.95-2.47 4.66-7.12 4.66-10.97v-16.09h55.88v13.09c0 3.85 1.71 8.5 4.67 10.97l11.01 8.209a7.151 7.151 0 0 1 2.57 5.491"/>
        <path fill="#7A7B77" d="M522.54 352.919H63.04a3.5 3.5 0 1 1 0-7h459.5a3.5 3.5 0 1 1 0 7M38.54 352.919H3.707a3.5 3.5 0 1 1 0-7H38.54a3.5 3.5 0 1 1 0 7M610.04 352.919h-51.333a3.5 3.5 0 1 1 0-7h51.333a3.5 3.5 0 1 1 0 7M666.873 352.919h-25.666a3.5 3.5 0 1 1 0-7h25.666a3.5 3.5 0 1 1 0 7"/>
        <path fill="#A3A4A0" d="M270.113 202.627a2.99 2.99 0 0 1-2.121-.878l-17.375-17.375a3 3 0 1 1 4.242-4.243l17.375 17.375a3 3 0 0 1-2.121 5.121"/>
        <path fill="#A3A4A0" d="M252.738 202.627a3 3 0 0 1-2.121-5.121l17.375-17.375a3 3 0 1 1 4.242 4.243l-17.375 17.375a2.994 2.994 0 0 1-2.121.878M399.488 202.627a2.994 2.994 0 0 1-2.121-.878l-17.375-17.375a3 3 0 1 1 4.242-4.243l17.375 17.375a3 3 0 0 1-2.121 5.121"/>
        <path fill="#A3A4A0" d="M382.113 202.627a3 3 0 0 1-2.121-5.121l17.375-17.375a3 3 0 1 1 4.242 4.243l-17.375 17.375a2.992 2.992 0 0 1-2.121.878M374.366 249.419c-.954 0-1.89-.453-2.473-1.298l-7.179-10.416-7.179 10.416a2.997 2.997 0 0 1-4.939 0l-7.179-10.415-7.176 10.415a3 3 0 0 1-4.941 0l-7.176-10.415-7.178 10.415a3 3 0 0 1-4.94.001l-7.182-10.417-7.179 10.416a3.001 3.001 0 0 1-4.94.001l-7.186-10.419-7.187 10.419a3 3 0 1 1-4.939-3.406l9.656-14a2.997 2.997 0 0 1 4.939 0l7.185 10.418 7.18-10.417a3.001 3.001 0 0 1 4.94-.001l7.182 10.417 7.18-10.416a3 3 0 0 1 4.941 0l7.174 10.415 7.176-10.415a3.001 3.001 0 0 1 4.941 0l7.178 10.415 7.179-10.415a2.998 2.998 0 0 1 4.94 0l9.649 14a2.999 2.999 0 0 1-2.467 4.702"/>
        <path fill="#7A7B77" d="M380.607 339.419H271.618a1 1 0 1 1 0-2h108.989a1 1 0 1 1 0 2M202.45 140.249a6.508 6.508 0 0 0-6.5 6.5v144c0 3.584 2.916 6.5 6.5 6.5h247.33c3.584 0 6.5-2.916 6.5-6.5v-144c0-3.584-2.916-6.5-6.5-6.5H202.45zm247.33 164H202.45c-7.444 0-13.5-6.056-13.5-13.5v-144c0-7.444 6.056-13.5 13.5-13.5h247.33c7.445 0 13.5 6.056 13.5 13.5v144c0 7.444-6.055 13.5-13.5 13.5z"/>
        <path fill="#7A7B77" d="M459.779 149.919H192.446a1 1 0 0 1 0-2h267.333a1 1 0 1 1 0 2M459.779 274.419H192.446a1 1 0 1 1 0-2h267.333a1 1 0 1 1 0 2M377.61 352.339H274.62a6.508 6.508 0 0 1-6.5-6.5v-4.16c0-3.167 1.395-6.148 3.827-8.178.049-.04.099-.08.151-.118l10.921-8.144c1.909-1.65 3.341-5.168 3.341-8.23v-16.09a3.5 3.5 0 1 1 7 0v16.09c0 4.332-1.828 10.233-5.913 13.653a3.609 3.609 0 0 1-.155.122l-10.92 8.144a3.638 3.638 0 0 0-1.252 2.751v3.66h101.99v-3.66a3.638 3.638 0 0 0-1.252-2.751l-10.92-8.144a3.378 3.378 0 0 1-.15-.118c-4.095-3.417-5.928-9.321-5.928-13.657v-16.09a3.5 3.5 0 0 1 7 0v16.09c0 3.064 1.435 6.581 3.349 8.228l10.923 8.146c.052.038.101.078.151.118a10.626 10.626 0 0 1 3.827 8.178v4.16c0 3.584-2.916 6.5-6.5 6.5"/>
        <path fill="#E7F4F5" d="M252.35 56.419H113.02c1.33-11.76 11.32-20.9 23.44-20.9.74 0 1.47.04 2.19.11 1.71-15.48 14.83-27.53 30.77-27.53 11.85 0 22.15 6.67 27.35 16.46 3.11-1.57 6.63-2.46 10.35-2.46 10.92 0 20.06 7.59 22.46 17.77.21-.01.42-.02.63-.02 10.49 0 19.34 6.99 22.14 16.57"/>
        <path fill="#CAC9C4" d="M254.87 58.419H101.21a2 2 0 0 1 0-4h153.66a2 2 0 1 1 0 4M88.874 58.419H78.207a2 2 0 0 1 0-4h10.667a2 2 0 0 1 0 4M65.874 58.419H58.54a2 2 0 0 1 0-4h7.334a2 2 0 0 1 0 4"/>
        <path fill="#E7F4F5" d="M402.717 93.649h139.33c-1.33-11.759-11.32-20.899-23.44-20.899-.74 0-1.47.04-2.19.109-1.71-15.48-14.83-27.529-30.77-27.529-11.85 0-22.15 6.67-27.35 16.46a22.92 22.92 0 0 0-10.35-2.46c-10.92 0-20.06 7.589-22.46 17.77-.21-.011-.42-.02-.63-.02-10.49 0-19.34 6.989-22.14 16.569"/>
        <path fill="#CAC9C4" d="M553.857 95.649h-153.66a2 2 0 0 1 0-4h153.66a2 2 0 0 1 0 4M576.86 95.649h-10.667a2 2 0 0 1 0-4h10.667a2 2 0 0 1 0 4M596.527 95.649h-7.334a2 2 0 0 1 0-4h7.334a2 2 0 0 1 0 4"/>
        <path fill="#F17A28" d="M257.04 84.234a2.232 2.232 0 0 1-2.232-2.232V71.835a2.232 2.232 0 0 1 4.464 0v10.167c0 1.233-1 2.232-2.232 2.232"/>
        <path fill="#F17A28" d="M262.124 79.151h-10.167a2.232 2.232 0 0 1 0-4.464h10.167a2.232 2.232 0 0 1 0 4.464M174.356 112.051a2.704 2.704 0 0 0-2.701 2.701 2.705 2.705 0 0 0 2.701 2.702 2.705 2.705 0 0 0 2.702-2.702 2.705 2.705 0 0 0-2.702-2.701zm0 9.866c-3.95 0-7.165-3.214-7.165-7.165s3.215-7.165 7.165-7.165c3.952 0 7.166 3.214 7.166 7.165s-3.214 7.165-7.166 7.165zM33.04 155.852a1.9 1.9 0 0 0-1.897 1.897 1.9 1.9 0 0 0 1.897 1.897 1.9 1.9 0 0 0 1.898-1.897 1.9 1.9 0 0 0-1.898-1.897zm0 6.794a4.902 4.902 0 0 1-4.897-4.897 4.902 4.902 0 0 1 4.897-4.897 4.902 4.902 0 0 1 4.898 4.897 4.902 4.902 0 0 1-4.898 4.897zM511.448 144.017a2.705 2.705 0 0 0-2.702 2.701 2.705 2.705 0 0 0 2.702 2.702 2.705 2.705 0 0 0 2.702-2.702 2.705 2.705 0 0 0-2.702-2.701zm0 9.867c-3.951 0-7.165-3.215-7.165-7.166 0-3.95 3.214-7.165 7.165-7.165s7.165 3.215 7.165 7.165c0 3.951-3.214 7.166-7.165 7.166zM623.945 86.984a2.231 2.231 0 0 1-2.231-2.232V74.585a2.231 2.231 0 0 1 4.463 0v10.167a2.232 2.232 0 0 1-2.232 2.232"/>
        <path fill="#F17A28" d="M629.029 81.901h-10.167a2.232 2.232 0 0 1 0-4.464h10.167a2.232 2.232 0 0 1 0 4.464M387.206 62.245a2.233 2.233 0 0 1-1.578-3.81l7.188-7.188a2.232 2.232 0 1 1 3.157 3.156l-7.189 7.188a2.223 2.223 0 0 1-1.578.654"/>
        <path fill="#F17A28" d="M394.394 62.245a2.225 2.225 0 0 1-1.578-.654l-7.188-7.188a2.233 2.233 0 0 1 3.156-3.156l7.189 7.188a2.233 2.233 0 0 1-1.579 3.81M56.499 82.151c-1.233 0-2.232-1-2.232-2.232v-3.25a2.232 2.232 0 0 1 4.463 0v3.25a2.232 2.232 0 0 1-2.231 2.232M63.749 86.151h-3.25a2.232 2.232 0 0 1 0-4.464h3.25a2.232 2.232 0 0 1 0 4.464M56.499 93.401c-1.233 0-2.232-1-2.232-2.232v-3.25a2.232 2.232 0 0 1 4.463 0v3.25a2.232 2.232 0 0 1-2.231 2.232M52.499 86.151h-3.25a2.232 2.232 0 0 1 0-4.464h3.25a2.232 2.232 0 0 1 0 4.464M502.515 9.895c-1.233 0-2.232-1-2.232-2.232V5.87a2.232 2.232 0 1 1 4.463 0v1.793a2.232 2.232 0 0 1-2.231 2.232"/>
        <path fill="#F17A28" d="M506.515 12.102h-1.793a2.232 2.232 0 0 1 0-4.464h1.793a2.231 2.231 0 0 1 0 4.464"/>
        <path fill="#F17A28" d="M502.515 16.102c-1.233 0-2.232-1-2.232-2.232v-1.794a2.232 2.232 0 0 1 4.463 0v1.794a2.232 2.232 0 0 1-2.231 2.232"/>
        <path fill="#F17A28" d="M500.308 12.102h-1.793a2.232 2.232 0 0 1 0-4.464h1.793a2.231 2.231 0 0 1 0 4.464M215.619 7.502a2.232 2.232 0 0 1-1.578-3.81l2.297-2.297a2.232 2.232 0 1 1 3.157 3.156l-2.298 2.298a2.228 2.228 0 0 1-1.578.653M217.917 15.458a2.23 2.23 0 0 1-1.579-.654l-2.297-2.299a2.23 2.23 0 1 1 3.156-3.156l2.298 2.298a2.234 2.234 0 0 1-1.578 3.811M207.664 15.458a2.234 2.234 0 0 1-1.579-3.811l2.298-2.298a2.233 2.233 0 0 1 3.157 3.156l-2.298 2.299a2.229 2.229 0 0 1-1.578.654M209.961 7.502a2.228 2.228 0 0 1-1.578-.653l-2.298-2.298a2.233 2.233 0 0 1 3.157-3.156l2.298 2.297a2.234 2.234 0 0 1-1.579 3.81M546.543 54.317a1.5 1.5 0 0 1-1.5-1.5v-1.57a1.5 1.5 0 1 1 3 0v1.57a1.5 1.5 0 0 1-1.5 1.5"/>
        <path fill="#F17A28" d="M546.543 54.317a1.5 1.5 0 0 1-1.5-1.5v-1.57a1.5 1.5 0 1 1 3 0v1.57a1.5 1.5 0 0 1-1.5 1.5M549.666 56.124a1.5 1.5 0 0 1-.749-2.801l1.362-.783a1.5 1.5 0 0 1 1.496 2.6l-1.362.784c-.235.135-.493.2-.747.2M551.014 60.52c-.257 0-.516-.066-.753-.204l-1.359-.789a1.501 1.501 0 0 1 1.508-2.594l1.358.79a1.5 1.5 0 0 1-.754 2.797M546.518 63.091h-.006a1.5 1.5 0 0 1-1.494-1.506l.007-1.571a1.5 1.5 0 0 1 1.5-1.493h.007a1.5 1.5 0 0 1 1.493 1.506l-.007 1.571a1.5 1.5 0 0 1-1.5 1.493M542.048 60.477a1.5 1.5 0 0 1-.742-2.805l1.366-.776a1.5 1.5 0 0 1 1.482 2.608l-1.366.776a1.493 1.493 0 0 1-.74.197M543.438 56.093c-.258 0-.52-.066-.759-.207l-1.355-.797a1.5 1.5 0 1 1 1.522-2.586l1.354.797a1.5 1.5 0 0 1-.762 2.793M318.546 37.27a1.5 1.5 0 0 1-1.5-1.5v-1.571a1.5 1.5 0 1 1 3 0v1.571a1.5 1.5 0 0 1-1.5 1.5"/>
        <path fill="#F17A28" d="M318.546 37.27a1.5 1.5 0 0 1-1.5-1.5v-1.571a1.5 1.5 0 1 1 3 0v1.571a1.5 1.5 0 0 1-1.5 1.5M321.669 39.076a1.5 1.5 0 0 1-.749-2.801l1.362-.783a1.501 1.501 0 0 1 1.496 2.601l-1.362.783a1.49 1.49 0 0 1-.747.2M323.017 43.473c-.257 0-.516-.066-.753-.204l-1.359-.79a1.5 1.5 0 1 1 1.508-2.594l1.358.79a1.5 1.5 0 0 1-.754 2.798M318.521 46.044h-.007a1.5 1.5 0 0 1-1.493-1.507l.008-1.572a1.5 1.5 0 0 1 1.5-1.492h.007a1.498 1.498 0 0 1 1.492 1.507l-.008 1.571a1.499 1.499 0 0 1-1.499 1.493M314.052 43.429a1.499 1.499 0 0 1-.743-2.804l1.365-.777a1.5 1.5 0 1 1 1.483 2.608l-1.365.776a1.485 1.485 0 0 1-.74.197M315.44 39.045c-.258 0-.52-.066-.758-.207l-1.354-.796a1.499 1.499 0 1 1 1.52-2.586l1.354.796a1.5 1.5 0 0 1-.762 2.793"/>
        <text fill="#A3A4A0" font-family="Montserrat-Black, Montserrat" font-size="24" font-weight="700">
            <tspan x="279.16" y="120">SORRY</tspan>
        </text>
    </g>
</svg>
