<?xml version="1.0" encoding="UTF-8"?>
<svg width="34px" height="34px" viewBox="0 0 34 34" version="1.1" xmlns="http://www.w3.org/2000/svg" xmlns:xlink="http://www.w3.org/1999/xlink">
    <!-- Generator: sketchtool 52.5 (67469) - http://www.bohemiancoding.com/sketch -->
    <title>C92B564B-A425-400B-B43F-18305D89A93A</title>
    <desc>Created with sketchtool.</desc>
    <g id="Membership" stroke="none" stroke-width="1" fill="none" fill-rule="evenodd">
        <g id="SCTE_DTPWEB-Contact-Us" transform="translate(-843.000000, -616.000000)" fill="#00B2B3">
            <g id="fax" transform="translate(843.000000, 616.000000)">
                <path d="M31.0117188,6.04296875 L28.0234375,6.04296875 L28.0234375,0.99609375 C28.0234375,0.445984375 27.5774531,0 27.0273438,0 L17.0664062,0 C16.5162969,0 16.0703125,0.445984375 16.0703125,0.99609375 L16.0703125,6.04296875 L11.7817969,6.04296875 C11.3706094,4.88364844 10.263418,4.05078125 8.96484375,4.05078125 L6.97265625,4.05078125 C5.67408203,4.05078125 4.56689062,4.88364844 4.15570312,6.04296875 L2.98828125,6.04296875 C1.34054297,6.04296875 0,7.38351172 0,9.03125 L0,29.0195312 C0,30.6672695 1.34054297,32.0078125 2.98828125,32.0078125 L4.15570312,32.0078125 C4.56689062,33.1671328 5.67408203,34 6.97265625,34 L8.96484375,34 C10.263418,34 11.3706094,33.1671328 11.7817969,32.0078125 L31.0117188,32.0078125 C32.659457,32.0078125 34,30.6672695 34,29.0195312 L34,9.03125 C34,7.38351172 32.659457,6.04296875 31.0117188,6.04296875 Z M3.984375,30.015625 L2.98828125,30.015625 C2.43903516,30.015625 1.9921875,29.5687773 1.9921875,29.0195312 L1.9921875,9.03125 C1.9921875,8.48200391 2.43903516,8.03515625 2.98828125,8.03515625 L3.984375,8.03515625 L3.984375,30.015625 Z M9.9609375,31.0117188 C9.9609375,31.5609648 9.51408984,32.0078125 8.96484375,32.0078125 L6.97265625,32.0078125 C6.42341016,32.0078125 5.9765625,31.5609648 5.9765625,31.0117188 L5.9765625,7.0390625 C5.9765625,6.48981641 6.42341016,6.04296875 6.97265625,6.04296875 L8.96484375,6.04296875 C9.51408984,6.04296875 9.9609375,6.48981641 9.9609375,7.0390625 L9.9609375,31.0117188 Z M18.0625,1.9921875 L26.03125,1.9921875 L26.03125,10.0273438 L18.0625,10.0273438 L18.0625,1.9921875 Z M32.0078125,29.0195312 C32.0078125,29.5687773 31.5609648,30.015625 31.0117188,30.015625 L11.953125,30.015625 L11.953125,8.03515625 L16.0703125,8.03515625 L16.0703125,10.0273438 L15.0742188,10.0273438 C14.5241094,10.0273438 14.078125,10.4733281 14.078125,11.0234375 C14.078125,11.5735469 14.5241094,12.0195312 15.0742188,12.0195312 C15.7637813,12.0195312 28.3295039,12.0195312 29.0195312,12.0195312 C29.5696406,12.0195312 30.015625,11.5735469 30.015625,11.0234375 C30.015625,10.4733281 29.5696406,10.0273438 29.0195312,10.0273438 L28.0234375,10.0273438 L28.0234375,8.03515625 L31.0117188,8.03515625 C31.5609648,8.03515625 32.0078125,8.48200391 32.0078125,9.03125 L32.0078125,29.0195312 Z" id="Shape" fill-rule="nonzero"></path>
                <path d="M23.0429688,6.04296875 L21.0507812,6.04296875 C20.5006719,6.04296875 20.0546875,6.48895312 20.0546875,7.0390625 C20.0546875,7.58917188 20.5006719,8.03515625 21.0507812,8.03515625 L23.0429688,8.03515625 C23.5930781,8.03515625 24.0390625,7.58917188 24.0390625,7.0390625 C24.0390625,6.48895312 23.5930781,6.04296875 23.0429688,6.04296875 Z" id="Path"></path>
                <path d="M17.0664062,16.0039062 L15.0742188,16.0039062 C14.5241094,16.0039062 14.078125,16.4498906 14.078125,17 C14.078125,17.5501094 14.5241094,17.9960938 15.0742188,17.9960938 L17.0664062,17.9960938 C17.6165156,17.9960938 18.0625,17.5501094 18.0625,17 C18.0625,16.4498906 17.6165156,16.0039062 17.0664062,16.0039062 Z" id="Path"></path>
                <path d="M23.0429688,16.0039062 L21.0507812,16.0039062 C20.5006719,16.0039062 20.0546875,16.4498906 20.0546875,17 C20.0546875,17.5501094 20.5006719,17.9960938 21.0507812,17.9960938 L23.0429688,17.9960938 C23.5930781,17.9960938 24.0390625,17.5501094 24.0390625,17 C24.0390625,16.4498906 23.5930781,16.0039062 23.0429688,16.0039062 Z" id="Path"></path>
                <path d="M29.0195312,16.0039062 L27.0273438,16.0039062 C26.4772344,16.0039062 26.03125,16.4498906 26.03125,17 C26.03125,17.5501094 26.4772344,17.9960938 27.0273438,17.9960938 L29.0195312,17.9960938 C29.5696406,17.9960938 30.015625,17.5501094 30.015625,17 C30.015625,16.4498906 29.5696406,16.0039062 29.0195312,16.0039062 Z" id="Path"></path>
                <path d="M17.0664062,19.9882812 L15.0742188,19.9882812 C14.5241094,19.9882812 14.078125,20.4342656 14.078125,20.984375 C14.078125,21.5344844 14.5241094,21.9804688 15.0742188,21.9804688 L17.0664062,21.9804688 C17.6165156,21.9804688 18.0625,21.5344844 18.0625,20.984375 C18.0625,20.4342656 17.6165156,19.9882812 17.0664062,19.9882812 Z" id="Path"></path>
                <path d="M23.0429688,19.9882812 L21.0507812,19.9882812 C20.5006719,19.9882812 20.0546875,20.4342656 20.0546875,20.984375 C20.0546875,21.5344844 20.5006719,21.9804688 21.0507812,21.9804688 L23.0429688,21.9804688 C23.5930781,21.9804688 24.0390625,21.5344844 24.0390625,20.984375 C24.0390625,20.4342656 23.5930781,19.9882812 23.0429688,19.9882812 Z" id="Path"></path>
                <path d="M29.0195312,19.9882812 L27.0273438,19.9882812 C26.4772344,19.9882812 26.03125,20.4342656 26.03125,20.984375 C26.03125,21.5344844 26.4772344,21.9804688 27.0273438,21.9804688 L29.0195312,21.9804688 C29.5696406,21.9804688 30.015625,21.5344844 30.015625,20.984375 C30.015625,20.4342656 29.5696406,19.9882812 29.0195312,19.9882812 Z" id="Path"></path>
                <path d="M17.0664062,23.9726562 L15.0742188,23.9726562 C14.5241094,23.9726562 14.078125,24.4186406 14.078125,24.96875 C14.078125,25.5188594 14.5241094,25.9648438 15.0742188,25.9648438 L17.0664062,25.9648438 C17.6165156,25.9648438 18.0625,25.5188594 18.0625,24.96875 C18.0625,24.4186406 17.6165156,23.9726562 17.0664062,23.9726562 Z" id="Path"></path>
                <path d="M23.0429688,23.9726562 L21.0507812,23.9726562 C20.5006719,23.9726562 20.0546875,24.4186406 20.0546875,24.96875 C20.0546875,25.5188594 20.5006719,25.9648438 21.0507812,25.9648438 L23.0429688,25.9648438 C23.5930781,25.9648438 24.0390625,25.5188594 24.0390625,24.96875 C24.0390625,24.4186406 23.5930781,23.9726562 23.0429688,23.9726562 Z" id="Path"></path>
                <path d="M29.0195312,23.9726562 L27.0273438,23.9726562 C26.4772344,23.9726562 26.03125,24.4186406 26.03125,24.96875 C26.03125,25.5188594 26.4772344,25.9648438 27.0273438,25.9648438 L29.0195312,25.9648438 C29.5696406,25.9648438 30.015625,25.5188594 30.015625,24.96875 C30.015625,24.4186406 29.5696406,23.9726562 29.0195312,23.9726562 Z" id="Path"></path>
            </g>
        </g>
    </g>
</svg>