<?xml version="1.0" encoding="UTF-8"?>
<svg width="22px" height="21px" viewBox="0 0 22 21" version="1.1" xmlns="http://www.w3.org/2000/svg" xmlns:xlink="http://www.w3.org/1999/xlink">
    <!-- Generator: sketchtool 52.5 (67469) - http://www.bohemiancoding.com/sketch -->
    <title>CA76383B-BFE7-4CC8-915E-B000441B8AFE</title>
    <desc>Created with sketchtool.</desc>
    <g id="Landing-Pages" stroke="none" stroke-width="1" fill="none" fill-rule="evenodd">
        <g id="SCTE_DTPWEB-System-Message" transform="translate(-50.000000, -22.000000)" fill="#FFFFFF">
            <g id="check" transform="translate(50.000000, 22.000000)">
                <path d="M19.3446566,8.39963888 C18.8734032,8.39963888 18.4914252,8.78165817 18.4914252,9.25287031 L18.4914252,10.1122487 C18.4901463,12.3539511 17.6159574,14.4609979 16.0299173,16.0451816 C14.4450323,17.6282101 12.3389756,18.4998412 10.0990884,18.4998412 C10.0974382,18.4998412 10.095788,18.4998412 10.0941378,18.4998412 C5.4665063,18.4972009 1.70382255,14.7302679 1.70646285,10.1025951 C1.70774175,7.86093392 2.58193061,5.75388712 4.168012,4.16962094 C5.75289701,2.5865924 7.85899495,1.71496134 10.0988409,1.71496134 C10.1004911,1.71496134 10.1021413,1.71496134 10.1037915,1.71496134 C11.2866486,1.71562141 12.4342742,1.96009726 13.5147369,2.44149932 C13.9452719,2.63333407 14.4495291,2.43980788 14.6413638,2.00939673 C14.833116,1.57898557 14.6397136,1.07460459 14.2092612,0.882769851 C12.9090755,0.30342893 11.5281541,0.00928232622 10.1047403,0.00849848534 C10.1025951,0.00849848534 10.1009449,0.00849848534 10.0987996,0.00849848534 C7.4036659,0.00849848534 4.86905453,1.05752511 2.96201092,2.96234096 C1.05348214,4.86864198 0.00156768176,7.40411971 -5.94526073e-17,10.1016875 C-0.00152642698,12.7991727 1.04741769,15.3358468 2.95380122,17.2443756 C4.86018475,19.1529044 7.39562122,20.2048189 10.0931477,20.2063865 C10.0952517,20.2063865 10.0969432,20.2063865 10.0990884,20.2063865 C12.7942222,20.2063865 15.3288335,19.1574012 17.2358771,17.2525441 C19.1444059,15.3462018 20.1963204,12.8107241 20.1978881,10.1127438 L20.1978881,9.25291156 C20.1978881,8.78165817 19.81591,8.39963888 19.3446566,8.39963888 Z" id="Path"></path>
                <path d="M20.8725275,1.18826152 C20.5393126,0.855087891 19.9990813,0.855087891 19.6658664,1.18826152 L10.0989234,10.7551632 L7.92855051,8.58479035 C7.59537688,8.25157546 7.05510424,8.25157546 6.72193061,8.58479035 C6.38871573,8.91800523 6.38871573,9.45823662 6.72193061,9.7914515 L9.4956547,12.5651756 C9.66224152,12.7318037 9.88064434,12.8150971 10.0990059,12.8150971 C10.3173675,12.8150971 10.535729,12.7318037 10.7023571,12.5651756 L20.8725275,2.39492267 C21.2057424,2.06170779 21.2057424,1.5214764 20.8725275,1.18826152 Z" id="Path"></path>
            </g>
        </g>
    </g>
</svg>