<?xml version="1.0" encoding="UTF-8"?>
<svg width="98px" height="98px" viewBox="0 0 98 98" version="1.1" xmlns="http://www.w3.org/2000/svg" xmlns:xlink="http://www.w3.org/1999/xlink">
    <!-- Generator: sketchtool 52.5 (67469) - http://www.bohemiancoding.com/sketch -->
    <title>4DC71308-AEDA-45AA-80B7-BA41A5511F1C</title>
    <desc>Created with sketchtool.</desc>
    <g id="All-Pages" stroke="none" stroke-width="1" fill="none" fill-rule="evenodd">
        <g id="SCTE_DTPWEB-Education---Training-Courses_Course-Details" transform="translate(-160.000000, -179.000000)" fill="#FFFFFF">
            <g id="class" transform="translate(160.000000, 179.000000)">
                <path d="M17.7060547,85.3425882 C19.3044922,83.9412647 20.3125,81.9075294 20.3125,79.6470588 C20.3125,75.4304706 16.8078125,72 12.5,72 C8.1921875,72 4.6875,75.4304706 4.6875,79.6470588 C4.6875,81.9107794 5.6984375,83.947 7.30078125,85.3483235 C2.99746094,87.2836029 0,91.5397647 0,96.4705882 C0,97.3163529 0.6984375,98 1.5625,98 C2.4265625,98 3.125,97.3163529 3.125,96.4705882 C3.125,91.4097647 7.3296875,87.2941176 12.5,87.2941176 C15.0046875,87.2941176 17.3578125,88.2484706 19.1296875,89.9812941 C20.9,91.7156471 21.875,94.0189412 21.875,96.4705882 C21.875,97.3163529 22.5734375,98 23.4375,98 C24.3015625,98 25,97.3163529 25,96.4705882 C25,93.2022353 23.7,90.1296471 21.3390625,87.8187059 C20.2701172,86.7723971 19.0404297,85.9413529 17.7060547,85.3425882 Z M7.8125,79.6470588 C7.8125,77.1174118 9.915625,75.0588235 12.5,75.0588235 C15.084375,75.0588235 17.1875,77.1174118 17.1875,79.6470588 C17.1875,82.1767059 15.084375,84.2352941 12.5,84.2352941 C9.915625,84.2352941 7.8125,82.1767059 7.8125,79.6470588 Z" id="Shape" fill-rule="nonzero"></path>
                <path d="M42.7060547,85.3425882 C44.3044922,83.9412647 45.3125,81.9075294 45.3125,79.6470588 C45.3125,75.4304706 41.8078125,72 37.5,72 C33.1921875,72 29.6875,75.4304706 29.6875,79.6470588 C29.6875,81.9107794 30.6984375,83.947 32.3007812,85.3483235 C27.9974609,87.2836029 25,91.5397647 25,96.4705882 C25,97.3163529 25.6984375,98 26.5625,98 C27.4265625,98 28.125,97.3163529 28.125,96.4705882 C28.125,91.4097647 32.3296875,87.2941176 37.5,87.2941176 C40.0046875,87.2941176 42.3578125,88.2484706 44.1296875,89.9812941 C45.9,91.7156471 46.875,94.0189412 46.875,96.4705882 C46.875,97.3163529 47.5734375,98 48.4375,98 C49.3015625,98 50,97.3163529 50,96.4705882 C50,93.2022353 48.7,90.1296471 46.3390625,87.8187059 C45.2701172,86.7723971 44.0404297,85.9413529 42.7060547,85.3425882 Z M32.8125,79.6470588 C32.8125,77.1174118 34.915625,75.0588235 37.5,75.0588235 C40.084375,75.0588235 42.1875,77.1174118 42.1875,79.6470588 C42.1875,82.1767059 40.084375,84.2352941 37.5,84.2352941 C34.915625,84.2352941 32.8125,82.1767059 32.8125,79.6470588 Z" id="Shape" fill-rule="nonzero"></path>
                <path d="M65.7060547,85.3425882 C67.3044922,83.9412647 68.3125,81.9075294 68.3125,79.6470588 C68.3125,75.4304706 64.8078125,72 60.5,72 C56.1921875,72 52.6875,75.4304706 52.6875,79.6470588 C52.6875,81.9107794 53.6984375,83.947 55.3007812,85.3483235 C50.9974609,87.2836029 48,91.5397647 48,96.4705882 C48,97.3163529 48.6984375,98 49.5625,98 C50.4265625,98 51.125,97.3163529 51.125,96.4705882 C51.125,91.4097647 55.3296875,87.2941176 60.5,87.2941176 C63.0046875,87.2941176 65.3578125,88.2484706 67.1296875,89.9812941 C68.9,91.7156471 69.875,94.0189412 69.875,96.4705882 C69.875,97.3163529 70.5734375,98 71.4375,98 C72.3015625,98 73,97.3163529 73,96.4705882 C73,93.2022353 71.7,90.1296471 69.3390625,87.8187059 C68.2701172,86.7723971 67.0404297,85.9413529 65.7060547,85.3425882 Z M55.8125,79.6470588 C55.8125,77.1174118 57.915625,75.0588235 60.5,75.0588235 C63.084375,75.0588235 65.1875,77.1174118 65.1875,79.6470588 C65.1875,82.1767059 63.084375,84.2352941 60.5,84.2352941 C57.915625,84.2352941 55.8125,82.1767059 55.8125,79.6470588 Z" id="Shape" fill-rule="nonzero"></path>
                <path d="M90.7060547,85.3425882 C92.3044922,83.9412647 93.3125,81.9075294 93.3125,79.6470588 C93.3125,75.4304706 89.8078125,72 85.5,72 C81.1921875,72 77.6875,75.4304706 77.6875,79.6470588 C77.6875,81.9107794 78.6984375,83.947 80.3007812,85.3483235 C75.9974609,87.2836029 73,91.5397647 73,96.4705882 C73,97.3163529 73.6984375,98 74.5625,98 C75.4265625,98 76.125,97.3163529 76.125,96.4705882 C76.125,91.4097647 80.3296875,87.2941176 85.5,87.2941176 C88.0046875,87.2941176 90.3578125,88.2484706 92.1296875,89.9812941 C93.9,91.7156471 94.875,94.0189412 94.875,96.4705882 C94.875,97.3163529 95.5734375,98 96.4375,98 C97.3015625,98 98,97.3163529 98,96.4705882 C98,93.2022353 96.7,90.1296471 94.3390625,87.8187059 C93.2701172,86.7723971 92.0404297,85.9413529 90.7060547,85.3425882 Z M80.8125,79.6470588 C80.8125,77.1174118 82.915625,75.0588235 85.5,75.0588235 C88.084375,75.0588235 90.1875,77.1174118 90.1875,79.6470588 C90.1875,82.1767059 88.084375,84.2352941 85.5,84.2352941 C82.915625,84.2352941 80.8125,82.1767059 80.8125,79.6470588 Z" id="Shape" fill-rule="nonzero"></path>
                <path d="M1.5625,75 C2.4265625,75 3.125,74.3163529 3.125,73.4705882 C3.125,68.4097647 7.3296875,64.2941176 12.5,64.2941176 C15.0046875,64.2941176 17.3578125,65.2484706 19.1296875,66.9812941 C20.9,68.7156471 21.875,71.0189412 21.875,73.4705882 C21.875,74.3163529 22.5734375,75 23.4375,75 C24.3015625,75 25,74.3163529 25,73.4705882 C25,70.2022353 23.7,67.1296471 21.3390625,64.8187059 C20.2701172,63.7723971 19.0404297,62.9413529 17.7060547,62.3425882 C19.3044922,60.9412647 20.3125,58.9075294 20.3125,56.6470588 C20.3125,52.4304706 16.8078125,49 12.5,49 C8.1921875,49 4.6875,52.4304706 4.6875,56.6470588 C4.6875,58.9107794 5.6984375,60.947 7.30078125,62.3483235 C2.99746094,64.2836029 0,68.5397647 0,73.4705882 C0,74.3163529 0.6984375,75 1.5625,75 Z M7.8125,56.6470588 C7.8125,54.1174118 9.915625,52.0588235 12.5,52.0588235 C15.084375,52.0588235 17.1875,54.1174118 17.1875,56.6470588 C17.1875,59.1767059 15.084375,61.2352941 12.5,61.2352941 C9.915625,61.2352941 7.8125,59.1767059 7.8125,56.6470588 Z" id="Shape" fill-rule="nonzero"></path>
                <path d="M26.5625,75 C27.4265625,75 28.125,74.3163529 28.125,73.4705882 C28.125,68.4097647 32.3296875,64.2941176 37.5,64.2941176 C40.0046875,64.2941176 42.3578125,65.2484706 44.1296875,66.9812941 C45.9,68.7156471 46.875,71.0189412 46.875,73.4705882 C46.875,74.3163529 47.5734375,75 48.4375,75 C49.3015625,75 50,74.3163529 50,73.4705882 C50,70.2022353 48.7,67.1296471 46.3390625,64.8187059 C45.2701172,63.7723971 44.0404297,62.9413529 42.7060547,62.3425882 C44.3044922,60.9412647 45.3125,58.9075294 45.3125,56.6470588 C45.3125,52.4304706 41.8078125,49 37.5,49 C33.1921875,49 29.6875,52.4304706 29.6875,56.6470588 C29.6875,58.9107794 30.6984375,60.947 32.3007812,62.3483235 C27.9974609,64.2836029 25,68.5397647 25,73.4705882 C25,74.3163529 25.6984375,75 26.5625,75 Z M32.8125,56.6470588 C32.8125,54.1174118 34.915625,52.0588235 37.5,52.0588235 C40.084375,52.0588235 42.1875,54.1174118 42.1875,56.6470588 C42.1875,59.1767059 40.084375,61.2352941 37.5,61.2352941 C34.915625,61.2352941 32.8125,59.1767059 32.8125,56.6470588 Z" id="Shape" fill-rule="nonzero"></path>
                <path d="M49.5625,75 C50.4265625,75 51.125,74.3163529 51.125,73.4705882 C51.125,68.4097647 55.3296875,64.2941176 60.5,64.2941176 C63.0046875,64.2941176 65.3578125,65.2484706 67.1296875,66.9812941 C68.9,68.7156471 69.875,71.0189412 69.875,73.4705882 C69.875,74.3163529 70.5734375,75 71.4375,75 C72.3015625,75 73,74.3163529 73,73.4705882 C73,70.2022353 71.7,67.1296471 69.3390625,64.8187059 C68.2701172,63.7723971 67.0404297,62.9413529 65.7060547,62.3425882 C67.3044922,60.9412647 68.3125,58.9075294 68.3125,56.6470588 C68.3125,52.4304706 64.8078125,49 60.5,49 C56.1921875,49 52.6875,52.4304706 52.6875,56.6470588 C52.6875,58.9107794 53.6984375,60.947 55.3007812,62.3483235 C50.9974609,64.2836029 48,68.5397647 48,73.4705882 C48,74.3163529 48.6984375,75 49.5625,75 Z M55.8125,56.6470588 C55.8125,54.1174118 57.915625,52.0588235 60.5,52.0588235 C63.084375,52.0588235 65.1875,54.1174118 65.1875,56.6470588 C65.1875,59.1767059 63.084375,61.2352941 60.5,61.2352941 C57.915625,61.2352941 55.8125,59.1767059 55.8125,56.6470588 Z" id="Shape" fill-rule="nonzero"></path>
                <path d="M74.5625,75 C75.4265625,75 76.125,74.3163529 76.125,73.4705882 C76.125,68.4097647 80.3296875,64.2941176 85.5,64.2941176 C88.0046875,64.2941176 90.3578125,65.2484706 92.1296875,66.9812941 C93.9,68.7156471 94.875,71.0189412 94.875,73.4705882 C94.875,74.3163529 95.5734375,75 96.4375,75 C97.3015625,75 98,74.3163529 98,73.4705882 C98,70.2022353 96.7,67.1296471 94.3390625,64.8187059 C93.2701172,63.7723971 92.0404297,62.9413529 90.7060547,62.3425882 C92.3044922,60.9412647 93.3125,58.9075294 93.3125,56.6470588 C93.3125,52.4304706 89.8078125,49 85.5,49 C81.1921875,49 77.6875,52.4304706 77.6875,56.6470588 C77.6875,58.9107794 78.6984375,60.947 80.3007812,62.3483235 C75.9974609,64.2836029 73,68.5397647 73,73.4705882 C73,74.3163529 73.6984375,75 74.5625,75 Z M80.8125,56.6470588 C80.8125,54.1174118 82.915625,52.0588235 85.5,52.0588235 C88.084375,52.0588235 90.1875,54.1174118 90.1875,56.6470588 C90.1875,59.1767059 88.084375,61.2352941 85.5,61.2352941 C82.915625,61.2352941 80.8125,59.1767059 80.8125,56.6470588 Z" id="Shape" fill-rule="nonzero"></path>
                <path d="M11.5192308,45 L87.4807692,45 C88.3209038,45 89,44.3295 89,43.5 L89,1.5 C89,0.6705 88.3209038,0 87.4807692,0 L11.5192308,0 C10.6790962,0 10,0.6705 10,1.5 L10,43.5 C10,44.3295 10.6790962,45 11.5192308,45 Z M13.0384615,3 L85.9615385,3 L85.9615385,42 L13.0384615,42 L13.0384615,3 Z" id="Shape" fill-rule="nonzero"></path>
                <path d="M75.9951251,11.479625 C75.9670009,11.0220417 75.7568192,10.6180937 75.4386405,10.3485312 C75.4322657,10.3431875 75.4255159,10.3384375 75.4189535,10.3330937 C75.3870794,10.3069687 75.3546428,10.2818333 75.3207062,10.2582812 C75.311144,10.25175 75.3012068,10.2460104 75.2916446,10.2396771 C75.2599579,10.2188958 75.2278963,10.1987083 75.1947097,10.1803021 C75.18496,10.1749583 75.1748353,10.1704062 75.164898,10.1650625 C75.1309615,10.14725 75.0966499,10.1302292 75.0612134,10.1151875 C75.0529636,10.111625 75.0445264,10.1088542 75.0362766,10.1054896 C74.9989651,10.0904479 74.9612787,10.0763958 74.9226547,10.0643229 C74.9164674,10.0623438 74.9102801,10.0611562 74.9040927,10.059375 C74.8635939,10.0475 74.8225325,10.0366146 74.7807212,10.0283021 C74.7769713,10.0275104 74.7730339,10.0271146 74.769284,10.0265208 C74.6819114,10.0100938 74.5921014,10 74.5000414,10 L65.5002898,10 C64.6708127,10 64.0003312,10.70775 64.0003312,11.5833333 C64.0003312,12.4589167 64.6708127,13.1666667 65.5002898,13.1666667 L70.3564058,13.1666667 L56.400041,25.4438333 L43.8318879,16.5993333 C43.3144022,16.2335833 42.6364209,16.2478333 42.1279349,16.6294167 L31.6282247,24.5460833 C30.9547433,25.0543333 30.7972476,26.0439167 31.2802343,26.7548333 C31.763221,27.46575 32.6991951,27.6304167 33.3726766,27.1221667 L43.02941,19.8404167 L55.6680612,28.734 C55.9215542,28.9113333 56.2125462,29 56.5005382,29 C56.8440287,29 57.1845193,28.8765 57.4605117,28.63425 L73.0000828,14.9647396 L73.0000828,21.0833333 C73.0000828,21.9589167 73.6705643,22.6666667 74.5000414,22.6666667 C75.3295185,22.6666667 76,21.9589167 76,21.0833333 L76,11.5833333 C76,11.58175 75.9998125,11.5801667 75.9998125,11.5783854 C75.999625,11.5455312 75.9970001,11.5126771 75.9951251,11.479625 Z" id="Path"></path>
                <path d="M22.435,31.4188679 C22.1635,31.7041509 22,32.0815094 22,32.490566 C22,32.8830189 22.1635,33.2754717 22.435,33.5622642 C22.7185,33.8339623 23.11,34 23.5,34 C23.89,34 24.28,33.8339623 24.565,33.5622642 C24.835,33.2754717 25,32.8830189 25,32.490566 C25,32.0981132 24.835,31.7041509 24.565,31.4188679 C24.01,30.8603774 23.005,30.8603774 22.435,31.4188679 Z" id="Path"></path>
                <path d="M26.435,27.4188679 C26.1635,27.7041509 26,28.0815094 26,28.490566 C26,28.8830189 26.1635,29.2754717 26.435,29.5622642 C26.7185,29.8339623 27.11,30 27.5,30 C27.89,30 28.28,29.8339623 28.565,29.5622642 C28.8485,29.2754717 29,28.8830189 29,28.490566 C29,28.0981132 28.835,27.7041509 28.565,27.4188679 C27.995,26.8603774 26.99,26.8603774 26.435,27.4188679 Z" id="Path"></path>
            </g>
        </g>
    </g>
</svg>