<svg xmlns="http://www.w3.org/2000/svg" width="153" height="106" viewBox="0 0 153 106">
    <g fill="#FFF" fill-rule="evenodd">
        <path d="M119.745 24.941c-6.885 0-12.49-5.596-12.49-12.47C107.256 5.596 112.86 0 119.746 0s12.49 5.596 12.49 12.47c0 6.875-5.605 12.471-12.49 12.471zm0-18.706c-3.444 0-6.244 2.794-6.244 6.236 0 3.441 2.8 6.235 6.244 6.235 3.445 0 6.245-2.794 6.245-6.235 0-3.442-2.8-6.236-6.245-6.236z"/>
        <path d="M132.235 106h-24.98a3.117 3.117 0 0 1-3.122-3.118V78.075a3.117 3.117 0 0 1 3.123-3.117 3.117 3.117 0 0 1 3.122 3.117v21.69h6.245V74.824a3.117 3.117 0 0 1 3.122-3.118 3.117 3.117 0 0 1 3.123 3.118v24.94h6.245v-53a3.12 3.12 0 0 1 2.47-3.048c1.44-.303 2.9.433 3.5 1.774l6.96 15.504c.918.043 2.732-.512 3.569-1.107L137.68 38.1c-.78-2.145-3.194-5.992-7.116-6.778L122.243 42.4c-1.177 1.571-3.818 1.571-4.995 0l-8.016-10.672-3.91 1.307c-1.648.533-3.409-.343-3.952-1.974a3.122 3.122 0 0 1 1.97-3.947l6.051-2.014a3.127 3.127 0 0 1 3.485 1.088l6.87 9.147 6.869-9.147a3.122 3.122 0 0 1 2.498-1.247c8.224 0 12.946 6.93 14.435 11.027l8.221 22.578c1.13 3.102-1.018 6.26-5.348 7.86-4.644 1.715-8.728.655-9.936-2.563l-1.127-2.513v41.552a3.117 3.117 0 0 1-3.123 3.118M44.807 106h-24.98a3.117 3.117 0 0 1-3.122-3.118v-41.54l-1.202 2.682c-.303.832-1.621 3.192-5.599 3.192-2.938 0-7.063-1.43-8.924-4.084-1-1.424-1.246-3.055-.687-4.586l8.221-22.578c1.49-4.096 6.211-11.027 14.436-11.027.983 0 1.907.462 2.498 1.247l6.869 9.147 6.87-9.147a3.122 3.122 0 0 1 2.497-1.247c8.225 0 12.946 6.93 14.435 11.027l8.222 22.578c.559 1.531.312 3.162-.687 4.586-1.861 2.653-5.986 4.084-8.924 4.084-3.978 0-5.296-2.36-5.674-3.373L47.93 61.33v41.552A3.117 3.117 0 0 1 44.807 106zm-9.368-6.235h6.245v-53a3.12 3.12 0 0 1 2.47-3.05 3.126 3.126 0 0 1 3.5 1.775l6.954 15.488c1.14.06 2.845-.599 3.572-1.104l-7.928-21.773c-.78-2.145-3.194-5.992-7.116-6.778L34.815 42.4c-1.177 1.571-3.819 1.571-4.996 0l-8.321-11.077c-3.922.786-6.336 4.633-7.116 6.778L6.454 59.874c.702.487 2.18 1.107 3.45 1.107.05 0 .094-.003.128-.003l6.947-15.488a3.137 3.137 0 0 1 3.5-1.774 3.12 3.12 0 0 1 2.47 3.049v53h6.245V74.824a3.117 3.117 0 0 1 3.123-3.118 3.117 3.117 0 0 1 3.122 3.118v24.94z"/>
        <path d="M32.317 24.941c-6.885 0-12.49-5.596-12.49-12.47C19.827 5.596 25.432 0 32.317 0s12.49 5.596 12.49 12.47c0 6.875-5.605 12.471-12.49 12.471zm0-18.706c-3.444 0-6.245 2.794-6.245 6.236 0 3.441 2.8 6.235 6.245 6.235 3.444 0 6.245-2.794 6.245-6.235 0-3.442-2.801-6.236-6.245-6.236zM88.521 106h-24.98a3.117 3.117 0 0 1-3.122-3.118v-24.94a3.117 3.117 0 0 1 3.122-3.118 3.117 3.117 0 0 1 3.123 3.117v21.824h6.245V74.824a3.117 3.117 0 0 1 3.122-3.118 3.117 3.117 0 0 1 3.123 3.118v24.94h6.245v-53a3.12 3.12 0 0 1 2.47-3.048 3.131 3.131 0 0 1 3.5 1.774l6.96 15.504c.946.043 2.732-.512 3.569-1.107L93.967 38.1c-.781-2.145-3.195-5.992-7.117-6.778L78.53 42.4c-1.178 1.571-3.82 1.571-4.997 0l-8.015-10.672-3.91 1.307c-1.648.533-3.406-.343-3.952-1.974a3.122 3.122 0 0 1 1.97-3.947l6.051-2.014a3.125 3.125 0 0 1 3.485 1.088l6.87 9.147 6.869-9.147a3.126 3.126 0 0 1 2.498-1.247c8.224 0 12.945 6.93 14.435 11.027l8.221 22.578c1.13 3.102-1.018 6.26-5.349 7.86-4.643 1.715-8.727.655-9.935-2.563l-1.128-2.513v41.552A3.117 3.117 0 0 1 88.521 106"/>
        <path d="M76.031 24.941c-6.885 0-12.49-5.596-12.49-12.47C63.541 5.596 69.146 0 76.031 0s12.49 5.596 12.49 12.47c0 6.875-5.605 12.471-12.49 12.471zm0-18.706c-3.444 0-6.245 2.794-6.245 6.236 0 3.441 2.801 6.235 6.245 6.235 3.447 0 6.245-2.794 6.245-6.235 0-3.442-2.798-6.236-6.245-6.236z"/>
    </g>
</svg>
