<?xml version="1.0" encoding="UTF-8"?>
<svg width="90px" height="90px" viewBox="0 0 90 90" version="1.1" xmlns="http://www.w3.org/2000/svg" xmlns:xlink="http://www.w3.org/1999/xlink">
    <!-- Generator: sketchtool 52.5 (67469) - http://www.bohemiancoding.com/sketch -->
    <title>7FAE9CBA-0682-4FCE-981C-485E18EB1F8D</title>
    <desc>Created with sketchtool.</desc>
    <g id="Membership" stroke="none" stroke-width="1" fill="none" fill-rule="evenodd">
        <g id="SCTE_DTPWEB-Membership-Benefits" transform="translate(-160.000000, -215.000000)" fill="#FFFFFF">
            <g id="growth-(1)" transform="translate(160.000000, 215.000000)">
                <path d="M79.2632432,15.9926819 L76.2694802,7.01139293 C76.0101455,6.2264657 75.1634719,5.8004158 74.3785447,6.05975052 C74.3083784,6.08295218 74.239896,6.11139293 74.1738462,6.14469854 L65.1925572,10.635343 C64.4527235,11.0048857 64.1524116,11.9043243 64.5219543,12.644158 C64.8914969,13.3839917 65.7909356,13.6843035 66.5307692,13.3147609 L71.422578,10.8688565 C58.5493971,34.4118087 35.0723077,49.3970894 10.4785447,49.3970894 L10.4785447,52.3908524 C36.4913514,52.3908524 61.2797089,36.3981705 74.5585447,11.3613306 L76.4191684,16.938711 C76.6803742,17.7240125 77.5289189,18.1489397 78.3142204,17.8877339 C79.0995218,17.6265281 79.5244491,16.7779834 79.2632432,15.9926819 Z" id="Path"></path>
                <path d="M88.3163825,0 L1.49725572,0 C0.670602911,0 0.000374220374,0.67022869 0.000374220374,1.4968815 L0.000374220374,68.8565489 C0.000374220374,69.6832017 0.670602911,70.3534304 1.49725572,70.3534304 L27.9112266,70.3534304 L22.5224532,87.8759252 C22.2793971,88.6662786 22.7230353,89.5039709 23.5133888,89.747027 C24.3037422,89.9900832 25.1414345,89.5464449 25.3844906,88.7560915 L28.2809563,79.3347193 L61.5326819,79.3347193 L64.4321414,88.7560915 C64.6751975,89.5464449 65.5128898,89.9900832 66.3032432,89.747027 C67.0935967,89.5039709 67.5372349,88.6662786 67.2941788,87.8759252 L61.9024116,70.3534304 L88.3163825,70.3534304 C89.1430353,70.3534304 89.813264,69.6832017 89.813264,68.8565489 L89.813264,1.4968815 C89.813264,0.67022869 89.1430353,0 88.3163825,0 Z M29.2015385,76.3409563 L31.0441996,70.3534304 L58.7694387,70.3534304 L60.6120998,76.3409563 L29.2015385,76.3409563 Z M86.819501,67.3596674 L2.99413721,67.3596674 L2.99413721,2.99376299 L86.819501,2.99376299 L86.819501,67.3596674 Z" id="Shape" fill-rule="nonzero"></path>
                <path d="M17.9629522,55.3846154 L11.9754262,55.3846154 C11.1487734,55.3846154 10.4785447,56.0548441 10.4785447,56.8814969 L10.4785447,62.8690229 C10.4785447,63.6956757 11.1487734,64.3659044 11.9754262,64.3659044 L17.9629522,64.3659044 C18.789605,64.3659044 19.4598337,63.6956757 19.4598337,62.8690229 L19.4598337,56.8814969 C19.4598337,56.0548441 18.789605,55.3846154 17.9629522,55.3846154 Z M16.4660707,61.3721414 L13.4723077,61.3721414 L13.4723077,58.3783784 L16.4660707,58.3783784 L16.4660707,61.3721414 Z" id="Shape" fill-rule="nonzero"></path>
                <path d="M32.9317672,52.3908524 L26.9442412,52.3908524 C26.1175884,52.3908524 25.4473597,53.0610811 25.4473597,53.8877339 L25.4473597,62.8690229 C25.4473597,63.6956757 26.1175884,64.3659044 26.9442412,64.3659044 L32.9317672,64.3659044 C33.75842,64.3659044 34.4286486,63.6956757 34.4286486,62.8690229 L34.4286486,53.8877339 C34.4286486,53.0610811 33.75842,52.3908524 32.9317672,52.3908524 Z M31.4348857,61.3721414 L28.4411227,61.3721414 L28.4411227,55.3846154 L31.4348857,55.3846154 L31.4348857,61.3721414 Z" id="Shape" fill-rule="nonzero"></path>
                <path d="M47.9005821,46.4033264 L41.9130561,46.4033264 C41.0864033,46.4033264 40.4161746,47.0735551 40.4161746,47.9002079 L40.4161746,62.8690229 C40.4161746,63.6956757 41.0864033,64.3659044 41.9130561,64.3659044 L47.9005821,64.3659044 C48.7272349,64.3659044 49.3974636,63.6956757 49.3974636,62.8690229 L49.3974636,47.9002079 C49.3974636,47.0735551 48.7272349,46.4033264 47.9005821,46.4033264 Z M46.4037006,61.3721414 L43.4099376,61.3721414 L43.4099376,49.3970894 L46.4037006,49.3970894 L46.4037006,61.3721414 Z" id="Shape" fill-rule="nonzero"></path>
                <path d="M62.8693971,37.4220374 L56.8818711,37.4220374 C56.0552183,37.4220374 55.3849896,38.0922661 55.3849896,38.9189189 L55.3849896,62.8690229 C55.3849896,63.6956757 56.0552183,64.3659044 56.8818711,64.3659044 L62.8693971,64.3659044 C63.6960499,64.3659044 64.3662786,63.6956757 64.3662786,62.8690229 L64.3662786,38.9189189 C64.3662786,38.0922661 63.6960499,37.4220374 62.8693971,37.4220374 Z M61.3725156,61.3721414 L58.3787526,61.3721414 L58.3787526,40.4158004 L61.3725156,40.4158004 L61.3725156,61.3721414 Z" id="Shape" fill-rule="nonzero"></path>
                <path d="M77.8382121,20.956341 L71.8506861,20.956341 C71.0240333,20.956341 70.3538046,21.6265696 70.3538046,22.4532225 L70.3538046,62.8690229 C70.3538046,63.6956757 71.0240333,64.3659044 71.8506861,64.3659044 L77.8382121,64.3659044 C78.6648649,64.3659044 79.3350936,63.6956757 79.3350936,62.8690229 L79.3350936,22.4532225 C79.3350936,21.6265696 78.6648649,20.956341 77.8382121,20.956341 Z M76.3413306,61.3721414 L73.3475676,61.3721414 L73.3475676,23.950104 L76.3413306,23.950104 L76.3413306,61.3721414 Z" id="Shape" fill-rule="nonzero"></path>
            </g>
        </g>
    </g>
</svg>