<?xml version="1.0" encoding="UTF-8"?>
<svg width="94px" height="94px" viewBox="0 0 94 94" version="1.1" xmlns="http://www.w3.org/2000/svg" xmlns:xlink="http://www.w3.org/1999/xlink">
    <!-- Generator: sketchtool 52.5 (67469) - http://www.bohemiancoding.com/sketch -->
    <title>AAE88424-306C-4CDF-BDE7-BE056188EAC2</title>
    <desc>Created with sketchtool.</desc>
    <g id="Landing-Pages" stroke="none" stroke-width="1" fill="none" fill-rule="evenodd">
        <g id="SCTE_DTPWEB-What-We-Do" transform="translate(-158.000000, -205.000000)" fill="#FFFFFF">
            <g id="handshake" transform="translate(158.000000, 205.000000)">
                <path d="M43.0672034,25.8238136 C43.3676803,26.1668529 43.7995258,26.3663913 44.2555085,26.3728814 L44.279661,26.3728814 C44.7268205,26.3727546 45.1537895,26.1866848 45.4583051,25.8592373 L55.9244068,14.5880508 C56.3301799,14.1693282 56.4778787,13.5639524 56.3105393,13.0054025 C56.1432,12.4468526 55.6869719,12.0224109 55.1178114,11.8957745 C54.5486509,11.7691381 53.9554984,11.9600958 53.5671186,12.395 L44.3150847,22.3587288 L39.8565254,17.2609322 C39.2704951,16.5913103 38.252588,16.523546 37.5829661,17.1095763 C36.9133442,17.6956066 36.8455799,18.7135137 37.4316102,19.3831356 L43.0672034,25.8238136 Z" id="Path"></path>
                <path d="M90.069661,16.7118644 L64.324661,16.7118644 C63.5056469,7.58500686 55.8568368,0.591840794 46.6933051,0.591840794 C37.5297734,0.591840794 29.8809633,7.58500686 29.0619492,16.7118644 L3.32177966,16.7118644 C1.48794725,16.7136397 0.00177525044,18.1998117 0,20.0336441 L0,60.0866102 C0.00266239461,61.9198137 1.48857501,63.4050061 3.32177966,63.4067797 L11.2711864,63.4067797 L11.2711864,74.6779661 C11.2711864,76.4565102 12.7129813,77.8983051 14.4915254,77.8983051 L17.7118644,77.8983051 C19.4904085,77.8983051 20.9322034,76.4565102 20.9322034,74.6779661 L23.4859322,74.6779661 L41.3362712,92.5283051 C42.5756805,93.7718674 44.3761277,94.2749669 46.0806492,93.8540283 C47.7851706,93.4330896 49.1444335,92.1496864 49.6624576,90.4721186 C50.9419526,90.9465221 52.3608442,90.8694096 53.5813903,90.2591366 C54.8019364,89.6488635 55.7149613,88.5600177 56.1031356,87.2517797 C57.3826306,87.7261831 58.8015222,87.6490706 60.0220683,87.0387976 C61.2426144,86.4285245 62.1556393,85.3396787 62.5438136,84.0314407 C64.6210153,84.7893808 66.9493259,84.090386 68.2655865,82.313676 C69.5818471,80.5369659 69.572332,78.1060127 68.2422034,76.339661 L69.9038983,74.6779661 L72.4576271,74.6779661 C72.4576271,76.4565102 73.899422,77.8983051 75.6779661,77.8983051 L78.8983051,77.8983051 C80.6768492,77.8983051 82.1186441,76.4565102 82.1186441,74.6779661 L82.1186441,63.4067797 L90.069661,63.4067797 C91.9026042,63.4050044 93.3880553,61.9195533 93.3898305,60.0866102 L93.3898305,20.0336441 C93.3880569,18.2004394 91.9028646,16.7145268 90.069661,16.7118644 Z M46.6949153,3.83050847 C54.6983637,3.83050847 61.1864407,10.3185854 61.1864407,18.3220339 C61.1864407,26.3254824 54.6983637,32.8135593 46.6949153,32.8135593 C38.6914668,32.8135593 32.2033898,26.3254824 32.2033898,18.3220339 C32.2122637,10.322264 38.6951453,3.83938233 46.6949153,3.83050847 Z M14.4915254,74.6779661 L14.4915254,48.9152542 L17.7118644,48.9152542 L17.7118644,50.5254237 L17.7118644,74.6779661 L14.4915254,74.6779661 Z M64.2119492,81.1186441 C63.7335429,81.1168311 63.2749929,80.927166 62.9350847,80.5905085 L61.3249153,78.980339 L54.2739831,71.9294068 C53.6421865,71.3191973 52.6379143,71.3279241 52.0168175,71.9490209 C51.3957208,72.5701177 51.3869939,73.5743899 51.9972034,74.2061864 L59.0481356,81.2571186 C59.5648152,81.7733636 59.7194536,82.5501059 59.4398875,83.2248722 C59.1603213,83.8996384 58.5016591,84.3394176 57.7712712,84.3389831 C57.2928649,84.3371701 56.8343149,84.147505 56.4944068,83.8108475 L54.8842373,82.200678 L47.8333051,75.1497458 C47.2015086,74.5395363 46.1972364,74.5482631 45.5761396,75.1693599 C44.9550428,75.7904567 44.9463159,76.7947289 45.5565254,77.4265254 L52.6074576,84.4774576 C53.1241373,84.9937026 53.2787757,85.7704449 52.9992095,86.4452111 C52.7196434,87.1199774 52.0609811,87.5597566 51.3305932,87.559322 C50.852187,87.5575091 50.3936369,87.367844 50.0537288,87.0311864 L48.4435593,85.4210169 L41.3926271,78.3700847 C40.7608306,77.7598753 39.7565584,77.7686021 39.1354616,78.3896989 C38.5143648,79.0107957 38.505638,80.0150679 39.1158475,80.6468644 L46.1667797,87.6977966 C46.6834593,88.2140416 46.8380977,88.9907839 46.5585315,89.6655501 C46.2789654,90.3403164 45.6203032,90.7800956 44.8899153,90.779661 C44.411509,90.777848 43.952959,90.588183 43.6130508,90.2515254 L25.7627119,72.4011864 C25.1578273,71.7988532 24.3395634,71.4597424 23.4859322,71.4576271 L20.9322034,71.4576271 L20.9322034,52.1355932 L39.5876271,52.1355932 L42.8079661,55.3559322 L35.6185593,62.545339 C34.0450734,64.099223 33.4246162,66.3769686 33.9926434,68.5142001 C34.5606706,70.6514316 36.2301199,72.3205725 38.3674563,72.8882049 C40.5047927,73.4558373 42.7824236,72.8349594 44.3360169,71.2611864 L51.5254237,64.0733898 L64.8785593,77.4265254 L65.4888136,78.0367797 C66.0054932,78.5530246 66.1601316,79.3297669 65.8805654,80.0045332 C65.6009993,80.6792994 64.9423371,81.1190786 64.2119492,81.1186441 Z M69.9038983,71.4576271 C69.0502671,71.4597424 68.2320032,71.7988532 67.6271186,72.4011864 L66.0169492,74.0113559 L52.6638136,60.6582203 C52.0350426,60.0296393 51.0158048,60.0296393 50.3870339,60.6582203 L42.0592373,68.9860169 C41.2166327,69.8269325 39.950632,70.0778726 38.8509733,69.6219423 C37.7513147,69.1660121 37.0342857,68.0928867 37.0338983,66.9024576 C37.0319472,66.1213714 37.3420687,65.3718627 37.895339,64.8205085 L46.2231356,56.494322 L50.5818644,52.1355932 L72.4576271,52.1355932 L72.4576271,71.4576271 L69.9038983,71.4576271 Z M75.6779661,74.6779661 L75.6779661,48.9152542 L78.8983051,48.9152542 L78.8983051,74.6779661 L75.6779661,74.6779661 Z M90.069661,60.1864407 L82.1186441,60.1864407 L82.1186441,48.9152542 C82.1186441,47.1367101 80.6768492,45.6949153 78.8983051,45.6949153 L75.6779661,45.6949153 C73.899422,45.6949153 72.4576271,47.1367101 72.4576271,48.9152542 L50.5818644,48.9152542 C49.7282332,48.9173696 48.9099693,49.2564803 48.3050847,49.8588136 L45.0847458,53.0791525 L41.8644068,49.8588136 C41.2595222,49.2564803 40.4412583,48.9173696 39.5876271,48.9152542 L20.9322034,48.9152542 C20.9322034,47.1367101 19.4904085,45.6949153 17.7118644,45.6949153 L14.4915254,45.6949153 C12.7129813,45.6949153 11.2711864,47.1367101 11.2711864,48.9152542 L11.2711864,60.170339 L3.22033898,60.0866102 L3.32177966,19.9322034 L29.0651695,19.9322034 C29.8841836,29.0590609 37.5329937,36.052227 46.6965254,36.052227 C55.8600571,36.052227 63.5088672,29.0590609 64.3278814,19.9322034 L90.1694915,20.0336441 L90.069661,60.1864407 Z" id="Shape" fill-rule="nonzero"></path>
            </g>
        </g>
    </g>
</svg>