<?xml version="1.0" encoding="UTF-8"?>
<svg width="92px" height="94px" viewBox="0 0 92 94" version="1.1" xmlns="http://www.w3.org/2000/svg" xmlns:xlink="http://www.w3.org/1999/xlink">
    <!-- Generator: sketchtool 52.5 (67469) - http://www.bohemiancoding.com/sketch -->
    <title>1FF0F87B-E379-40AE-B231-FBEF9B987EBF</title>
    <desc>Created with sketchtool.</desc>
    <defs>
        <polygon id="path-1" points="0.429156798 0.482155172 8.34497752 0.482155172 8.34497752 13.5182837 0.429156798 13.5182837"></polygon>
        <polygon id="path-3" points="0 0.541000388 12.8484252 0.541000388 12.8484252 8.39594629 0 8.39594629"></polygon>
        <polygon id="path-5" points="0 93.1896552 92 93.1896552 92 0 0 0"></polygon>
    </defs>
    <g id="Landing-Pages" stroke="none" stroke-width="1" fill="none" fill-rule="evenodd">
        <g id="SCTE_DTPWEB-What-We-Do" transform="translate(-1232.000000, -837.000000)">
            <g id="Group-13" transform="translate(1232.000000, 837.000000)">
                <path d="M62.1403509,40.5172414 L59.976765,40.5172414 L59.976765,34.5616797 L54.877193,27.5128265 L54.877193,17.4917253 C54.877193,15.442357 56.5063732,13.7758621 58.5076901,13.7758621 C60.5111707,13.7758621 62.1403509,15.442357 62.1403509,17.4917253 L62.1403509,24.8459919 L59.976765,24.8459919 L59.976765,17.4917253 C59.976765,16.6640107 59.3168713,15.9890028 58.5076901,15.9890028 C57.698509,15.9890028 57.0407789,16.6640107 57.0407789,17.4917253 L57.0407789,26.7824901 L62.1403509,33.8313433 L62.1403509,40.5172414 Z" id="Fill-1" fill="#FFFFFF"></path>
                <path d="M62.6899017,24.3103448 L60.5263158,24.3103448 L60.5263158,6.23317644 C60.5263158,4.13724002 62.155496,2.43103448 64.1589765,2.43103448 C66.1602935,2.43103448 67.7894737,4.13724002 67.7894737,6.23317644 L67.7894737,14.0141988 L65.6258878,14.0141988 L65.6258878,6.23317644 C65.6258878,5.38573837 64.9681577,4.69691169 64.1589765,4.69691169 C63.3497954,4.69691169 62.6899017,5.38573837 62.6899017,6.23317644 L62.6899017,24.3103448 Z" id="Fill-3" fill="#FFFFFF"></path>
                <g id="Group-7" transform="translate(64.561404, 0.000000)">
                    <mask id="mask-2" fill="white">
                        <use xlink:href="#path-1"></use>
                    </mask>
                    <g id="Clip-6"></g>
                    <path d="M8.34497752,13.5182837 L5.98697314,13.5182837 L5.98697314,4.29451146 C5.98697314,3.44525227 5.2677818,2.75267459 4.38588816,2.75267459 C3.50399452,2.75267459 2.78716118,3.44525227 2.78716118,4.29451146 L2.78716118,13.5182837 L0.429156798,13.5182837 L0.429156798,4.29451146 C0.429156798,2.19180021 2.2047341,0.481928098 4.38588816,0.481928098 C6.56940022,0.481928098 8.34497752,2.19180021 8.34497752,4.29451146 L8.34497752,13.5182837 Z" id="Fill-5" fill="#FFFFFF"></path>
                </g>
                <g id="Group-12" transform="translate(1.614035, 1.620690)" fill="#FFFFFF">
                    <path d="M76.6666667,12.1551724 L74.5030808,12.1551724 L74.5030808,3.98990206 C74.5030808,3.10061519 73.8431871,2.37777238 73.0340059,2.37777238 C72.2248248,2.37777238 71.5670947,3.10061519 71.5670947,3.98990206 L71.5670947,12.1551724 L69.4035088,12.1551724 L69.4035088,3.98990206 C69.4035088,1.7904626 71.032689,0 73.0340059,0 C75.0374865,0 76.6666667,1.7904626 76.6666667,3.98990206 L76.6666667,12.1551724 Z" id="Fill-8"></path>
                    <path d="M79.1785899,38.8965517 L77.0647665,38.4072945 L79.345186,27.6187202 L79.345186,6.23410321 C79.345186,5.38696342 78.6852923,4.69611413 77.8761112,4.69611413 C77.0669301,4.69611413 76.4091999,5.38696342 76.4091999,6.23410321 L76.4091999,14.0101216 L74.245614,14.0101216 L74.245614,6.23410321 C74.245614,4.13663946 75.8747942,2.43103448 77.8761112,2.43103448 C79.8795917,2.43103448 81.5087719,4.13663946 81.5087719,6.23410321 L81.4828089,27.9856631 L79.1785899,38.8965517 Z" id="Fill-10"></path>
                    <path d="M31.0701754,79.4137931 C29.0672915,79.4137931 27.4385965,77.7472981 27.4385965,75.6979298 L27.4385965,68.3436632 L29.6015381,68.3436632 L29.6015381,75.6979298 C29.6015381,76.5256445 30.2612353,77.2006524 31.0701754,77.2006524 C31.8791156,77.2006524 32.5388128,76.5256445 32.5388128,75.6979298 L32.5388128,66.4093782 L27.4385965,59.3583119 L27.4385965,52.6724138 L29.6015381,52.6724138 L29.6015381,58.6279755 L34.7017544,65.6768287 L34.7017544,75.6979298 C34.7017544,77.7472981 33.0730594,79.4137931 31.0701754,79.4137931" id="Fill-12"></path>
                    <path d="M25.4210526,90.7586207 C23.4181687,90.7586207 21.7894737,89.0524152 21.7894737,86.9542129 L21.7894737,79.1754564 L23.9524153,79.1754564 L23.9524153,86.9542129 C23.9524153,87.8016509 24.6121125,88.4927435 25.4210526,88.4927435 C26.2299928,88.4927435 26.88969,87.8016509 26.88969,86.9542129 L26.88969,68.8793103 L29.0526316,68.8793103 L29.0526316,86.9542129 C29.0526316,89.0524152 27.4239366,90.7586207 25.4210526,90.7586207" id="Fill-14"></path>
                    <path d="M20.5789474,92.3793103 C18.5760634,92.3793103 16.9473684,90.6787295 16.9473684,88.5874442 L16.9473684,79.4137931 L19.11031,79.4137931 L19.11031,88.5874442 C19.11031,89.4320886 19.7700072,90.1209029 20.5789474,90.1209029 C21.3878875,90.1209029 22.0475847,89.4320886 22.0475847,88.5874442 L22.0475847,79.4137931 L24.2105263,79.4137931 L24.2105263,88.5874442 C24.2105263,90.6787295 22.5818313,92.3793103 20.5789474,92.3793103" id="Fill-16"></path>
                    <path d="M14.9298246,90.7586207 C12.9269406,90.7586207 11.2982456,88.9681581 11.2982456,86.7663409 L11.2982456,78.6034483 L13.4611872,78.6034483 L13.4611872,86.7663409 C13.4611872,87.6556277 14.1208844,88.3808483 14.9298246,88.3808483 C15.7387647,88.3808483 16.3984619,87.6556277 16.3984619,86.7663409 L16.3984619,78.6034483 L18.5614035,78.6034483 L18.5614035,86.7663409 C18.5614035,88.9681581 16.9327085,90.7586207 14.9298246,90.7586207" id="Fill-18"></path>
                    <path d="M10.0877193,89.137931 C8.08483538,89.137931 6.45614035,87.435604 6.45614035,85.3421714 L6.48209565,63.6346762 L8.78562845,52.6724138 L10.8988224,53.1562092 L8.61908195,63.9986532 L8.61908195,85.3421714 C8.61908195,86.187683 9.27877914,86.8772046 10.0877193,86.8772046 C10.8966595,86.8772046 11.5563566,86.187683 11.5563566,85.3421714 L11.5563566,77.5810975 L13.7192982,77.5810975 L13.7192982,85.3421714 C13.7192982,87.435604 12.0906032,89.137931 10.0877193,89.137931" id="Fill-20"></path>
                    <path d="M24.9788059,35.6551724 L14.9988515,35.6551724 C12.9578979,35.6551724 11.2982456,34.0192752 11.2982456,32.0075344 C11.2982456,29.9979662 12.9578979,28.362069 14.9988515,28.362069 L22.3229214,28.362069 L22.3229214,30.5345752 L14.9988515,30.5345752 C14.1745355,30.5345752 13.5022992,31.1950171 13.5022992,32.0075344 C13.5022992,32.8200518 14.1745355,33.4826662 14.9988515,33.4826662 L24.2514683,33.4826662 L31.2713788,28.362069 L37.9298246,28.362069 L37.9298246,30.5345752 L31.9987165,30.5345752 L24.9788059,35.6551724 Z" id="Fill-22"></path>
                    <path d="M21.7894737,29.9827586 L3.78653033,29.9827586 C1.69919984,29.9827586 0,28.3468614 0,26.3351206 C0,24.3255524 1.69919984,22.6896552 3.78653033,22.6896552 L11.5356037,22.6896552 L11.5356037,24.8621614 L3.78653033,24.8621614 C2.94257184,24.8621614 2.2565735,25.5226033 2.2565735,26.3351206 C2.2565735,27.147638 2.94257184,27.8102524 3.78653033,27.8102524 L21.7894737,27.8102524 L21.7894737,29.9827586 Z" id="Fill-24"></path>
                </g>
                <g id="Group-28" transform="translate(0.000000, 18.637931)">
                    <mask id="mask-4" fill="white">
                        <use xlink:href="#path-3"></use>
                    </mask>
                    <g id="Clip-27"></g>
                    <path d="M12.8484252,8.39594629 L3.75714657,8.39594629 C1.68463944,8.39594629 -0.000671438596,6.63402366 -0.000671438596,4.46730341 C-0.000671438596,2.30292302 1.68463944,0.541000388 3.75714657,0.541000388 L12.8484252,0.541000388 L12.8484252,2.88087108 L3.75714657,2.88087108 C2.92008646,2.88087108 2.23745722,3.59219177 2.23745722,4.46730341 C2.23745722,5.34241504 2.92008646,6.0560756 3.75714657,6.0560756 L12.8484252,6.0560756 L12.8484252,8.39594629 Z" id="Fill-26" fill="#FFFFFF" mask="url(#mask-4)"></path>
                </g>
                <g id="Group-6" transform="translate(0.000000, 0.810345)">
                    <path d="M12.9122807,20.2586207 L4.78053702,20.2586207 C2.59012849,20.2586207 0.807017544,18.6227235 0.807017544,16.6109827 C0.807017544,14.6014144 2.59012849,12.9655172 4.78053702,12.9655172 L12.9122807,12.9655172 L12.9122807,15.1380235 L4.78053702,15.1380235 C3.89490157,15.1380235 3.17502677,15.7984654 3.17502677,16.6109827 C3.17502677,17.4235 3.89490157,18.0861144 4.78053702,18.0861144 L12.9122807,18.0861144 L12.9122807,20.2586207 Z" id="Fill-29" fill="#FFFFFF"></path>
                    <path d="M14.7424481,15.3965517 L7.00988563,15.3965517 C4.92414345,15.3965517 3.22807018,13.7606545 3.22807018,11.7489137 C3.22807018,9.73934547 4.92414345,8.10344828 7.00988563,8.10344828 L28.6376355,8.12734584 L39.5438596,10.4432375 L39.0595891,12.5636036 L28.2749956,10.2759545 L7.00988563,10.2759545 C6.16748004,10.2759545 5.48049153,10.9363964 5.48049153,11.7489137 C5.48049153,12.5614311 6.16748004,13.2240455 7.00988563,13.2240455 L14.7424481,13.2240455 L14.7424481,15.3965517 Z" id="Fill-31" fill="#FFFFFF"></path>
                    <path d="M75.3868071,63.2068966 L68.062131,63.2068966 L68.062131,61.0343903 L75.3868071,61.0343903 C76.2111914,61.0343903 76.8834833,60.3717759 76.8834833,59.5592586 C76.8834833,58.7467412 76.2111914,58.0862993 75.3868071,58.0862993 L66.1356288,58.0862993 L59.1151372,63.2068966 L52.4561404,63.2068966 L52.4561404,61.0343903 L58.3877393,61.0343903 L65.4082309,55.9137931 L75.3868071,55.9137931 C77.4279296,55.9137931 79.0877193,57.5496903 79.0877193,59.5592586 C79.0877193,61.5709994 77.4279296,63.2068966 75.3868071,63.2068966" id="Fill-33" fill="#FFFFFF"></path>
                    <path d="M86.5975703,68.8793103 L78.8492994,68.8793103 L78.8492994,66.7068041 L86.5975703,66.7068041 C87.4414414,66.7068041 88.1296251,66.0441897 88.1296251,65.2316724 C88.1296251,64.419155 87.4414414,63.7587131 86.5975703,63.7587131 L68.5964912,63.7587131 L68.5964912,61.5862069 L86.5975703,61.5862069 C88.686941,61.5862069 90.3859649,63.2221041 90.3859649,65.2316724 C90.3859649,67.2434131 88.686941,68.8793103 86.5975703,68.8793103" id="Fill-35" fill="#FFFFFF"></path>
                    <path d="M88.2237033,73.7413793 L79.0877193,73.7413793 L79.0877193,71.5688731 L88.2237033,71.5688731 C89.0671287,71.5688731 89.7508656,70.9062587 89.7508656,70.0937413 C89.7508656,69.281224 89.0671287,68.6207821 88.2237033,68.6207821 L79.0877193,68.6207821 L79.0877193,66.4482759 L88.2237033,66.4482759 C90.3064018,66.4482759 92,68.0841731 92,70.0937413 C92,72.1054821 90.3064018,73.7413793 88.2237033,73.7413793" id="Fill-37" fill="#FFFFFF"></path>
                    <path d="M87.217095,79.4137931 L79.0877193,79.4137931 L79.0877193,77.2412869 L87.217095,77.2412869 C88.1027304,77.2412869 88.8249732,76.5786725 88.8249732,75.7661551 C88.8249732,74.9536378 88.1027304,74.2931959 87.217095,74.2931959 L79.0877193,74.2931959 L79.0877193,72.1206897 L87.217095,72.1206897 C89.4098715,72.1206897 91.1929825,73.7565869 91.1929825,75.7661551 C91.1929825,77.7778959 89.4098715,79.4137931 87.217095,79.4137931" id="Fill-39" fill="#FFFFFF"></path>
                    <path d="M84.9990067,84.2758621 L63.4288524,84.2519645 L52.4561404,82.0034205 L52.9235424,79.8787094 L63.779404,82.1033558 L84.9990067,82.1033558 C85.8394315,82.1033558 86.5248047,81.4407414 86.5248047,80.6282241 C86.5248047,79.8157068 85.8394315,79.1552649 84.9990067,79.1552649 L77.282379,79.1552649 L77.282379,76.9827586 L84.9990067,76.9827586 C87.0798446,76.9827586 88.7719298,78.6186558 88.7719298,80.6282241 C88.7719298,82.6399649 87.0798446,84.2758621 84.9990067,84.2758621" id="Fill-41" fill="#FFFFFF"></path>
                    <polygon id="Fill-43" fill="#FFFFFF" points="33.8947368 5.67241379 31.724274 5.67241379 31.724274 2.77959107 9.43362073 2.77959107 9.43362073 5.67241379 7.26315789 5.67241379 7.26315789 0.810344828 33.8947368 0.810344828"></polygon>
                    <polygon id="Fill-45" fill="#FFFFFF" points="33.8947368 55.1034483 7.26315789 55.1034483 7.26315789 37.2758621 9.43362073 37.2758621 9.43362073 52.9035981 31.724274 52.9035981 31.724274 37.2758621 33.8947368 37.2758621"></polygon>
                    <polygon id="Fill-47" fill="#FFFFFF" points="6.45614035 85.8965517 0 85.8965517 0 59.1551724 6.45614035 59.1551724 6.45614035 61.3347616 2.08733927 61.3347616 2.08733927 83.7169626 6.45614035 83.7169626"></polygon>
                    <polygon id="Fill-49" fill="#FFFFFF" points="54.877193 85.8965517 37.122807 85.8965517 37.122807 83.7169626 52.6354776 83.7169626 52.6354776 61.3347616 37.122807 61.3347616 37.122807 59.1551724 54.877193 59.1551724"></polygon>
                    <polygon id="Fill-51" fill="#FFFFFF" points="83.9298246 54.2931034 81.7591848 54.2931034 81.7591848 39.4994661 59.4688854 39.4994661 59.4688854 54.2931034 57.2982456 54.2931034 57.2982456 37.2758621 83.9298246 37.2758621"></polygon>
                    <polygon id="Fill-53" fill="#FFFFFF" points="83.9298246 91.5689655 57.2982456 91.5689655 57.2982456 85.8965517 59.4688854 85.8965517 59.4688854 89.6256925 81.7591848 89.6256925 81.7591848 85.8965517 83.9298246 85.8965517"></polygon>
                    <polygon id="Fill-55" fill="#FFFFFF" points="54.877193 33.2241379 37.9298246 33.2241379 37.9298246 6.48275862 54.877193 6.48275862 54.877193 8.66234777 40.1213891 8.66234777 40.1213891 31.0445488 54.877193 31.0445488"></polygon>
                    <polygon id="Fill-57" fill="#FFFFFF" points="92 33.2241379 84.7368421 33.2241379 84.7368421 31.0445488 89.7856226 31.0445488 89.7856226 8.66234777 84.7368421 8.66234777 84.7368421 6.48275862 92 6.48275862"></polygon>
                    <mask id="mask-6" fill="white">
                        <use xlink:href="#path-5"></use>
                    </mask>
                    <g id="Clip-60"></g>
                    <polygon id="Fill-59" fill="#FFFFFF" points="12.1052632 48.6206897 16.1403509 48.6206897 16.1403509 47 12.1052632 47"></polygon>
                    <polygon id="Fill-61" fill="#FFFFFF" points="75.8596491 43.7586207 79.8947368 43.7586207 79.8947368 42.137931 75.8596491 42.137931"></polygon>
                    <polygon id="Fill-62" fill="#FFFFFF" points="43.5789474 16.2068966 45.1929825 16.2068966 45.1929825 12.1551724 43.5789474 12.1551724"></polygon>
                    <polygon id="Fill-63" fill="#FFFFFF" points="48.4210526 81.0344828 50.0350877 81.0344828 50.0350877 76.9827586 48.4210526 76.9827586"></polygon>
                </g>
            </g>
        </g>
    </g>
</svg>