<?xml version="1.0" encoding="UTF-8"?>
<svg width="34px" height="26px" viewBox="0 0 34 26" version="1.1" xmlns="http://www.w3.org/2000/svg" xmlns:xlink="http://www.w3.org/1999/xlink">
    <!-- Generator: sketchtool 52.5 (67469) - http://www.bohemiancoding.com/sketch -->
    <title>F2AFF052-20F7-4020-86C4-0AE202643EED</title>
    <desc>Created with sketchtool.</desc>
    <g id="Membership" stroke="none" stroke-width="1" fill="none" fill-rule="evenodd">
        <g id="SCTE_DTPWEB-Contact-Us" transform="translate(-263.000000, -620.000000)" fill="#00B2B3">
            <g id="envelope" transform="translate(263.000000, 620.000000)">
                <path d="M29.8061983,0.0528455285 L4.15165289,0.0528455285 C1.86157025,0.0528455285 0,1.9200542 0,4.21707317 L0,21.804065 C0,24.101084 1.86157025,25.9682927 4.15165289,25.9682927 L29.7991736,25.9682927 C32.0892562,25.9682927 33.9508264,24.101084 33.9508264,21.804065 L33.9508264,4.22411924 C33.9578512,1.92710027 32.096281,0.0528455285 29.8061983,0.0528455285 Z M32.061157,21.804065 C32.061157,23.0512195 31.0495868,24.0658537 29.8061983,24.0658537 L4.15165289,24.0658537 C2.90826446,24.0658537 1.89669421,23.0512195 1.89669421,21.804065 L1.89669421,4.22411924 C1.89669421,2.97696477 2.90826446,1.96233062 4.15165289,1.96233062 L29.7991736,1.96233062 C31.042562,1.96233062 32.0541322,2.97696477 32.0541322,4.22411924 L32.0541322,21.804065 L32.061157,21.804065 Z" id="Shape" fill-rule="nonzero"></path>
                <path d="M21.4115702,12.7921409 L29.714876,5.32330623 C30.1012397,4.97100271 30.1363636,4.37208672 29.785124,3.97750678 C29.4338843,3.5899729 28.8367769,3.55474255 28.4433884,3.90704607 L16.9929752,14.2154472 L14.7590909,12.2143631 C14.7520661,12.2073171 14.7450413,12.200271 14.7450413,12.1932249 C14.6958678,12.1439024 14.6466942,12.101626 14.5904959,12.0593496 L5.50041322,3.9 C5.10702479,3.54769648 4.50991736,3.58292683 4.15867769,3.97750678 C3.80743802,4.37208672 3.84256198,4.97100271 4.23595041,5.32330623 L12.6376033,12.8555556 L4.27107438,20.7119241 C3.89173554,21.0712737 3.87066116,21.6701897 4.22892562,22.0577236 C4.41859504,22.2550136 4.6714876,22.3607046 4.92438017,22.3607046 C5.15619835,22.3607046 5.38801653,22.2761518 5.57066116,22.1070461 L14.0636364,14.1379404 L16.3677686,16.202439 C16.5504132,16.3644986 16.7752066,16.4420054 17,16.4420054 C17.2247934,16.4420054 17.4566116,16.3574526 17.6322314,16.195393 L19.9995868,14.0674797 L28.4433884,22.1140921 C28.6260331,22.2902439 28.864876,22.3747967 29.0966942,22.3747967 C29.3495868,22.3747967 29.5954545,22.2761518 29.785124,22.0788618 C30.1433884,21.698374 30.1293388,21.0924119 29.75,20.7330623 L21.4115702,12.7921409 Z" id="Path"></path>
            </g>
        </g>
    </g>
</svg>