<?xml version="1.0" encoding="UTF-8"?>
<svg width="118px" height="118px" viewBox="0 0 118 118" version="1.1" xmlns="http://www.w3.org/2000/svg" xmlns:xlink="http://www.w3.org/1999/xlink">
    <!-- Generator: sketchtool 52.5 (67469) - http://www.bohemiancoding.com/sketch -->
    <title>A22B8F56-2037-497B-B31F-53411FF7C65B</title>
    <desc>Created with sketchtool.</desc>
    <defs>
        <polygon id="path-1" points="0 0 118 0 118 118 0 118"></polygon>
    </defs>
    <g id="All-Pages" stroke="none" stroke-width="1" fill="none" fill-rule="evenodd">
        <g id="SCTE_DTPWEB-CAP-Details" transform="translate(-160.000000, -170.000000)">
            <g id="Group-7" transform="translate(160.000000, 170.000000)">
                <path d="M59.4996965,109.268589 C57.9734025,109.268589 56.7314866,108.026707 56.7314866,106.499848 C56.7314866,104.973596 57.9734025,103.731411 59.4996965,103.731411 C61.0265975,103.731411 62.2685134,104.973596 62.2685134,106.499848 C62.2685134,108.026707 61.0265975,109.268589 59.4996965,109.268589 M59.4996965,101 C56.4671394,101 54,103.467375 54,106.499848 C54,109.532929 56.4671394,112 59.4996965,112 C62.5325571,112 65,109.532929 65,106.499848 C65,103.467375 62.5325571,101 59.4996965,101" id="Fill-1" fill="#FFFFFF"></path>
                <path d="M48.5,99.2685134 C46.973706,99.2685134 45.7314866,98.0265975 45.7314866,96.5 C45.7314866,94.973706 46.973706,93.7314866 48.5,93.7314866 C50.0265975,93.7314866 51.2685134,94.973706 51.2685134,96.5 C51.2685134,98.0265975 50.0265975,99.2685134 48.5,99.2685134 M48.5,91 C45.4674429,91 43,93.4674429 43,96.5 C43,99.5328606 45.4674429,102 48.5,102 C51.5325571,102 54,99.5328606 54,96.5 C54,93.4674429 51.5325571,91 48.5,91" id="Fill-3" fill="#FFFFFF"></path>
                <path d="M68.5001518,93.7314866 C70.0264879,93.7314866 71.268438,94.9734025 71.268438,96.5 C71.268438,98.0265975 70.0264879,99.2685134 68.5001518,99.2685134 C66.9735121,99.2685134 65.731562,98.0265975 65.731562,96.5 C65.731562,94.9734025 66.9735121,93.7314866 68.5001518,93.7314866 M68.5001518,102 C71.5327925,102 74,99.5325571 74,96.5 C74,93.4671394 71.5327925,91 68.5001518,91 C65.467511,91 63,93.4671394 63,96.5 C63,99.5325571 65.467511,102 68.5001518,102" id="Fill-5" fill="#FFFFFF"></path>
                <path d="M46.3531517,14 L54.8173695,14 C55.4704443,14 56,13.4192605 56,12.7030632 C56,11.9868659 55.4704443,11.4061265 54.8173695,11.4061265 L46.3531517,11.4061265 C45.808616,11.4061265 45.365261,10.9199193 45.365261,10.322752 L45.365261,8.29693676 C45.365261,7.58073946 44.8359681,7 44.1826305,7 C43.5295557,7 43,7.58073946 43,8.29693676 L43,10.322752 C43,12.3502964 44.504306,14 46.3531517,14" id="Fill-7" fill="#FFFFFF"></path>
                <path d="M54.8173695,17 L44.1826305,17 C43.5298185,17 43,17.6713333 43,18.5 C43,19.3283333 43.5298185,20 44.1826305,20 L54.8173695,20 C55.4704443,20 56,19.3283333 56,18.5 C56,17.6713333 55.4704443,17 54.8173695,17" id="Fill-9" fill="#FFFFFF"></path>
                <path d="M44.1826305,28 C44.8357053,28 45.365261,27.4192127 45.365261,26.7029564 L45.365261,24.6775509 C45.365261,24.0800461 45.808616,23.5940871 46.3531517,23.5940871 L54.8173695,23.5940871 C55.4704443,23.5940871 56,23.0132998 56,22.2970436 C56,21.5807873 55.4704443,21 54.8173695,21 L46.3531517,21 C44.504306,21 43,22.6498394 43,24.6775509 L43,26.7029564 C43,27.4192127 43.5295557,28 44.1826305,28" id="Fill-11" fill="#FFFFFF"></path>
                <g id="Group-15"></g>
                <mask id="mask-2" fill="white">
                    <use xlink:href="#path-1"></use>
                </mask>
                <g id="Clip-14"></g>
                <path d="M87.2338609,58.5587569 C86.5834635,58.5587569 85.9648145,58.6971629 85.405805,58.9458797 L85.405805,30.5273985 C85.405805,29.5224762 86.2262196,28.7050526 87.2341576,28.7050526 L114.253839,28.7050526 L105.244411,43.0519599 C104.971433,43.4866967 104.973214,44.0391378 105.249455,44.4718045 L114.233663,58.5587569 L87.2338609,58.5587569 Z M95.9548836,65.2202857 C95.3955774,64.9706817 94.7775218,64.8290226 94.1259375,64.8290226 L87.2338609,64.8290226 C86.2318572,64.8290226 85.4155966,64.0213584 85.4061017,63.0244211 C85.4155966,62.0280752 86.2318572,61.220411 87.2338609,61.220411 L95.9548836,61.220411 L95.9548836,65.2202857 Z M94.1271243,71.1353684 L63.2308722,71.1353684 L63.2308722,41.2807769 L82.7353775,41.2807769 L82.7353775,63.0066767 L82.7353775,63.0244211 L82.7353775,63.0424612 C82.7353775,63.0569524 82.7356743,63.0714436 82.735971,63.0856391 C82.7784011,65.5219398 84.7797381,67.4906767 87.2338609,67.4906767 L94.1259375,67.4906767 C95.1338755,67.4906767 95.9542901,68.3081003 95.9542901,69.3127268 C95.9542901,69.3150927 95.9545868,69.3168672 95.9545868,69.3189373 C95.9519164,70.3209023 95.133282,71.1353684 94.1271243,71.1353684 Z M24.8224109,71.1353684 C24.1726069,71.1353684 23.554848,71.2785063 22.9946516,71.5301805 L22.9946516,43.1057845 C22.9946516,42.0993835 23.8147696,41.2807769 24.8224109,41.2807769 L54.32559,41.2807769 L54.32559,71.1353684 L24.8224109,71.1353684 Z M33.5419499,77.7963058 C32.9826437,77.5469975 32.3648848,77.4053383 31.7135973,77.4053383 L24.8224109,77.4053383 C23.8269349,77.4053383 23.0068169,76.596787 22.9946516,75.6187769 L22.9946516,75.5974837 C23.0080038,74.604391 23.8275283,73.7970226 24.8224109,73.7970226 L33.5419499,73.7970226 L33.5419499,77.7963058 Z M31.7141907,83.7125714 L3.75570543,83.7125714 L12.7529689,69.4954937 C13.0277263,69.0619398 13.0277263,68.509203 12.7529689,68.0756491 L3.75570543,53.8588672 L20.3242242,53.8588672 L20.3242242,75.583584 L20.3242242,75.6187769 C20.3242242,75.6193684 20.3245209,75.6193684 20.3245209,75.6196642 L20.3245209,75.6350426 C20.3541923,78.0787368 22.3718486,80.0669925 24.8224109,80.0669925 L31.7135973,80.0669925 C32.7212385,80.0669925 33.5413565,80.8841203 33.5413565,81.8887469 C33.5413565,81.8905213 33.5419499,81.8922957 33.5419499,81.8940702 C33.5395762,82.897218 32.7206451,83.7125714 31.7141907,83.7125714 Z M107.954894,43.7525664 L117.796606,28.0801554 C118.054154,27.6702607 118.0681,27.1530125 117.832806,26.7295138 C117.597511,26.306015 117.150066,26.0433985 116.664642,26.0433985 L87.2341576,26.0433985 C84.7536273,26.0433985 82.7353775,28.0550175 82.7353775,30.5273985 L82.7353775,38.6191228 L63.2308722,38.6191228 L63.2308722,3.77363409 C63.2308722,1.69281203 61.5321836,0 59.4447995,0 L58.111366,0 C56.0236852,0 54.32559,1.69281203 54.32559,3.77363409 L54.32559,7.49196491 L48.2129816,7.49196491 C47.4753502,7.49196491 46.8777679,8.08758396 46.8777679,8.82279198 C46.8777679,9.55770426 47.4753502,10.153619 48.2129816,10.153619 L55.6608038,10.153619 C56.3978417,10.153619 56.9960175,9.55770426 56.9960175,8.82279198 L56.9960175,3.77363409 C56.9960175,3.16056642 57.4962776,2.66165414 58.111366,2.66165414 L59.4447995,2.66165414 C60.0595912,2.66165414 60.5604447,3.16056642 60.5604447,3.77363409 L60.5604447,91.0531178 C60.5604447,91.7883258 61.158027,92.3839449 61.8956584,92.3839449 C62.6329931,92.3839449 63.2308722,91.7883258 63.2308722,91.0531178 L63.2308722,88.5289825 L68.6346305,88.5289825 C73.3325058,88.5289825 77.1547776,92.339584 77.1547776,97.023208 C77.1547776,101.705945 73.3325058,105.515363 68.6346305,105.515363 C67.8972958,105.515363 67.2994167,106.111278 67.2994167,106.84619 C67.2994167,111.528927 63.4765515,115.338346 58.7768959,115.338346 C54.0790206,115.338346 50.2567488,111.528927 50.2567488,106.84619 C50.2567488,106.111278 49.6591664,105.515363 48.921535,105.515363 C44.2236597,105.515363 40.4016846,101.705945 40.4016846,97.023208 C40.4016846,92.339584 44.2236597,88.5289825 48.921535,88.5289825 L54.32559,88.5289825 L54.32559,91.0531178 C54.32559,91.7883258 54.9228757,92.3839449 55.6608038,92.3839449 C56.3978417,92.3839449 56.9960175,91.7883258 56.9960175,91.0531178 L56.9960175,26.9066617 C56.9960175,26.1717494 56.3978417,25.5758346 55.6608038,25.5758346 L48.2129816,25.5758346 C47.4753502,25.5758346 46.8777679,26.1717494 46.8777679,26.9066617 C46.8777679,27.6415739 47.4753502,28.2374887 48.2129816,28.2374887 L54.32559,28.2374887 L54.32559,38.6191228 L24.8224109,38.6191228 C22.3421772,38.6191228 20.3242242,40.6319248 20.3242242,43.1057845 L20.3242242,51.197213 L1.33511131,51.197213 C0.848796797,51.197213 0.401055128,51.4610125 0.166057512,51.8853985 C-0.0686433894,52.3097845 -0.0538076813,52.8279198 0.20581721,53.2381103 L10.0448588,68.7857193 L0.20581721,84.3336241 C-0.0538076813,84.7435188 -0.0686433894,85.2616541 0.166057512,85.6863358 C0.401055128,86.1107218 0.848796797,86.3742256 1.33511131,86.3742256 L31.7141907,86.3742256 C34.1944244,86.3742256 36.2123774,84.3626065 36.2123774,81.8902256 L36.2123774,73.7970226 L54.32559,73.7970226 L54.32559,85.8673283 L48.921535,85.8673283 C42.7510673,85.8673283 37.7312572,90.8718296 37.7312572,97.023208 C37.7312572,102.747539 42.0798999,107.478481 47.6575327,108.106632 C48.2874569,113.665348 53.0336966,118 58.7768959,118 C64.521282,118 69.2687086,113.665348 69.8989295,108.106632 C75.4762656,107.478481 79.825205,102.747539 79.825205,97.023208 C79.825205,90.8718296 74.8050982,85.8673283 68.6346305,85.8673283 L63.2308722,85.8673283 L63.2308722,73.7970226 L94.1271243,73.7970226 C96.607358,73.7970226 98.625311,71.7856992 98.625311,69.313614 L98.625311,61.220411 L116.664642,61.220411 C117.152143,61.220411 117.600775,60.9557243 117.835179,60.5304511 C118.069583,60.1045865 118.052967,59.5855639 117.791562,59.1756692 L107.954894,43.7525664 Z" id="Fill-13" fill="#FFFFFF" mask="url(#mask-2)"></path>
                <path d="M69.4089318,24.9094014 L72.0912248,24.9094014 L72.0912248,27.5910682 C72.0912248,28.3694248 72.7221131,29 73.5001565,29 C74.2785131,29 74.9090883,28.3694248 74.9090883,27.5910682 L74.9090883,24.9094014 L77.5910682,24.9094014 C78.3691117,24.9094014 79,24.2785131 79,23.5004696 C79,22.7224262 78.3691117,22.0915379 77.5910682,22.0915379 L74.9090883,22.0915379 L74.9090883,19.4089318 C74.9090883,18.6308883 74.2785131,18 73.5001565,18 C72.7221131,18 72.0912248,18.6308883 72.0912248,19.4089318 L72.0912248,22.0915379 L69.4089318,22.0915379 C68.6308883,22.0915379 68,22.7224262 68,23.5004696 C68,24.2785131 68.6308883,24.9094014 69.4089318,24.9094014" id="Fill-16" fill="#FFFFFF" mask="url(#mask-2)"></path>
                <path d="M108.591068,77.0912248 L105.909088,77.0912248 L105.909088,74.4089318 C105.909088,73.6305752 105.2782,73 104.500157,73 C103.7218,73 103.091225,73.6305752 103.091225,74.4089318 L103.091225,77.0912248 L100.408932,77.0912248 C99.6305752,77.0912248 99,77.7221131 99,78.5001565 C99,79.2782 99.6305752,79.9090883 100.408932,79.9090883 L103.091225,79.9090883 L103.091225,82.5910682 C103.091225,83.3694248 103.7218,84 104.500157,84 C105.2782,84 105.909088,83.3694248 105.909088,82.5910682 L105.909088,79.9090883 L108.591068,79.9090883 C109.369112,79.9090883 110,79.2782 110,78.5001565 C110,77.7221131 109.369112,77.0912248 108.591068,77.0912248" id="Fill-18" fill="#FFFFFF" mask="url(#mask-2)"></path>
                <path d="M30.5910682,95.0912248 L27.9094014,95.0912248 L27.9094014,92.4089318 C27.9094014,91.6308883 27.2782,91 26.5004696,91 C25.7218,91 25.0915379,91.6308883 25.0915379,92.4089318 L25.0915379,95.0912248 L22.4089318,95.0912248 C21.6308883,95.0912248 21,95.7221131 21,96.5001565 C21,97.2782 21.6308883,97.9090883 22.4089318,97.9090883 L25.0915379,97.9090883 L25.0915379,100.591068 C25.0915379,101.369425 25.7218,102 26.5004696,102 C27.2782,102 27.9094014,101.369425 27.9094014,100.591068 L27.9094014,97.9090883 L30.5910682,97.9090883 C31.3691117,97.9090883 32,97.2782 32,96.5001565 C32,95.7221131 31.3691117,95.0912248 30.5910682,95.0912248" id="Fill-20" fill="#FFFFFF" mask="url(#mask-2)"></path>
            </g>
        </g>
    </g>
</svg>