<?xml version="1.0" encoding="UTF-8"?>
<svg width="36px" height="36px" viewBox="0 0 36 36" version="1.1" xmlns="http://www.w3.org/2000/svg" xmlns:xlink="http://www.w3.org/1999/xlink">
    <!-- Generator: sketchtool 52.5 (67469) - http://www.bohemiancoding.com/sketch -->
    <title>DA36AE24-D964-412F-894E-4B8ED18B35AF</title>
    <desc>Created with sketchtool.</desc>
    <g id="Membership" stroke="none" stroke-width="1" fill="none" fill-rule="evenodd">
        <g id="SCTE_DTPWEB-Contact-Us" transform="translate(-1132.000000, -615.000000)" fill="#00B2B3" fill-rule="nonzero" stroke="#FFFFFF" stroke-width="0.6">
            <g id="address-(1)" transform="translate(1133.000000, 616.000000)">
                <path d="M7.95318604,13.5868225 C7.95318604,16.6931305 10.4802551,19.2201996 13.5865631,19.2201996 C14.3188477,19.2201996 14.9120941,19.8137055 14.9120941,20.5457306 C14.9120941,21.2780151 14.3188477,21.8712616 13.5865631,21.8712616 C9.01853945,21.8712616 5.30212402,18.1548462 5.30212402,13.5868225 C5.30212402,9.01853945 9.01853945,5.30212402 13.5865631,5.30212402 C18.1548462,5.30212402 21.8712616,9.01853945 21.8712616,13.5868225 C21.8712616,14.3188477 21.2777558,14.9123535 20.5457306,14.9123535 C19.8137055,14.9123535 19.2201996,14.3188477 19.2201996,13.5868225 C19.2201996,10.4805145 16.6928711,7.95318604 13.5865631,7.95318604 C10.4802551,7.95318604 7.95318604,10.4805145 7.95318604,13.5868225 Z M8.9946747,25.3108978 C5.59317013,21.5861816 2.65573123,18.3691101 2.65106201,13.5738525 C2.65806581,7.55111698 7.56382753,2.65106201 13.5865631,2.65106201 C19.6095581,2.65106201 24.5150604,7.55111698 24.5220642,13.5738525 C24.5231018,14.3056183 25.1163483,14.8980865 25.8475952,14.8978271 L25.8491516,14.8978271 C26.5811768,14.8970489 27.1741639,14.3027649 27.1731262,13.5707397 C27.1689758,9.9448547 25.753952,6.53686523 23.1884918,3.97425841 C20.6230316,1.4113922 17.2129669,-2.84217094e-14 13.5865631,-2.84217094e-14 C9.96041873,-2.84217094e-14 6.550354,1.4113922 3.98463438,3.97425841 C1.41943359,6.53686523 0.00415039063,9.9448547 2.84217094e-14,13.5735932 C0.00259399414,16.2150574 0.73617557,18.6933594 2.24302675,21.1501312 C3.54754639,23.2774658 5.24246213,25.1334686 7.0369873,27.0986786 C8.79623416,29.0254975 10.6156616,31.017685 12.0685577,33.3164825 C12.320694,33.7154389 12.7505188,33.9338531 13.1902008,33.9338531 C13.4324799,33.9338531 13.6773529,33.8677063 13.8973236,33.7286682 C14.5159912,33.3374939 14.7006836,32.5188293 14.3095093,31.8999023 C12.7313232,29.403183 10.8317413,27.3227997 8.9946747,25.3108978 Z M33.5862579,25.9469452 C33.3247833,26.2330627 32.9668121,26.378067 32.6078033,26.378067 C32.2882233,26.378067 31.967865,26.2634125 31.7136535,26.0309906 L31.5476379,25.879242 L31.5476379,30.2654267 C31.5476379,32.3247986 29.8734741,34 27.815918,34 L20.3670044,34 C18.3094482,34 16.6352844,32.3247986 16.6352844,30.2654267 L16.6352844,25.9399414 L16.535675,26.0309906 C15.9953461,26.5251465 15.1569672,26.4875336 14.6628113,25.9472046 C14.1689148,25.4068756 14.2065277,24.5682373 14.7468567,24.0743408 L21.5885162,17.8191834 C23.0344086,16.4975434 25.21492,16.4975434 26.6605529,17.8191834 L31.0441437,21.8271637 C31.0926514,21.8655548 31.1383057,21.9073181 31.1808472,21.9519348 L33.5024719,24.0743408 C34.0428009,24.5682373 34.0804139,25.4068756 33.5862579,25.9469452 Z M28.896576,23.4554139 L24.8717346,19.7758331 C24.4458008,19.3864746 23.8035278,19.3864746 23.377594,19.7758331 L19.2863465,23.5158539 L19.2863465,30.2654267 C19.2863465,30.8628235 19.771164,31.348938 20.3672638,31.348938 L27.815918,31.348938 C28.4117584,31.348938 28.896576,30.8628235 28.896576,30.2654267 L28.896576,23.4554139 Z" id="Shape"></path>
            </g>
        </g>
    </g>
</svg>