<?xml version="1.0" encoding="UTF-8"?>
<svg width="83px" height="83px" viewBox="0 0 83 83" version="1.1" xmlns="http://www.w3.org/2000/svg" xmlns:xlink="http://www.w3.org/1999/xlink">
    <!-- Generator: sketchtool 52.5 (67469) - http://www.bohemiancoding.com/sketch -->
    <title>25602A5C-B348-4977-B9C3-3FB4DC2CE678</title>
    <desc>Created with sketchtool.</desc>
    <g id="Landing-Pages" stroke="none" stroke-width="1" fill="none" fill-rule="evenodd">
        <g id="SCTE_DTPWEB-What-We-Do" transform="translate(-1232.000000, -1294.000000)" fill="#FFFFFF" fill-rule="nonzero">
            <g id="pillars" transform="translate(1232.000000, 1294.000000)">
                <path d="M22.7580645,0 L1.33870968,0 C0.598403226,0 0,0.599741935 0,1.33870968 L0,9.37096774 C0,10.1099355 0.598403226,10.7096774 1.33870968,10.7096774 L2.67741935,10.7096774 L2.67741935,14.7258065 C2.67741935,15.4647742 3.27582258,16.0645161 4.01612903,16.0645161 L5.35483871,16.0645161 L5.35483871,58.9032258 L4.01612903,58.9032258 C3.27582258,58.9032258 2.67741935,59.5029677 2.67741935,60.2419355 L2.67741935,74.9677419 L1.33870968,74.9677419 C0.598403226,74.9677419 0,75.5674839 0,76.3064516 L0,81.6612903 C0,82.4002581 0.598403226,83 1.33870968,83 L22.7580645,83 C23.498371,83 24.0967742,82.4002581 24.0967742,81.6612903 L24.0967742,76.3064516 C24.0967742,75.5674839 23.498371,74.9677419 22.7580645,74.9677419 L21.4193548,74.9677419 L21.4193548,60.2419355 C21.4193548,59.5029677 20.8209516,58.9032258 20.0806452,58.9032258 L18.7419355,58.9032258 L18.7419355,16.0645161 L20.0806452,16.0645161 C20.8209516,16.0645161 21.4193548,15.4647742 21.4193548,14.7258065 L21.4193548,10.7096774 L22.7580645,10.7096774 C23.498371,10.7096774 24.0967742,10.1099355 24.0967742,9.37096774 L24.0967742,1.33870968 C24.0967742,0.599741935 23.498371,0 22.7580645,0 Z M8.03225806,58.9032258 L8.03225806,16.0645161 L10.7096774,16.0645161 L10.7096774,58.9032258 L8.03225806,58.9032258 Z M21.4193548,80.3225806 L2.67741935,80.3225806 L2.67741935,77.6451613 L21.4193548,77.6451613 L21.4193548,80.3225806 Z M13.3870968,74.9677419 L10.7096774,74.9677419 L10.7096774,70.9516129 C10.7096774,70.2139839 11.3094194,69.6129032 12.0483871,69.6129032 C12.7873548,69.6129032 13.3870968,70.2139839 13.3870968,70.9516129 L13.3870968,74.9677419 Z M16.0645161,74.9677419 L16.0645161,70.9516129 C16.0645161,68.7373871 14.2626129,66.9354839 12.0483871,66.9354839 C9.83416129,66.9354839 8.03225806,68.7373871 8.03225806,70.9516129 L8.03225806,74.9677419 L5.35483871,74.9677419 L5.35483871,61.5806452 L18.7419355,61.5806452 L18.7419355,74.9677419 L16.0645161,74.9677419 Z M13.3870968,58.9032258 L13.3870968,16.0645161 L16.0645161,16.0645161 L16.0645161,58.9032258 L13.3870968,58.9032258 Z M18.7419355,13.3870968 L17.4032258,13.3870968 L6.69354839,13.3870968 L5.35483871,13.3870968 L5.35483871,10.7096774 L18.7419355,10.7096774 L18.7419355,13.3870968 Z M21.4193548,8.03225806 L20.0806452,8.03225806 L4.01612903,8.03225806 L2.67741935,8.03225806 L2.67741935,2.67741935 L21.4193548,2.67741935 L21.4193548,8.03225806 Z" id="Shape"></path>
                <path d="M52.2096774,0 L30.7903226,0 C30.0500161,0 29.4516129,0.599741935 29.4516129,1.33870968 L29.4516129,9.37096774 C29.4516129,10.1099355 30.0500161,10.7096774 30.7903226,10.7096774 L32.1290323,10.7096774 L32.1290323,14.7258065 C32.1290323,15.4647742 32.7274355,16.0645161 33.4677419,16.0645161 L34.8064516,16.0645161 L34.8064516,58.9032258 L33.4677419,58.9032258 C32.7274355,58.9032258 32.1290323,59.5029677 32.1290323,60.2419355 L32.1290323,74.9677419 L30.7903226,74.9677419 C30.0500161,74.9677419 29.4516129,75.5674839 29.4516129,76.3064516 L29.4516129,81.6612903 C29.4516129,82.4002581 30.0500161,83 30.7903226,83 L52.2096774,83 C52.9499839,83 53.5483871,82.4002581 53.5483871,81.6612903 L53.5483871,76.3064516 C53.5483871,75.5674839 52.9499839,74.9677419 52.2096774,74.9677419 L50.8709677,74.9677419 L50.8709677,60.2419355 C50.8709677,59.5029677 50.2725645,58.9032258 49.5322581,58.9032258 L48.1935484,58.9032258 L48.1935484,16.0645161 L49.5322581,16.0645161 C50.2725645,16.0645161 50.8709677,15.4647742 50.8709677,14.7258065 L50.8709677,10.7096774 L52.2096774,10.7096774 C52.9499839,10.7096774 53.5483871,10.1099355 53.5483871,9.37096774 L53.5483871,1.33870968 C53.5483871,0.599741935 52.9499839,0 52.2096774,0 Z M37.483871,58.9032258 L37.483871,16.0645161 L40.1612903,16.0645161 L40.1612903,58.9032258 L37.483871,58.9032258 Z M50.8709677,80.3225806 L32.1290323,80.3225806 L32.1290323,77.6451613 L50.8709677,77.6451613 L50.8709677,80.3225806 Z M42.8387097,74.9677419 L40.1612903,74.9677419 L40.1612903,70.9516129 C40.1612903,70.2139839 40.7610323,69.6129032 41.5,69.6129032 C42.2389677,69.6129032 42.8387097,70.2139839 42.8387097,70.9516129 L42.8387097,74.9677419 Z M45.516129,74.9677419 L45.516129,70.9516129 C45.516129,68.7373871 43.7142258,66.9354839 41.5,66.9354839 C39.2857742,66.9354839 37.483871,68.7373871 37.483871,70.9516129 L37.483871,74.9677419 L34.8064516,74.9677419 L34.8064516,61.5806452 L48.1935484,61.5806452 L48.1935484,74.9677419 L45.516129,74.9677419 Z M42.8387097,58.9032258 L42.8387097,16.0645161 L45.516129,16.0645161 L45.516129,58.9032258 L42.8387097,58.9032258 Z M48.1935484,13.3870968 L46.8548387,13.3870968 L36.1451613,13.3870968 L34.8064516,13.3870968 L34.8064516,10.7096774 L48.1935484,10.7096774 L48.1935484,13.3870968 Z M50.8709677,8.03225806 L49.5322581,8.03225806 L33.4677419,8.03225806 L32.1290323,8.03225806 L32.1290323,2.67741935 L50.8709677,2.67741935 L50.8709677,8.03225806 Z" id="Shape"></path>
                <path d="M78.983871,16.0645161 C79.7241774,16.0645161 80.3225806,15.4647742 80.3225806,14.7258065 L80.3225806,10.7096774 L81.6612903,10.7096774 C82.4015968,10.7096774 83,10.1099355 83,9.37096774 L83,1.33870968 C83,0.599741935 82.4015968,0 81.6612903,0 L60.2419355,0 C59.501629,0 58.9032258,0.599741935 58.9032258,1.33870968 L58.9032258,9.37096774 C58.9032258,10.1099355 59.501629,10.7096774 60.2419355,10.7096774 L61.5806452,10.7096774 L61.5806452,14.7258065 C61.5806452,15.4647742 62.1790484,16.0645161 62.9193548,16.0645161 L64.2580645,16.0645161 L64.2580645,58.9032258 L62.9193548,58.9032258 C62.1790484,58.9032258 61.5806452,59.5029677 61.5806452,60.2419355 L61.5806452,74.9677419 L60.2419355,74.9677419 C59.501629,74.9677419 58.9032258,75.5674839 58.9032258,76.3064516 L58.9032258,81.6612903 C58.9032258,82.4002581 59.501629,83 60.2419355,83 L81.6612903,83 C82.4015968,83 83,82.4002581 83,81.6612903 L83,76.3064516 C83,75.5674839 82.4015968,74.9677419 81.6612903,74.9677419 L80.3225806,74.9677419 L80.3225806,60.2419355 C80.3225806,59.5029677 79.7241774,58.9032258 78.983871,58.9032258 L77.6451613,58.9032258 L77.6451613,16.0645161 L78.983871,16.0645161 Z M77.6451613,13.3870968 L76.3064516,13.3870968 L65.5967742,13.3870968 L64.2580645,13.3870968 L64.2580645,10.7096774 L77.6451613,10.7096774 L77.6451613,13.3870968 Z M61.5806452,8.03225806 L61.5806452,2.67741935 L80.3225806,2.67741935 L80.3225806,8.03225806 L78.983871,8.03225806 L62.9193548,8.03225806 L61.5806452,8.03225806 Z M66.9354839,16.0645161 L69.6129032,16.0645161 L69.6129032,58.9032258 L66.9354839,58.9032258 L66.9354839,16.0645161 Z M80.3225806,80.3225806 L61.5806452,80.3225806 L61.5806452,77.6451613 L80.3225806,77.6451613 L80.3225806,80.3225806 Z M72.2903226,74.9677419 L69.6129032,74.9677419 L69.6129032,70.9516129 C69.6129032,70.2139839 70.2126452,69.6129032 70.9516129,69.6129032 C71.6905806,69.6129032 72.2903226,70.2139839 72.2903226,70.9516129 L72.2903226,74.9677419 Z M74.9677419,74.9677419 L74.9677419,70.9516129 C74.9677419,68.7373871 73.1658387,66.9354839 70.9516129,66.9354839 C68.7373871,66.9354839 66.9354839,68.7373871 66.9354839,70.9516129 L66.9354839,74.9677419 L64.2580645,74.9677419 L64.2580645,61.5806452 L77.6451613,61.5806452 L77.6451613,74.9677419 L74.9677419,74.9677419 Z M72.2903226,58.9032258 L72.2903226,16.0645161 L74.9677419,16.0645161 L74.9677419,58.9032258 L72.2903226,58.9032258 Z" id="Shape"></path>
            </g>
        </g>
    </g>
</svg>