<?xml version="1.0" encoding="UTF-8"?>
<svg width="88px" height="100px" viewBox="0 0 88 100" version="1.1" xmlns="http://www.w3.org/2000/svg" xmlns:xlink="http://www.w3.org/1999/xlink">
    <!-- Generator: sketchtool 53.2 (72643) - https://sketchapp.com -->
    <title>E62113EC-B326-455C-A4EA-2364AD20948F</title>
    <desc>Created with sketchtool.</desc>
    <defs>
        <polygon id="path-1" points="0 0 88 0 88 100 0 100"></polygon>
    </defs>
    <g id="All-Pages" stroke="none" stroke-width="1" fill="none" fill-rule="evenodd">
        <g id="SCTE_DTPWEB-Chapter_Chapter-Event-Details" transform="translate(-174.000000, -179.000000)">
            <g id="Group-3" transform="translate(174.000000, 179.000000)">
                <mask id="mask-2" fill="white">
                    <use xlink:href="#path-1"></use>
                </mask>
                <g id="Clip-2"></g>
                <path d="M83.8133286,70.9934837 C84.1482168,70.9934837 84.4798366,71.0824561 84.7729895,71.2508772 C85.21825,71.5075188 85.5367961,71.9210526 85.6700474,72.4162907 C85.8027959,72.9110276 85.7346618,73.4283208 85.4774616,73.8721805 C85.134528,74.464411 84.4944188,74.8323308 83.807546,74.8323308 C83.4724064,74.8323308 83.1407866,74.7431078 82.8478851,74.5746867 C81.9287024,74.045614 81.6126705,72.8696742 82.1431616,71.9533835 C82.4863466,71.3614035 83.1264558,70.9934837 83.8133286,70.9934837 L83.8133286,70.9934837 Z M70.5399889,67.1942356 C69.4785039,67.1942356 68.6151359,66.3333333 68.6151359,65.2754386 C68.6151359,64.2172932 69.4785039,63.356391 70.5399889,63.356391 C71.6017253,63.356391 72.4650933,64.2172932 72.4650933,65.2754386 C72.4650933,66.3333333 71.6017253,67.1942356 70.5399889,67.1942356 L70.5399889,67.1942356 Z M72.4650933,80.5506266 C72.4650933,81.6085213 71.6017253,82.4694236 70.5399889,82.4694236 C69.4785039,82.4694236 68.6151359,81.6085213 68.6151359,80.5506266 C68.6151359,79.4922306 69.4785039,78.6315789 70.5399889,78.6315789 C71.6017253,78.6315789 72.4650933,79.4922306 72.4650933,80.5506266 L72.4650933,80.5506266 Z M59.1306591,73.4095238 C58.9974078,73.9045113 58.6788617,74.318797 58.2338526,74.5746867 C57.9406997,74.7431078 57.6088285,74.8323308 57.2739403,74.8323308 C56.586816,74.8323308 55.9469583,74.464411 55.6040247,73.8721805 C55.0732822,72.9558897 55.3893141,71.7802005 56.3084967,71.2508772 C56.6013982,71.0822055 56.933018,70.9932331 57.2681577,70.9932331 C57.9552819,70.9932331 58.5951396,71.3614035 58.9383246,71.9533835 C59.1952734,72.3974937 59.263659,72.9142857 59.1306591,73.4095238 L59.1306591,73.4095238 Z M57.2739403,86.2684211 C57.6088285,86.2684211 57.9406997,86.3576441 58.2336012,86.5263158 C58.6788617,86.7822055 58.9974078,87.19599 59.1304077,87.6912281 C59.2634076,88.1864662 59.1952734,88.7035088 58.9380732,89.147619 C58.5951396,89.739599 57.9552819,90.1075188 57.2681577,90.1075188 C56.9332694,90.1075188 56.6016496,90.0182957 56.3087482,89.8496241 C55.3893141,89.320802 55.0732822,88.1451128 55.6042761,87.2283208 C55.9469583,86.6363409 56.586816,86.2684211 57.2739403,86.2684211 L57.2739403,86.2684211 Z M44.0006005,82.4694236 C42.9393669,82.4694236 42.0757475,81.6085213 42.0757475,80.5506266 C42.0757475,79.4922306 42.9393669,78.6315789 44.0006005,78.6315789 C45.0620855,78.6315789 45.9257049,79.4922306 45.9257049,80.5506266 C45.9257049,81.6085213 45.0620855,82.4694236 44.0006005,82.4694236 L44.0006005,82.4694236 Z M45.9257049,95.8255639 C45.9257049,96.8837093 45.0620855,97.7443609 44.0006005,97.7443609 C42.9393669,97.7443609 42.0757475,96.8837093 42.0757475,95.8255639 C42.0757475,94.7674185 42.9393669,93.9067669 44.0006005,93.9067669 C45.0620855,93.9067669 45.9257049,94.7674185 45.9257049,95.8255639 L45.9257049,95.8255639 Z M31.6924529,89.8496241 C31.3998028,90.0182957 31.068183,90.1075188 30.7330434,90.1075188 C30.0461706,90.1075188 29.4063128,89.739599 29.0631278,89.1471178 C28.8061791,88.7035088 28.7377935,88.1864662 28.8710448,87.6912281 C29.0040447,87.19599 29.3225908,86.7822055 29.7678513,86.5263158 C30.0605014,86.3576441 30.3923726,86.2684211 30.7277636,86.2684211 C31.4148879,86.2684211 32.0547456,86.6363409 32.3974278,87.2280702 C32.9279189,88.1448622 32.6121384,89.320802 31.6924529,89.8496241 L31.6924529,89.8496241 Z M30.7275122,74.8323308 C30.3923726,74.8323308 30.0605014,74.7431078 29.7678513,74.5746867 C29.3225908,74.318797 29.0037933,73.9045113 28.8707934,73.4097744 C28.7375421,72.9145363 28.8061791,72.3972431 29.0631278,71.9533835 C29.4060614,71.3614035 30.0459192,70.9937343 30.7330434,70.9937343 C31.068183,70.9937343 31.4000542,71.0824561 31.6927043,71.2511278 C32.1382163,71.5075188 32.4565109,71.9210526 32.5897622,72.4162907 C32.7227621,72.9110276 32.654628,73.4283208 32.3974278,73.8721805 C32.0544942,74.464411 31.4146365,74.8323308 30.7275122,74.8323308 L30.7275122,74.8323308 Z M17.4599551,67.1942356 C16.3982186,67.1942356 15.5348507,66.3333333 15.5348507,65.2754386 C15.5348507,64.2172932 16.3982186,63.356391 17.4599551,63.356391 C18.5214401,63.356391 19.3848081,64.2172932 19.3848081,65.2754386 C19.3848081,66.3333333 18.5214401,67.1942356 17.4599551,67.1942356 L17.4599551,67.1942356 Z M19.3848081,80.5506266 C19.3848081,81.6085213 18.5214401,82.4694236 17.4599551,82.4694236 C16.3982186,82.4694236 15.5348507,81.6085213 15.5348507,80.5506266 C15.5348507,79.4922306 16.3982186,78.6315789 17.4599551,78.6315789 C18.5214401,78.6315789 19.3848081,79.4922306 19.3848081,80.5506266 L19.3848081,80.5506266 Z M5.15231028,74.5746867 C4.85915738,74.7431078 4.52753759,74.8323308 4.19264937,74.8323308 C3.50527371,74.8323308 2.86541597,74.464411 2.52248239,73.8716792 C2.2652822,73.4280702 2.19714804,72.9110276 2.33014794,72.4160401 C2.46339926,71.9210526 2.78169391,71.5075188 3.22695445,71.2508772 C3.51985593,71.0824561 3.85172713,70.9934837 4.18661535,70.9934837 C4.8737396,70.9934837 5.51359734,71.3614035 5.85653092,71.9531328 C6.38727343,72.8694236 6.07124153,74.045614 5.15231028,74.5746867 L5.15231028,74.5746867 Z M4.18661535,59.5571429 C3.85147572,59.5571429 3.51985593,59.4681704 3.22695445,59.2994987 C2.78169391,59.0431078 2.46339926,58.6295739 2.33014794,58.1343358 C2.19714804,57.639599 2.26503078,57.1220551 2.52223097,56.6784461 C2.86541597,56.0862155 3.50527371,55.7182957 4.19214654,55.7182957 C4.52728617,55.7182957 4.85915738,55.8072682 5.15231028,55.9761905 C5.59731939,56.2323308 5.91586547,56.6458647 6.04886537,57.1411028 C6.18211669,57.6360902 6.1137311,58.1533835 5.85653092,58.5972431 C5.51359734,59.1892231 4.87348818,59.5571429 4.18661535,59.5571429 L4.18661535,59.5571429 Z M15.5348507,50 C15.5348507,48.9421053 16.3982186,48.081203 17.4599551,48.081203 C18.5214401,48.081203 19.3848081,48.9421053 19.3848081,50 C19.3848081,51.058396 18.5214401,51.9192982 17.4599551,51.9192982 C16.3982186,51.9192982 15.5348507,51.058396 15.5348507,50 L15.5348507,50 Z M15.5348507,34.7310777 C15.5348507,33.6729323 16.3982186,32.8120301 17.4599551,32.8120301 C18.5214401,32.8120301 19.3848081,33.6729323 19.3848081,34.7310777 C19.3848081,35.7889724 18.5214401,36.6498747 17.4599551,36.6498747 C16.3982186,36.6498747 15.5348507,35.7889724 15.5348507,34.7310777 L15.5348507,34.7310777 Z M6.04886537,42.8651629 C5.91586547,43.3601504 5.59731939,43.7741855 5.15205886,44.0303258 C4.85915738,44.1989975 4.52728617,44.2879699 4.19264937,44.2879699 C3.50552513,44.2879699 2.86541597,43.9200501 2.52248239,43.3275689 C2.2652822,42.8839599 2.19714804,42.3669173 2.33014794,41.8719298 C2.46339926,41.3766917 2.78169391,40.9629073 3.22695445,40.7065163 C3.51985593,40.5380952 3.85147572,40.4491228 4.18661535,40.4491228 C4.8737396,40.4491228 5.51359734,40.816792 5.85653092,41.4090226 C6.1137311,41.8531328 6.18211669,42.3699248 6.04886537,42.8651629 L6.04886537,42.8651629 Z M4.18661535,29.012782 C3.85147572,29.012782 3.51985593,28.9238095 3.22695445,28.7551378 C2.78169391,28.4987469 2.46339926,28.085213 2.33014794,27.5902256 C2.19714804,27.0949875 2.26503078,26.5776942 2.52223097,26.1340852 C2.86541597,25.5418546 3.50527371,25.1741855 4.19264937,25.1741855 C4.52778901,25.1741855 4.8594088,25.2631579 5.15231028,25.4315789 C5.59731939,25.6877193 5.91586547,26.1015038 6.04886537,26.5964912 C6.18211669,27.0917293 6.1137311,27.6090226 5.85653092,28.0528822 C5.51359734,28.6451128 4.87348818,29.012782 4.18661535,29.012782 L4.18661535,29.012782 Z M15.5348507,19.4558897 C15.5348507,18.397995 16.3982186,17.5370927 17.4599551,17.5370927 C18.5214401,17.5370927 19.3848081,18.397995 19.3848081,19.4558897 C19.3848081,20.5140351 18.5214401,21.3746867 17.4599551,21.3746867 C16.3982186,21.3746867 15.5348507,20.5140351 15.5348507,19.4558897 L15.5348507,19.4558897 Z M28.8710448,26.5907268 C29.0040447,26.0954887 29.3225908,25.6817043 29.7681027,25.4258145 C30.0607528,25.2571429 30.3923726,25.1679198 30.7277636,25.1679198 C31.4148879,25.1679198 32.0547456,25.535589 32.3974278,26.1273183 C32.9279189,27.0443609 32.6121384,28.2200501 31.6924529,28.7493734 C31.3998028,28.9177945 31.068183,29.0070175 30.7330434,29.0070175 C30.0461706,29.0070175 29.4063128,28.6390977 29.0631278,28.0468672 C28.8061791,27.6030075 28.7377935,27.0857143 28.8710448,26.5907268 L28.8710448,26.5907268 Z M30.7275122,13.7315789 C30.3923726,13.7315789 30.0605014,13.6426065 29.7678513,13.4741855 C29.3225908,13.2180451 29.0037933,12.80401 28.8707934,12.3090226 C28.7375421,11.8137845 28.8061791,11.2967419 29.0631278,10.8528822 C29.4060614,10.2606516 30.0459192,9.89298246 30.7330434,9.89298246 C31.068183,9.89298246 31.4000542,9.98195489 31.6927043,10.1503759 C32.1382163,10.4067669 32.4565109,10.8205514 32.5897622,11.3155388 C32.7227621,11.8105263 32.654628,12.3280702 32.3974278,12.7716792 C32.0544942,13.3639098 31.4146365,13.7315789 30.7275122,13.7315789 L30.7275122,13.7315789 Z M44.0006005,17.5310777 C45.0620855,17.5310777 45.9257049,18.3917293 45.9257049,19.4498747 C45.9257049,20.5080201 45.0620855,21.3689223 44.0006005,21.3689223 C42.9393669,21.3689223 42.0757475,20.5080201 42.0757475,19.4498747 C42.0757475,18.3917293 42.9393669,17.5310777 44.0006005,17.5310777 L44.0006005,17.5310777 Z M42.0757475,4.17493734 C42.0757475,3.11679198 42.9393669,2.2556391 44.0006005,2.2556391 C45.0620855,2.2556391 45.9257049,3.11679198 45.9257049,4.17493734 C45.9257049,5.23283208 45.0620855,6.09373434 44.0006005,6.09373434 C42.9393669,6.09373434 42.0757475,5.23283208 42.0757475,4.17493734 L42.0757475,4.17493734 Z M56.3084967,10.1503759 C56.6013982,9.98170426 56.933018,9.89298246 57.2681577,9.89298246 C57.9552819,9.89298246 58.5951396,10.2606516 58.9383246,10.8526316 C59.4690672,11.7689223 59.1527838,12.9451128 58.2338526,13.4741855 C57.9406997,13.6428571 57.6088285,13.7318296 57.2739403,13.7318296 C56.586816,13.7318296 55.9469583,13.3641604 55.6042761,12.7719298 C55.0732822,11.8553885 55.3893141,10.6794486 56.3084967,10.1503759 L56.3084967,10.1503759 Z M57.2734374,25.1676692 C57.6085771,25.1676692 57.9406997,25.2568922 58.2336012,25.4258145 C58.6788617,25.6817043 58.9974078,26.0954887 59.1304077,26.5907268 C59.2634076,27.0857143 59.1952734,27.6030075 58.9380732,28.0468672 C58.5951396,28.6390977 57.9552819,29.0070175 57.2681577,29.0070175 C56.9332694,29.0070175 56.6016496,28.9177945 56.3087482,28.7493734 C55.3893141,28.2200501 55.0732822,27.0443609 55.6042761,26.1275689 C55.9469583,25.535589 56.586816,25.1676692 57.2734374,25.1676692 L57.2734374,25.1676692 Z M70.5399889,32.8120301 C71.6017253,32.8120301 72.4650933,33.6729323 72.4650933,34.7310777 C72.4650933,35.7889724 71.6017253,36.6498747 70.5399889,36.6498747 C69.4785039,36.6498747 68.6151359,35.7889724 68.6151359,34.7310777 C68.6151359,33.6729323 69.4785039,32.8120301 70.5399889,32.8120301 L70.5399889,32.8120301 Z M68.6151359,19.4558897 C68.6151359,18.397995 69.4785039,17.5370927 70.5399889,17.5370927 C71.6017253,17.5370927 72.4650933,18.397995 72.4650933,19.4558897 C72.4650933,20.5140351 71.6017253,21.3746867 70.5399889,21.3746867 C69.4785039,21.3746867 68.6151359,20.5140351 68.6151359,19.4558897 L68.6151359,19.4558897 Z M82.8476337,25.4313283 C83.1405352,25.2626566 83.4724064,25.1739348 83.8072946,25.1739348 C84.4944188,25.1739348 85.134528,25.541604 85.477713,26.1340852 C85.7349132,26.5776942 85.8030473,27.0949875 85.6700474,27.5899749 C85.5367961,28.0849624 85.2185015,28.4987469 84.7729895,28.7551378 C84.4798366,28.9238095 84.1482168,29.012782 83.8133286,29.012782 C83.1264558,29.012782 82.4863466,28.6448622 82.143413,28.0528822 C81.6126705,27.1363409 81.9289538,25.9601504 82.8476337,25.4313283 L82.8476337,25.4313283 Z M83.8130772,40.4488722 C84.1479654,40.4488722 84.4798366,40.5378446 84.7729895,40.7065163 C85.21825,40.9629073 85.5367961,41.3766917 85.6700474,41.8719298 C85.8027959,42.3669173 85.7346618,42.8842105 85.4774616,43.3278195 C85.134528,43.9203008 84.4944188,44.2879699 83.807546,44.2879699 C83.4726578,44.2879699 83.1407866,44.1989975 82.8478851,44.0303258 C81.9287024,43.5012531 81.6126705,42.3253133 82.1431616,41.4090226 C82.4863466,40.816792 83.1262044,40.4488722 83.8130772,40.4488722 L83.8130772,40.4488722 Z M72.4650933,50 C72.4650933,51.058396 71.6017253,51.9192982 70.5399889,51.9192982 C69.4785039,51.9192982 68.6151359,51.058396 68.6151359,50 C68.6151359,48.9421053 69.4785039,48.081203 70.5399889,48.081203 C71.6017253,48.081203 72.4650933,48.9421053 72.4650933,50 L72.4650933,50 Z M67.6177623,62.2909774 L61.3270431,58.6704261 C61.504041,57.9839599 61.5052981,57.2606516 61.3162321,56.5568922 C61.0265991,55.4802005 60.3334408,54.5799499 59.3652317,54.022807 C58.7286424,53.6561404 58.0055654,53.4626566 57.2734374,53.4626566 C56.1684572,53.4626566 55.1197944,53.9022556 54.3469368,54.6526316 L48.0539548,51.0305764 C48.1384311,50.7002506 48.1884632,50.3561404 48.1884632,50 C48.1884632,49.643609 48.1384311,49.2997494 48.0539548,48.9694236 L54.3469368,45.347619 C55.1197944,46.097995 56.1684572,46.537594 57.2736888,46.537594 C58.0055654,46.537594 58.7286424,46.3438596 59.3649803,45.9779449 C60.3334408,45.4203008 61.0265991,44.5200501 61.3162321,43.4428571 C61.5047953,42.7411028 61.5042925,42.0200501 61.3283002,41.3348371 L67.6177623,37.7152882 C68.1120493,38.1964912 68.7252568,38.5546366 69.4086098,38.7463659 L69.4086098,45.9847118 C67.6481839,46.4784461 66.3523777,48.0894737 66.3523777,50 C66.3523777,51.9107769 67.6481839,53.5218045 69.4086098,54.0157895 L69.4086098,61.2598997 C68.7252568,61.4516291 68.1123007,61.8097744 67.6177623,62.2909774 L67.6177623,62.2909774 Z M58.9380732,58.5972431 C58.5951396,59.1892231 57.9552819,59.5571429 57.2681577,59.5571429 C56.9332694,59.5571429 56.6016496,59.4681704 56.3087482,59.2994987 C55.3893141,58.7704261 55.0732822,57.5944862 55.6042761,56.6781955 C55.9469583,56.0862155 56.586816,55.7182957 57.2734374,55.7182957 C57.6085771,55.7182957 57.9406997,55.8072682 58.2338526,55.9761905 C58.6788617,56.2323308 58.9974078,56.6458647 59.1304077,57.1411028 C59.2634076,57.6360902 59.1952734,58.1533835 58.9380732,58.5972431 L58.9380732,58.5972431 Z M28.8710448,57.1411028 C29.0040447,56.6458647 29.3225908,56.2323308 29.7681027,55.9759398 C30.0607528,55.8072682 30.392624,55.7182957 30.7277636,55.7182957 C31.4148879,55.7182957 32.0547456,56.0859649 32.3974278,56.6776942 C32.9279189,57.5944862 32.6121384,58.7704261 31.6924529,59.2994987 C31.3998028,59.4681704 31.068183,59.5571429 30.7330434,59.5571429 C30.0461706,59.5571429 29.4063128,59.1892231 29.0631278,58.5969925 C28.8061791,58.1533835 28.7377935,57.6358396 28.8710448,57.1411028 L28.8710448,57.1411028 Z M29.0631278,41.4032581 C29.4060614,40.8110276 30.0459192,40.4433584 30.7330434,40.4433584 C31.068183,40.4433584 31.4000542,40.5323308 31.6929557,40.7010025 C32.1382163,40.9571429 32.4565109,41.3706767 32.5897622,41.8656642 C32.7227621,42.3609023 32.654628,42.8779449 32.3974278,43.3220551 C32.0544942,43.9140351 31.4146365,44.2822055 30.7277636,44.2822055 C30.3923726,44.2822055 30.0607528,44.1927318 29.7678513,44.0243108 C29.3223394,43.7679198 29.0037933,43.354386 28.8707934,42.8591479 C28.7375421,42.3641604 28.8061791,41.8468672 29.0631278,41.4032581 L29.0631278,41.4032581 Z M44.0006005,32.8062657 C45.0620855,32.8062657 45.9257049,33.6669173 45.9257049,34.7250627 C45.9257049,35.783208 45.0620855,36.6438596 44.0006005,36.6438596 C42.9393669,36.6438596 42.0757475,35.783208 42.0757475,34.7250627 C42.0757475,33.6669173 42.9393669,32.8062657 44.0006005,32.8062657 L44.0006005,32.8062657 Z M44.0006005,51.9192982 C42.9393669,51.9192982 42.0757475,51.058396 42.0757475,50 C42.0757475,48.9421053 42.9393669,48.081203 44.0006005,48.081203 C45.0620855,48.081203 45.9257049,48.9421053 45.9257049,50 C45.9257049,51.058396 45.0620855,51.9192982 44.0006005,51.9192982 L44.0006005,51.9192982 Z M44.0006005,67.1942356 C42.9393669,67.1942356 42.0757475,66.3333333 42.0757475,65.2754386 C42.0757475,64.2172932 42.9393669,63.356391 44.0006005,63.356391 C45.0620855,63.356391 45.9257049,64.2172932 45.9257049,65.2754386 C45.9257049,66.3333333 45.0620855,67.1942356 44.0006005,67.1942356 L44.0006005,67.1942356 Z M56.3084967,40.7007519 C56.6013982,40.5320802 56.933018,40.4433584 57.2681577,40.4433584 C57.9552819,40.4433584 58.5951396,40.8107769 58.9383246,41.4032581 C59.1952734,41.8468672 59.263659,42.3641604 59.1306591,42.8591479 C58.9976592,43.3541353 58.6788617,43.7679198 58.2336012,44.0243108 C57.9406997,44.1927318 57.6085771,44.2819549 57.2736888,44.2819549 C56.586816,44.2819549 55.9469583,43.9140351 55.6042761,43.3220551 C55.0732822,42.4057644 55.3893141,41.2295739 56.3084967,40.7007519 L56.3084967,40.7007519 Z M46.9230785,22.4340852 L53.2170662,26.056391 C52.7657716,27.822807 53.5172588,29.7471178 55.1771176,30.7025063 C55.8134555,31.0689223 56.5365325,31.2626566 57.2681577,31.2626566 C58.3716294,31.2626566 59.4182808,30.824812 60.190887,30.0766917 L66.4866347,33.7002506 C66.4021583,34.0308271 66.3523777,34.3746867 66.3523777,34.7310777 C66.3523777,35.087218 66.4021583,35.4310777 66.4866347,35.7614035 L60.198681,39.3804511 C59.4253205,38.6280702 58.3751493,38.1877193 57.2681577,38.1877193 C56.5367839,38.1877193 55.813707,38.3809524 55.1771176,38.7473684 C53.5172588,39.7022556 52.7657716,41.6265664 53.2170662,43.3934837 L46.9230785,47.0157895 C46.4287915,46.5345865 45.8153326,46.1764411 45.1319796,45.9847118 L45.1319796,38.7406015 C46.8924055,38.2466165 48.1884632,36.635589 48.1884632,34.7250627 C48.1884632,32.8145363 46.8924055,31.2035088 45.1319796,30.7097744 L45.1319796,23.4654135 C45.8153326,23.2739348 46.4287915,22.9155388 46.9230785,22.4340852 L46.9230785,22.4340852 Z M27.810314,30.0761905 C28.5829203,30.8245614 29.6295716,31.2626566 30.7330434,31.2626566 C31.46492,31.2626566 32.1879969,31.0689223 32.8240834,30.7025063 C34.4839423,29.7473684 35.2354294,27.8230576 34.7843863,26.056391 L41.0781226,22.4343358 C41.572661,22.9155388 42.1861198,23.2739348 42.8692214,23.4654135 L42.8692214,30.7097744 C41.1090469,31.2035088 39.8129893,32.8145363 39.8129893,34.7250627 C39.8129893,36.635589 41.1090469,38.2466165 42.8692214,38.7406015 L42.8692214,45.9847118 C42.1861198,46.1764411 41.572661,46.5345865 41.0781226,47.0157895 L34.7863976,43.3947368 C34.9631442,42.7082707 34.9644013,41.985213 34.7753353,41.2819549 C34.4857022,40.2047619 33.7927953,39.3047619 32.823832,38.7473684 C32.1877455,38.381203 31.4646686,38.1877193 30.7330434,38.1877193 C29.6260518,38.1877193 28.5756291,38.6283208 27.8022687,39.3809524 L21.5133093,35.7614035 C21.5977856,35.4310777 21.6475663,35.087218 21.6475663,34.7310777 C21.6475663,34.3746867 21.5977856,34.0308271 21.5133093,33.7002506 L27.810314,30.0761905 Z M21.6475663,50 C21.6475663,48.0894737 20.3517601,46.4784461 18.5913342,45.9847118 L18.5913342,38.7463659 C19.2746872,38.5546366 19.8878947,38.1964912 20.3821816,37.7152882 L26.6729009,41.335589 C26.49716,42.0203008 26.4966572,42.7413534 26.6852204,43.4428571 C26.974602,44.5203008 27.6680117,45.4203008 28.6362208,45.9776942 C29.2725587,46.3438596 29.9956356,46.5378446 30.7277636,46.5378446 C31.8327439,46.5378446 32.8814066,46.0982456 33.6545157,45.3478697 L39.9472463,48.9694236 C39.8625186,49.2997494 39.8129893,49.643609 39.8129893,50 C39.8129893,50.3561404 39.8625186,50.7002506 39.9472463,51.0305764 L33.6547671,54.652381 C32.881658,53.902005 31.8332467,53.4626566 30.7277636,53.4626566 C29.9958871,53.4626566 29.2725587,53.6561404 28.6367236,54.0225564 C27.6680117,54.5799499 26.9751048,55.4802005 26.6852204,56.5568922 C26.4961543,57.260401 26.4974114,57.9834586 26.6744094,58.6696742 L20.3821816,62.2909774 C19.8876432,61.8097744 19.2746872,61.4516291 18.5913342,61.2598997 L18.5913342,54.0157895 C20.3517601,53.5218045 21.6475663,51.9107769 21.6475663,50 L21.6475663,50 Z M41.0781226,77.5661654 L34.7861462,73.9451128 C34.9631442,73.2586466 34.9644013,72.535589 34.7753353,71.8323308 C34.4859536,70.7553885 33.7930468,69.8551378 32.823832,69.2974937 C32.1877455,68.9313283 31.4646686,68.7380952 30.7330434,68.7380952 C29.6278117,68.7380952 28.5794004,69.177193 27.8060399,69.9275689 L21.5133093,66.306015 C21.5977856,65.9756892 21.6475663,65.6313283 21.6475663,65.2754386 C21.6475663,64.9192982 21.5977856,64.575188 21.5133093,64.2446115 L27.8060399,60.622807 C28.5794004,61.373183 29.6278117,61.812782 30.7330434,61.812782 C31.46492,61.812782 32.1879969,61.6192982 32.8240834,61.2528822 C34.4839423,60.2974937 35.2354294,58.3734336 34.7843863,56.6067669 L41.0778712,52.9844612 C41.5724095,53.4656642 42.1861198,53.8240602 42.8692214,54.0157895 L42.8692214,61.2598997 C41.1090469,61.7538847 39.8129893,63.3649123 39.8129893,65.2754386 C39.8129893,67.1859649 41.1090469,68.7967419 42.8692214,69.2907268 L42.8692214,76.5348371 C42.1861198,76.7265664 41.572661,77.0849624 41.0781226,77.5661654 L41.0781226,77.5661654 Z M60.1949097,69.926817 C59.4215492,69.1769424 58.3731379,68.737594 57.2681577,68.737594 C56.5367839,68.737594 55.813707,68.9310777 55.1771176,69.2972431 C53.5172588,70.2528822 52.7657716,72.1774436 53.2170662,73.9438596 L46.9230785,77.5661654 C46.4287915,77.0849624 45.8153326,76.7265664 45.1319796,76.5348371 L45.1319796,69.2907268 C46.8924055,68.7967419 48.1884632,67.1859649 48.1884632,65.2754386 C48.1884632,63.3649123 46.8924055,61.7538847 45.1319796,61.2598997 L45.1319796,54.0157895 C45.815584,53.8240602 46.4290429,53.4656642 46.9230785,52.9844612 L53.2170662,56.6067669 C52.7657716,58.3734336 53.5175102,60.2974937 55.1771176,61.2528822 C55.8134555,61.6192982 56.5367839,61.812782 57.2681577,61.812782 C58.3731379,61.812782 59.4218006,61.3736842 60.1949097,60.6235589 L66.4866347,64.2446115 C66.4021583,64.575188 66.3523777,64.9192982 66.3523777,65.2754386 C66.3523777,65.6313283 66.4021583,65.9756892 66.4866347,66.306015 L60.1949097,69.926817 Z M82.8476337,55.9756892 C83.1405352,55.8070175 83.4724064,55.7182957 83.8072946,55.7182957 C84.4944188,55.7182957 85.134528,56.0862155 85.477713,56.6784461 C85.7349132,57.1220551 85.8030473,57.639599 85.6700474,58.1343358 C85.5367961,58.6293233 85.2185015,59.0431078 84.7729895,59.2994987 C84.480088,59.4681704 84.1482168,59.5568922 83.8133286,59.5568922 C83.1262044,59.5568922 82.4863466,59.1892231 82.143413,58.5972431 C81.6126705,57.6807018 81.9289538,56.5045113 82.8476337,55.9756892 L82.8476337,55.9756892 Z M83.8133286,61.8125313 C84.5447024,61.8125313 85.2677793,61.6192982 85.9041172,61.2531328 C86.8730806,60.6954887 87.5659874,59.7952381 87.855369,58.7180451 C88.1450021,57.6413534 87.9966657,56.5160401 87.4370102,55.5506266 C86.6913057,54.2626566 85.3002122,53.4626566 83.8072946,53.4626566 C83.0756694,53.4626566 82.3528439,53.6558897 81.716506,54.0220551 C80.0568985,54.9776942 79.3049086,56.9017544 79.7562031,58.6686717 L73.4624668,62.2909774 C72.9679285,61.8097744 72.3549724,61.4516291 71.671368,61.2598997 L71.671368,54.0157895 C73.4320453,53.5218045 74.7278515,51.9107769 74.7278515,50 C74.7278515,48.0894737 73.4320453,46.4784461 71.671368,45.9847118 L71.671368,38.7463659 C72.3549724,38.5546366 72.9679285,38.1964912 73.4624668,37.7152882 L79.7562031,41.3373434 C79.3049086,43.1042607 80.0566471,45.0283208 81.716506,45.9837093 C82.3528439,46.3501253 83.0759208,46.543609 83.807546,46.543609 C85.3002122,46.543609 86.6910542,45.743609 87.4370102,44.4558897 C87.9966657,43.4902256 88.1450021,42.3649123 87.855369,41.2882206 C87.5659874,40.2110276 86.8730806,39.3107769 85.9043686,38.7531328 C85.2677793,38.3869674 84.5447024,38.1932331 83.8130772,38.1932331 C82.7078455,38.1932331 81.6594342,38.6328321 80.8860737,39.383208 L74.5933431,35.7614035 C74.6778194,35.4310777 74.7278515,35.087218 74.7278515,34.7310777 C74.7278515,34.3746867 74.6778194,34.0308271 74.5933431,33.7002506 L80.8860737,30.0786967 C81.6594342,30.8288221 82.7080969,31.2684211 83.8133286,31.2684211 C84.5447024,31.2684211 85.2680307,31.0749373 85.9041172,30.7087719 C86.8730806,30.1511278 87.5659874,29.2508772 87.855369,28.1739348 C88.1450021,27.0969925 87.9966657,25.9716792 87.4370102,25.0062657 C86.6913057,23.7182957 85.3002122,22.9182957 83.8072946,22.9182957 C83.0756694,22.9182957 82.3528439,23.1115288 81.716506,23.4779449 C80.0568985,24.4333333 79.3049086,26.3573935 79.7562031,28.1243108 L73.4624668,31.7466165 C72.9679285,31.2654135 72.3549724,30.9072682 71.671368,30.7155388 L71.671368,23.4714286 C73.4320453,22.9776942 74.7278515,21.366416 74.7278515,19.4558897 C74.7278515,17.1541353 72.8492594,15.2814536 70.5399889,15.2814536 C68.2307184,15.2814536 66.3523777,17.1541353 66.3523777,19.4558897 C66.3523777,21.366416 67.6481839,22.9776942 69.4086098,23.4714286 L69.4086098,30.7155388 C68.7252568,30.9072682 68.1123007,31.2654135 67.6177623,31.7466165 L61.3255346,28.1253133 C61.5037896,27.4370927 61.5055496,26.7120301 61.3162321,26.0067669 C61.0265991,24.9298246 60.3334408,24.0295739 59.3649803,23.4721805 C58.7286424,23.106015 58.0055654,22.9120301 57.2734374,22.9120301 C56.1682057,22.9120301 55.1197944,23.3516291 54.3466854,24.102005 L48.0539548,20.4804511 C48.1384311,20.1501253 48.1884632,19.806015 48.1884632,19.4498747 C48.1884632,19.0934837 48.1384311,18.7496241 48.0539548,18.4195489 L54.3469368,14.7974937 C55.1197944,15.5478697 56.1684572,15.987218 57.2739403,15.987218 C58.0055654,15.987218 58.7286424,15.793985 59.3652317,15.4275689 C61.3647557,14.2764411 62.0523828,11.7182957 60.8976218,9.72481203 C60.1521687,8.43709273 58.7610752,7.63734336 57.2681577,7.63734336 C56.5365325,7.63734336 55.813707,7.83057644 55.1771176,8.19699248 C53.5175102,9.15213033 52.7657716,11.0764411 53.2170662,12.8431078 L46.9230785,16.4656642 C46.4287915,15.9844612 45.8153326,15.6260652 45.1319796,15.4343358 L45.1319796,8.19022556 C46.8924055,7.69649123 48.1884632,6.08571429 48.1884632,4.17493734 C48.1884632,1.87293233 46.3096196,0 44.0006005,0 C41.6915815,0 39.8129893,1.87293233 39.8129893,4.17493734 C39.8129893,6.08571429 41.1090469,7.69649123 42.8692214,8.19022556 L42.8692214,15.4343358 C42.1861198,15.6260652 41.572661,15.9844612 41.0781226,16.4656642 L34.7863976,12.8443609 C34.9631442,12.1581454 34.9644013,11.4348371 34.7753353,10.7318296 C34.4859536,9.65488722 33.7930468,8.75463659 32.823832,8.19699248 C32.1877455,7.83057644 31.4646686,7.63734336 30.7330434,7.63734336 C29.2401258,7.63734336 27.8492838,8.43709273 27.1033278,9.72506266 C26.5441751,10.6909774 26.3958387,11.8157895 26.6852204,12.8927318 C26.974602,13.9699248 27.6677603,14.8699248 28.6364722,15.4275689 C29.2725587,15.7937343 29.9956356,15.987218 30.7275122,15.987218 C31.8324925,15.987218 32.8811552,15.5478697 33.6542643,14.7974937 L39.9472463,18.4192982 C39.8625186,18.7496241 39.8129893,19.0934837 39.8129893,19.4498747 C39.8129893,19.8062657 39.8625186,20.1501253 39.9472463,20.4804511 L33.6547671,24.102005 C32.881658,23.3516291 31.8329953,22.9122807 30.7277636,22.9122807 C29.9956356,22.9122807 29.2725587,23.106015 28.6367236,23.4721805 C27.6680117,24.0295739 26.9748534,24.9298246 26.6852204,26.0067669 C26.4956515,26.7117794 26.4974114,27.4365915 26.6756665,28.1245614 L20.3821816,31.7466165 C19.8876432,31.2654135 19.2746872,30.9072682 18.5913342,30.7155388 L18.5913342,23.4714286 C20.3517601,22.9776942 21.6475663,21.366416 21.6475663,19.4558897 C21.6475663,17.1541353 19.7692256,15.2814536 17.4599551,15.2814536 C15.1506846,15.2814536 13.2720924,17.1541353 13.2720924,19.4558897 C13.2720924,21.366416 14.5678987,22.9776942 16.328576,23.4714286 L16.328576,30.7155388 C15.6449716,30.9072682 15.0320155,31.2654135 14.5374771,31.7466165 L8.24575218,28.1255639 C8.42249874,27.4390977 8.42375583,26.7162907 8.23468981,26.012782 C7.94505676,24.9358396 7.25189849,24.035589 6.28318655,23.4779449 C5.64684866,23.1117794 4.92402311,22.9185464 4.19264937,22.9185464 C2.69948036,22.9185464 1.30888973,23.7182957 0.562933766,25.0062657 C0.00352965031,25.9716792 -0.14505814,27.0969925 0.144574913,28.1739348 C0.433956548,29.2508772 1.12661198,30.1511278 2.09557534,30.7087719 C2.73191323,31.0749373 3.45499019,31.2684211 4.18661535,31.2684211 C5.29209845,31.2684211 6.34050976,30.8288221 7.11361882,30.0784461 L13.4066009,33.7002506 C13.3221245,34.0308271 13.2720924,34.3746867 13.2720924,34.7310777 C13.2720924,35.0869674 13.3221245,35.4310777 13.4066009,35.7614035 L7.11387024,39.383208 C6.34050976,38.6328321 5.29209845,38.1934837 4.18661535,38.1934837 C3.45499019,38.1934837 2.73191323,38.3869674 2.09557534,38.7531328 C1.1268634,39.3107769 0.433956548,40.2110276 0.144574913,41.2882206 C-0.14505814,42.3649123 0.00352965031,43.4902256 0.562933766,44.4553885 C1.30863831,45.7433584 2.69922895,46.543609 4.19264937,46.543609 C4.92402311,46.543609 5.64710007,46.3501253 6.28343797,45.9837093 C7.25189849,45.4260652 7.94505676,44.5260652 8.23468981,43.4488722 C8.42375583,42.745614 8.42249874,42.0225564 8.24575218,41.3363409 L14.5374771,37.7152882 C15.0320155,38.1964912 15.6449716,38.5546366 16.328576,38.7463659 L16.328576,45.9847118 C14.5678987,46.4784461 13.2720924,48.0894737 13.2720924,50 C13.2720924,51.9107769 14.5678987,53.5218045 16.328576,54.0157895 L16.328576,61.2598997 C15.6449716,61.4516291 15.0320155,61.8097744 14.5374771,62.2909774 L8.24575218,58.6699248 C8.42249874,57.9834586 8.42375583,57.260401 8.23468981,56.5571429 C7.94505676,55.4802005 7.25189849,54.5799499 6.28343797,54.0225564 C5.64710007,53.6561404 4.92402311,53.4626566 4.19214654,53.4626566 C2.69922895,53.4626566 1.30863831,54.2626566 0.562933766,55.5506266 C0.00352965031,56.5160401 -0.14505814,57.6413534 0.144574913,58.7180451 C0.433956548,59.7952381 1.12661198,60.6954887 2.09557534,61.2528822 C2.73191323,61.6192982 3.45499019,61.812782 4.18661535,61.812782 C5.29209845,61.812782 6.34050976,61.373183 7.11361882,60.6230576 L13.4066009,64.2446115 C13.3221245,64.575188 13.2720924,64.9192982 13.2720924,65.2754386 C13.2720924,65.6313283 13.3221245,65.9756892 13.4066009,66.3057644 L7.11361882,69.9275689 C6.34050976,69.177193 5.29209845,68.7378446 4.18661535,68.7378446 C3.45524161,68.7378446 2.73191323,68.9313283 2.09557534,69.2977444 C1.1268634,69.8551378 0.433956548,70.7553885 0.144574913,71.8323308 C-0.14505814,72.9095238 0.00352965031,74.0343358 0.562933766,74.9994987 C1.30863831,76.2877193 2.69922895,77.0879699 4.19264937,77.0879699 C4.92402311,77.0879699 5.64710007,76.8944862 6.28343797,76.5283208 C7.94304542,75.5726817 8.6950354,73.6483709 8.24374084,71.8817043 L14.5374771,68.2596491 C15.0320155,68.7408521 15.6449716,69.0989975 16.328576,69.2907268 L16.328576,76.5348371 C14.5678987,77.0285714 13.2720924,78.6398496 13.2720924,80.5506266 C13.2720924,82.852381 15.1506846,84.7250627 17.4599551,84.7250627 C19.7692256,84.7250627 21.6475663,82.852381 21.6475663,80.5506266 C21.6475663,78.6398496 20.3517601,77.0285714 18.5913342,76.5348371 L18.5913342,69.2907268 C19.2746872,69.0989975 19.8878947,68.7408521 20.3821816,68.2596491 L26.674158,71.8807018 C26.49716,72.5671679 26.4961543,73.2899749 26.6852204,73.9934837 C26.974602,75.0706767 27.6680117,75.9706767 28.6364722,76.5283208 C29.2725587,76.8942356 29.9956356,77.0879699 30.7275122,77.0879699 C31.8327439,77.0879699 32.8814066,76.6483709 33.6542643,75.897995 L39.9472463,79.5197995 C39.8625186,79.8501253 39.8129893,80.1942356 39.8129893,80.5506266 C39.8129893,80.9070175 39.8625186,81.2508772 39.9472463,81.5809524 L33.6545157,85.2025063 C32.881658,84.452381 31.8329953,84.012782 30.7277636,84.012782 C29.9958871,84.012782 29.2728101,84.2065163 28.6367236,84.5726817 C27.6680117,85.1300752 26.9748534,86.0303258 26.6852204,87.1075188 C26.3958387,88.1847118 26.5444265,89.3095238 27.1033278,90.2749373 C27.8492838,91.5629073 29.2401258,92.3631579 30.7330434,92.3631579 C31.4646686,92.3631579 32.1879969,92.1694236 32.8240834,91.8030075 C34.4839423,90.8478697 35.2356808,88.9235589 34.7843863,87.1568922 L41.0781226,83.5348371 C41.572661,84.0160401 42.1861198,84.3744361 42.8692214,84.5659148 L42.8692214,91.8102757 C41.1090469,92.3037594 39.8129893,93.9150376 39.8129893,95.8255639 C39.8129893,98.1273183 41.6915815,100 44.0006005,100 C46.3096196,100 48.1884632,98.1273183 48.1884632,95.8255639 C48.1884632,93.9150376 46.8924055,92.3037594 45.1319796,91.8102757 L45.1319796,84.5659148 C45.8153326,84.3744361 46.4287915,84.0160401 46.9230785,83.5348371 L53.2170662,87.1571429 C52.7657716,88.9235589 53.5175102,90.8478697 55.1771176,91.8030075 C55.8134555,92.1694236 56.5367839,92.3631579 57.2681577,92.3631579 C58.7610752,92.3631579 60.1521687,91.5629073 60.8976218,90.2754386 C61.457026,89.3095238 61.6056137,88.1847118 61.3162321,87.1072682 C61.0265991,86.0303258 60.3334408,85.1300752 59.3649803,84.5726817 C58.7286424,84.2065163 58.0055654,84.012782 57.2739403,84.012782 C56.1684572,84.012782 55.1197944,84.452381 54.3466854,85.2027569 L48.0539548,81.5809524 C48.1384311,81.2508772 48.1884632,80.9067669 48.1884632,80.5506266 C48.1884632,80.1942356 48.1384311,79.8501253 48.0539548,79.5197995 L54.3469368,75.897995 C55.1197944,76.6483709 56.1684572,77.0879699 57.2739403,77.0879699 C58.0055654,77.0879699 58.7286424,76.8944862 59.3649803,76.5283208 C60.3334408,75.9706767 61.0265991,75.0706767 61.3162321,73.9934837 C61.5052981,73.2897243 61.5042925,72.566416 61.3270431,71.8796992 L67.6175109,68.2596491 C68.1120493,68.7408521 68.7252568,69.0989975 69.4086098,69.2907268 L69.4086098,76.5348371 C67.6481839,77.0285714 66.3523777,78.6398496 66.3523777,80.5506266 C66.3523777,82.852381 68.2307184,84.7250627 70.5399889,84.7250627 C72.8492594,84.7250627 74.7278515,82.852381 74.7278515,80.5506266 C74.7278515,78.6398496 73.4320453,77.0285714 71.671368,76.5348371 L71.671368,69.2907268 C72.3549724,69.0989975 72.9679285,68.7408521 73.4624668,68.2596491 L79.7562031,71.8817043 C79.3049086,73.6483709 80.0568985,75.5726817 81.716506,76.5283208 C82.3528439,76.8942356 83.0759208,77.0879699 83.807546,77.0879699 C85.3002122,77.0879699 86.6913057,76.2879699 87.4370102,75 C87.9966657,74.0345865 88.1450021,72.9095238 87.855369,71.8323308 C87.5659874,70.7553885 86.8730806,69.8551378 85.9043686,69.2977444 C85.2680307,68.9313283 84.5447024,68.7378446 83.8133286,68.7378446 C82.7080969,68.7378446 81.6594342,69.177193 80.8860737,69.9275689 L74.5933431,66.306015 C74.6778194,65.9756892 74.7278515,65.6313283 74.7278515,65.2754386 C74.7278515,64.9192982 74.6778194,64.575188 74.5933431,64.2446115 L80.8860737,60.6230576 C81.6594342,61.373183 82.7080969,61.8125313 83.8133286,61.8125313 L83.8133286,61.8125313 Z" id="Fill-1" fill="#FFFFFF" mask="url(#mask-2)"></path>
            </g>
        </g>
    </g>
</svg>