<?xml version="1.0" encoding="UTF-8"?>
<svg width="34px" height="34px" viewBox="0 0 34 34" version="1.1" xmlns="http://www.w3.org/2000/svg" xmlns:xlink="http://www.w3.org/1999/xlink">
    <!-- Generator: sketchtool 52.5 (67469) - http://www.bohemiancoding.com/sketch -->
    <title>E3B8DC0C-B403-4141-BDE2-41CA65C8DBB5</title>
    <desc>Created with sketchtool.</desc>
    <g id="Membership" stroke="none" stroke-width="1" fill="none" fill-rule="evenodd">
        <g id="SCTE_DTPWEB-Contact-Us" transform="translate(-553.000000, -616.000000)" fill="#00B2B3">
            <g id="phone-call" transform="translate(553.000000, 616.000000)">
                <path d="M26.8597131,21.053173 C26.1639325,20.3287004 25.324692,19.9413586 24.4352405,19.9413586 C23.552962,19.9413586 22.7065485,20.3215274 21.9820759,21.046 L19.7154093,23.3054937 C19.5289114,23.2050717 19.3424135,23.1118228 19.1630886,23.0185738 C18.9048608,22.8894599 18.6609789,22.767519 18.452962,22.6384051 C16.3297553,21.2898819 14.4002194,19.5324979 12.5495865,17.2586582 C11.652962,16.1253249 11.0504304,15.1713165 10.6128776,14.202962 C11.2010633,13.6649873 11.746211,13.1054937 12.2770127,12.567519 C12.4778565,12.3666751 12.6787004,12.1586582 12.8795443,11.9578143 C14.3858734,10.4514852 14.3858734,8.50043038 12.8795443,6.99410127 L10.9213165,5.03587342 C10.6989536,4.81351055 10.4694177,4.58397468 10.2542278,4.35443882 C9.8238481,3.90971308 9.37194937,3.45064135 8.90570464,3.0202616 C8.20992405,2.33165401 7.37785654,1.96583122 6.50275105,1.96583122 C5.62764557,1.96583122 4.78123207,2.33165401 4.06393249,3.0202616 C4.05675949,3.0274346 4.05675949,3.0274346 4.0495865,3.03460759 L1.61076793,5.49494515 C0.692624473,6.41308861 0.168995781,7.53207595 0.0542278481,8.83038819 C-0.117924051,10.924903 0.498953586,12.8759578 0.972371308,14.1527511 C2.13439662,17.2873502 3.8702616,20.1924135 6.45971308,23.3054937 C9.60148523,27.0569705 13.381654,30.0194177 17.6997975,32.1067595 C19.3495865,32.888616 21.5516962,33.8139325 24.0120338,33.9717384 C24.1626667,33.9789114 24.3204726,33.9860844 24.4639325,33.9860844 C26.1208945,33.9860844 27.5124557,33.3907257 28.6027511,32.2071814 C28.6099241,32.1928354 28.62427,32.1856624 28.631443,32.1713165 C29.0044388,31.7194177 29.4348186,31.310557 29.8867173,30.8730042 C30.1951561,30.5789114 30.5107679,30.2704726 30.8192068,29.9476878 C31.5293333,29.2088692 31.9023291,28.3481097 31.9023291,27.4658312 C31.9023291,26.5763797 31.5221603,25.7227932 30.7976878,25.0054937 L26.8597131,21.053173 Z M29.4276456,28.6063376 C29.4204726,28.6063376 29.4204726,28.6135105 29.4276456,28.6063376 C29.1478987,28.9076034 28.8609789,29.1801772 28.5525401,29.481443 C28.0862954,29.9261688 27.6128776,30.3924135 27.1681519,30.9160422 C26.4436793,31.6907257 25.5900928,32.0565485 24.4711055,32.0565485 C24.3635105,32.0565485 24.2487426,32.0565485 24.1411477,32.0493755 C22.0107679,31.9130886 20.0310211,31.0810211 18.546211,30.3708945 C14.4862954,28.4054937 10.9213165,25.6151983 7.9588692,22.0789114 C5.51287764,19.1308101 3.8774346,16.4050717 2.79431224,13.4784895 C2.12722363,11.6924135 1.88334177,10.3008523 1.99093671,8.98819409 C2.06266667,8.14895359 2.38545148,7.453173 2.98081013,6.85781435 L5.42680169,4.41182278 C5.77827848,4.08186498 6.15127426,3.90254008 6.51709705,3.90254008 C6.96899578,3.90254008 7.33481857,4.17511392 7.56435443,4.40464979 C7.57152743,4.41182278 7.57870042,4.41899578 7.58587342,4.42616878 C8.02342616,4.83502954 8.43945992,5.25823629 8.87701266,5.71013502 C9.09937553,5.93967089 9.32891139,6.16920675 9.55844726,6.40591561 L11.5166751,8.36414346 C12.2770127,9.12448101 12.2770127,9.8274346 11.5166751,10.5877722 C11.3086582,10.795789 11.1078143,11.0038059 10.8997975,11.2046498 C10.2972658,11.8215274 9.72342616,12.3953671 9.09937553,12.9548608 C9.08502954,12.9692068 9.07068354,12.9763797 9.06351055,12.9907257 C8.44663291,13.6076034 8.56140084,14.210135 8.69051477,14.6189958 C8.69768776,14.6405148 8.70486076,14.6620338 8.71203376,14.6835527 C9.22131646,15.917308 9.93861603,17.0793333 11.0289114,18.4637215 L11.0360844,18.4708945 C13.0158312,20.9097131 15.103173,22.810557 17.4057046,24.2666751 C17.6997975,24.453173 18.0010633,24.6038059 18.2879831,24.7472658 C18.546211,24.8763797 18.7900928,24.9983207 18.9981097,25.1274346 C19.0268017,25.1417806 19.0554937,25.1632996 19.0841857,25.1776456 C19.3280675,25.2995865 19.5576034,25.3569705 19.7943122,25.3569705 C20.3896709,25.3569705 20.7626667,24.9839747 20.8846076,24.8620338 L23.3377722,22.4088692 C23.581654,22.1649873 23.9689958,21.8708945 24.4208945,21.8708945 C24.8656203,21.8708945 25.231443,22.1506414 25.4538059,22.3945232 C25.4609789,22.4016962 25.4609789,22.4016962 25.4681519,22.4088692 L29.4204726,26.3611899 C30.1592911,27.0928354 30.1592911,27.846 29.4276456,28.6063376 Z" id="Shape" fill-rule="nonzero"></path>
                <path d="M18.3668861,8.08439662 C20.246211,8.40000844 21.953384,9.28945992 23.3162532,10.6523291 C24.6791224,12.0151983 25.5614008,13.7223713 25.8841857,15.6016962 C25.9630886,16.0751139 26.3719494,16.4050717 26.8381941,16.4050717 C26.8955781,16.4050717 26.945789,16.3978987 27.003173,16.3907257 C27.5339747,16.3046498 27.8854515,15.8025401 27.7993755,15.2717384 C27.4120338,12.9978987 26.3360844,10.924903 24.6934684,9.28228692 C23.0508523,7.63967089 20.9778565,6.56372152 18.7040169,6.17637975 C18.1732152,6.0903038 17.6782785,6.44178059 17.5850295,6.96540928 C17.4917806,7.48903797 17.8360844,7.99832068 18.3668861,8.08439662 Z" id="Path"></path>
                <path d="M33.9466329,14.9919916 C33.3082363,11.2476878 31.5436793,7.84051477 28.8322869,5.12912236 C26.1208945,2.41772996 22.7137215,0.653172996 18.9694177,0.0147763713 C18.445789,-0.0784725738 17.9508523,0.280177215 17.8576034,0.803805907 C17.7715274,1.33460759 18.1230042,1.8295443 18.6538059,1.92279325 C21.9964219,2.48945992 25.0449451,4.07469198 27.4694177,6.49199156 C29.8938903,8.91646414 31.4719494,11.9649873 32.038616,15.3076034 C32.117519,15.7810211 32.5263797,16.1109789 32.9926245,16.1109789 C33.0500084,16.1109789 33.1002194,16.1038059 33.1576034,16.0966329 C33.6812321,16.01773 34.0398819,15.5156203 33.9466329,14.9919916 Z" id="Path"></path>
            </g>
        </g>
    </g>
</svg>