<svg xmlns="http://www.w3.org/2000/svg" width="95" height="95" viewBox="0 0 95 95">
    <g fill="#FFF" fill-rule="evenodd">
        <path d="M71 53.438V9.895C70.994 4.433 66.582.006 61.139 0H17.75a1.97 1.97 0 0 0-1.394.58L.578 16.413c-.37.371-.578.875-.578 1.4v67.291c.006 5.463 4.418 9.89 9.861 9.896h51.278c5.443-.006 9.854-4.433 9.86-9.896v-3.958h-3.944v3.958c0 3.28-2.649 5.938-5.916 5.938H9.86c-3.268 0-5.917-2.659-5.917-5.938V18.632L18.567 3.958h42.572c3.268 0 5.917 2.659 5.917 5.938v43.541H71z"/>
        <path d="M16 2v12a2 2 0 0 1-2 2h-4v4h4a6 6 0 0 0 6-6V2h-4z"/>
        <path fill-rule="nonzero" d="M94.414 48.124l-5.538-5.538a2 2 0 0 0-2.828 0L55.586 73.048a2 2 0 0 0 0 2.828l5.538 5.538a2 2 0 0 0 2.828 0l30.462-30.462a2 2 0 0 0 0-2.828zM62.538 77.172l-2.71-2.71 27.634-27.634 2.71 2.71-27.634 27.634z"/>
        <path d="M59 77v-4h-4v6a2 2 0 0 0 2 2h6v-4h-4zM57 8h-4v4h4a2 2 0 0 1 2 2v4h4v-4a6 6 0 0 0-6-6z"/>
        <path fill-rule="nonzero" d="M52 28H20c-1.104 0-2 .864-2 1.929v27.005a1.924 1.924 0 0 0 1.12 1.736l13.91 6.558c.914.504 1.948.77 3 .772a5.86 5.86 0 0 0 2.834-.708L52.88 58.67A1.923 1.923 0 0 0 54 56.934V29.929C54 28.864 53.104 28 52 28zm-2 27.73l-13.008 6.152a2.146 2.146 0 0 1-2.096-.058L22 55.73V31.858h28V55.73z"/>
        <path d="M43.285 38L33.119 48.302l-4.403-4.463L26 46.59l5.762 5.839c.36.365.848.57 1.357.57.51 0 .998-.205 1.358-.57L46 40.752 43.285 38zM40 77a2 2 0 0 1-2-2v-4h-4v4a6 6 0 0 0 6 6h12v-4H40zM47 8h3v3h-3z"/>
    </g>
</svg>
