<svg xmlns="http://www.w3.org/2000/svg" width="120" height="120" viewBox="0 0 120 120">
    <g fill="#F9F9F9" fill-rule="evenodd">
        <path fill-rule="nonzero" d="M81.839 49.253a1.515 1.515 0 0 0-.074-.18 2.103 2.103 0 0 0-.121-.293 2.009 2.009 0 0 0-.138-.183 1.897 1.897 0 0 0-.173-.225 2.246 2.246 0 0 0-.185-.147 2.254 2.254 0 0 0-.2-.162l-19.916-11.95a1.992 1.992 0 0 0-2.052 0l-19.917 11.95a1.751 1.751 0 0 0-.209.162 2.276 2.276 0 0 0-.187.147c-.062.07-.12.145-.171.223-.05.059-.097.12-.14.185a2.1 2.1 0 0 0-.12.285 1.998 1.998 0 0 0-.075.19c-.047.168-.07.341-.07.515v19.917c0 .7.367 1.347.966 1.707l19.917 11.95.022.01.022.016c.105.055.214.1.327.134.046.016.09.042.137.056.34.092.697.092 1.036 0 .048-.014.091-.04.137-.056a1.93 1.93 0 0 0 .327-.134l.022-.016.022-.01 19.917-11.95c.599-.36.965-1.008.966-1.707V49.77c0-.174-.024-.349-.07-.517zM60 40.143l6.087 3.652-16.046 9.628-6.086-3.653L60 40.142zm-1.992 37.975l-15.933-9.56v-15.27l15.933 9.56v15.27zM60 59.398l-6.087-3.653 16.046-9.627 6.086 3.652L60 59.398zm17.925 9.162l-15.933 9.56V62.848l15.933-9.56V68.56z"/>
        <path d="M61.593.775a2.063 2.063 0 0 0-3.186 0L52.432 8.74l3.186 2.39 2.39-3.186v15.933h3.984V7.945l2.39 3.186 3.186-2.39L61.593.775zM64.382 108.326l-2.39 3.187V95.58h-3.984v15.933l-2.39-3.187-3.186 2.39 5.975 7.967a1.992 1.992 0 0 0 3.186 0l5.975-7.967-3.186-2.39zM58.008 27.862h3.983v3.983h-3.983zM58.008 87.613h3.983v3.983h-3.983zM24.15 57.737H8.215l3.186-2.39-2.39-3.187-7.966 5.976a1.992 1.992 0 0 0 0 3.186l7.966 5.975 2.39-3.186-3.186-2.39h15.933v-3.984zM119.353 58.534a2 2 0 0 0-.399-.398l-7.966-5.976-2.39 3.187 3.186 2.39H95.851v3.984h15.933l-3.186 2.39 2.39 3.186 7.966-5.975a1.992 1.992 0 0 0 .399-2.788zM28.133 57.737h3.983v3.983h-3.983zM87.884 57.737h3.983v3.983h-3.983zM36.058 32.97L24.793 21.705l3.941.562.564-3.944-9.857-1.416a1.992 1.992 0 0 0-2.263 2.263l1.409 9.857 3.943-.564-.562-3.941 11.266 11.265 2.824-2.817zM102.818 100.288l-1.409-9.857-3.947.568.562 3.941-11.265-11.265-2.817 2.816 11.265 11.265-3.937-.565-.564 3.943 9.857 1.408a1.992 1.992 0 0 0 2.255-2.255zM36.059 38.605l2.816-2.817 2.817 2.817-2.817 2.816zM78.31 80.853l2.816-2.817 2.817 2.817-2.817 2.817zM24.785 97.752L36.05 86.487l-2.809-2.816-11.265 11.265.562-3.941-3.943-.564-1.417 9.857a1.992 1.992 0 0 0 2.255 2.254l9.857-1.408-.564-3.943-3.941.561zM102.25 17.479a1.972 1.972 0 0 0-1.691-.564l-9.857 1.408.564 3.944 3.941-.562L83.942 32.97l2.817 2.817 11.265-11.265-.562 3.937 3.943.568 1.409-9.857a1.99 1.99 0 0 0-.564-1.691zM36.06 80.855l2.817-2.817 2.816 2.817-2.816 2.816zM78.31 38.598l2.817-2.817 2.816 2.817-2.816 2.816z"/>
    </g>
</svg>
