<?xml version="1.0" encoding="UTF-8"?>
<svg width="108px" height="108px" viewBox="0 0 108 108" version="1.1" xmlns="http://www.w3.org/2000/svg" xmlns:xlink="http://www.w3.org/1999/xlink">
    <!-- Generator: sketchtool 52.5 (67469) - http://www.bohemiancoding.com/sketch -->
    <title>FE7CF759-EF78-417E-80AA-B71B0A89676A</title>
    <desc>Created with sketchtool.</desc>
    <g id="All-Pages" stroke="none" stroke-width="1" fill="none" fill-rule="evenodd">
        <g id="SCTE_DTPWEB-Search" transform="translate(-169.000000, -179.000000)" fill="#FFFFFF">
            <g id="search" transform="translate(169.000000, 179.000000)">
                <path d="M90.3143672,32.7826406 L70.1635078,18.15075 C69.4182656,17.6096953 68.3756016,17.7750703 67.834125,18.5203125 C67.2928594,19.2655547 67.4586562,20.3084297 68.2038984,20.8496953 L88.3549688,35.481375 C88.6509141,35.6961094 88.9934766,35.7996797 89.3332969,35.7996797 C89.8488281,35.7996797 90.3576094,35.5611094 90.6841406,35.1118125 C91.2254063,34.3665703 91.0598203,33.3236953 90.3143672,32.7826406 Z" id="Path"></path>
                <path d="M40.6807734,24.7790391 C40.5364922,23.8694766 39.6819844,23.2480547 38.7724219,23.3933906 L14.1775313,27.2963672 C13.2679688,27.4406484 12.6476016,28.2951563 12.7918828,29.2047188 C12.9222422,30.0258984 13.6309922,30.61125 14.4367734,30.61125 C14.5236797,30.61125 14.6118516,30.6045 14.7002344,30.5903672 L39.2953359,26.6873906 C40.2051094,26.5431094 40.8254766,25.6888125 40.6807734,24.7790391 Z" id="Path"></path>
                <path d="M107.311711,27.5385234 L69.8882344,0.365132812 C69.5304844,0.10546875 69.0845625,-0.002109375 68.6470781,0.0677109375 C68.2104375,0.137109375 67.8189375,0.376945312 67.5588516,0.734695312 L51.2384063,23.2117734 L48.9912891,9.05175 C48.9221016,8.61489844 48.6820547,8.22360937 48.3240938,7.96352344 C47.9661328,7.7034375 47.5193672,7.59691406 47.0829375,7.66610156 L1.40653125,14.9145469 C0.49696875,15.0588281 -0.123398438,15.9133359 0.0208828125,16.8226875 L8.94164063,73.0402734 C9.01103906,73.477125 9.250875,73.8684141 9.608625,74.1285 C9.89528906,74.3366953 10.2384844,74.4465938 10.5884297,74.4465938 C10.6753359,74.4465938 10.7626641,74.4396328 10.8497813,74.4259219 L21.3453984,72.7603594 L21.3453984,90.6533437 C21.3453984,91.5742969 22.0921172,92.3210156 23.0130703,92.3210156 L69.2613281,92.3210156 C70.1824922,92.3210156 70.929,91.5742969 70.929,90.6533437 L70.929,85.9509141 C72.073125,85.2938437 73.1537578,84.5353125 74.1571875,83.6772187 L78.3124453,87.8326875 L76.9761563,89.1689766 C76.3249922,89.8201406 76.3249922,90.8760937 76.9761563,91.5274687 L92.0695781,106.620891 C92.3952656,106.946578 92.8219922,107.109422 93.2489297,107.109422 C93.6756563,107.109422 94.1025938,106.946578 94.4282813,106.620891 L99.4595625,101.589609 C99.7721719,101.277 99.9478828,100.852805 99.9478828,100.410469 C99.9478828,99.9681328 99.7721719,99.5439375 99.4595625,99.2313281 L84.3659297,84.1379063 C84.0531094,83.8250859 83.6289141,83.649375 83.1865781,83.649375 C82.7442422,83.649375 82.3202578,83.8250859 82.0072266,84.1379063 L80.6709375,85.4741953 L76.5156797,81.3189375 C79.8065156,77.4773438 81.6015938,72.6416016 81.6015938,67.5291094 C81.6015938,66.9821484 81.5788125,66.4282266 81.5359922,65.8753594 L107.681484,29.8674844 C108.22275,29.1222422 108.057164,28.0793672 107.311711,27.5385234 Z M83.1863672,87.67575 L95.9215078,100.410891 L93.2487188,103.08368 L80.5137891,90.3485391 L83.1863672,87.67575 Z M21.3456094,33.7322813 L21.3456094,40.5668672 L16.4077734,41.3505 C15.4982109,41.4947813 14.8778438,42.3492891 15.022125,43.2588516 C15.1524844,44.0800313 15.8612344,44.6653828 16.6670156,44.6653828 C16.7539219,44.6653828 16.8420938,44.6586328 16.9304766,44.6445 L21.3456094,43.9439766 L21.3456094,54.975375 L18.6378047,55.4048438 C17.7282422,55.549125 17.107875,56.4036328 17.2521562,57.3131953 C17.3825156,58.134375 18.0912656,58.7197266 18.8970469,58.7197266 C18.9839531,58.7197266 19.072125,58.7129766 19.1605078,58.6988438 L21.3456094,58.3522734 L21.3456094,69.3836719 L11.9740781,70.8707813 L3.57623438,17.9471953 L45.9590625,11.2216641 L48.4673203,27.0282656 L44.8102969,32.0646094 L23.0130703,32.0646094 C22.0921172,32.0648203 21.3456094,32.8113281 21.3456094,33.7322813 Z M67.5940781,88.9858828 L24.6807422,88.9858828 L24.6807422,70.8075 L24.6807422,56.3992031 L24.6807422,41.9911172 L24.6807422,35.400375 L45.6574219,35.400375 C45.6578438,35.400375 45.6582656,35.4005859 45.6586875,35.4005859 C45.6593203,35.4005859 45.6599531,35.400375 45.660375,35.400375 L51.219,35.400375 L64.5620625,35.400375 C64.5624844,35.400375 64.5629063,35.4005859 64.5633281,35.4005859 C64.5639609,35.4005859 64.5645938,35.400375 64.5654375,35.400375 L67.5934453,35.400375 L67.5934453,37.1427188 L67.5934453,47.5586016 C65.2885313,46.7203359 62.8680234,46.2955078 60.3671484,46.2955078 C59.9011875,46.2955078 59.4373359,46.3125938 58.9760156,46.3425469 C58.8515625,46.3130156 58.7220469,46.2955078 58.5885234,46.2955078 L33.6856641,46.2955078 C32.7647109,46.2955078 32.0179922,47.0422266 32.0179922,47.9631797 C32.0179922,48.8841328 32.7647109,49.6308516 33.6856641,49.6308516 L48.9402422,49.6308516 C47.1384141,50.7827813 45.5000625,52.2133594 44.0905781,53.8945313 C42.4275469,55.8773438 41.1636094,58.1037891 40.3202813,60.5257734 L33.685875,60.5257734 C32.7649219,60.5257734 32.0182031,61.2724922 32.0182031,62.1934453 C32.0182031,63.1143984 32.7649219,63.8611172 33.685875,63.8611172 L39.4520625,63.8611172 C39.2404922,65.0704219 39.1335469,66.2978672 39.1335469,67.5299531 C39.1335469,70.0327266 39.5577422,72.4532344 40.3945313,74.75625 L33.6860859,74.75625 C32.7651328,74.75625 32.0184141,75.5029688 32.0184141,76.4239219 C32.0184141,77.344875 32.7651328,78.0915938 33.6860859,78.0915938 L41.9455547,78.0915938 C45.7318828,84.6998438 52.69725,88.7641875 60.3677813,88.7641875 C62.8703438,88.7641875 65.2908516,88.3399922 67.5940781,87.5032031 L67.5940781,88.9858828 Z M73.0240312,80.1857813 C73.0238203,80.1859922 73.0236094,80.1862031 73.0233984,80.1864141 C71.6928047,81.5170078 70.1715234,82.6240078 68.502375,83.47725 C65.9700703,84.7717734 63.2331562,85.4282109 60.3675703,85.4282109 C53.6093438,85.4282109 47.4982734,81.6868125 44.4194297,75.664125 C44.4192188,75.6637031 44.4190078,75.6632813 44.4187969,75.6628594 C43.1246953,73.1309766 42.4686797,70.3944844 42.4686797,67.5293203 C42.4686797,65.876625 42.6962813,64.2338438 43.1455781,62.6471719 C43.8359766,60.2081016 45.0140625,57.9839766 46.6467188,56.0370234 C50.0607422,51.9655078 55.0618594,49.6304297 60.3677812,49.6304297 C63.2299922,49.6304297 65.9671172,50.2877109 68.502375,51.5843438 C73.9011094,54.3453047 77.5121484,59.5778203 78.1607812,65.5817344 C78.1609922,65.5827891 78.1612031,65.5840547 78.1612031,65.5853203 C78.2310234,66.2337422 78.2666719,66.8876484 78.2666719,67.5293203 C78.2664609,72.3106406 76.4047266,76.8050859 73.0240312,80.1857813 Z M80.6922422,61.360875 C79.1393203,56.2161094 75.6757266,51.8313516 70.929,49.1100469 L70.929,40.4143594 L79.99425,46.9964531 C80.2901953,47.2111875 80.6327578,47.3147578 80.9725781,47.3147578 C81.4881094,47.3147578 81.9968906,47.0761875 82.3234219,46.6268906 C82.8646875,45.8816484 82.6988906,44.8387734 81.9536484,44.2975078 L70.929,36.2926406 L70.929,33.7327031 C70.929,32.81175 70.1824922,32.0650313 69.2613281,32.0650313 L65.1067031,32.0650313 L61.8025781,29.6658281 C61.0573359,29.1247734 60.01425,29.2899375 59.4731953,30.0353906 C59.0194687,30.6601875 59.0639766,31.4929688 59.5286719,32.0650313 L51.2187891,32.0650313 L48.9315937,32.0650313 L51.5712656,28.4297344 C51.5714766,28.4295234 51.5716875,28.4293125 51.5718984,28.4288906 L69.2779922,4.04388281 L104.002734,29.2574531 L80.6922422,61.360875 Z" id="Shape" fill-rule="nonzero"></path>
                <path d="M60.3675703,53.4104297 C52.5822891,53.4104297 46.2484687,59.74425 46.2484687,67.5295313 C46.2484687,75.3148125 52.5822891,81.6486328 60.3675703,81.6486328 C68.1528516,81.6486328 74.4866719,75.3148125 74.4866719,67.5295313 C74.4866719,59.7440391 68.1528516,53.4104297 60.3675703,53.4104297 Z M60.3675703,78.3132891 C54.4212422,78.3132891 49.5838125,73.4756484 49.5838125,67.5295313 C49.5838125,61.5832031 54.4214531,56.7457734 60.3675703,56.7457734 C66.3138984,56.7457734 71.1513281,61.5834141 71.1513281,67.5295313 C71.1513281,73.4756484 66.3136875,78.3132891 60.3675703,78.3132891 Z" id="Shape" fill-rule="nonzero"></path>
                <path d="M65.1043828,67.2397031 C64.4530078,66.5885391 63.3972656,66.5885391 62.7456797,67.2397031 L58.2986953,71.6866875 C57.6475313,72.3378516 57.6475313,73.3938047 58.2986953,74.0449688 C58.6243828,74.3704453 59.0513203,74.5335 59.4780469,74.5335 C59.9047734,74.5335 60.3317109,74.3706563 60.6573984,74.0449688 L65.1043828,69.5979844 C65.7557578,68.9466094 65.7557578,67.8906563 65.1043828,67.2397031 Z" id="Path"></path>
                <path d="M63.3255469,60.1245703 C62.6741719,59.4734063 61.6184297,59.4734063 60.9670547,60.1245703 L56.0754141,65.0162109 C55.42425,65.667375 55.42425,66.7233281 56.0754141,67.3744922 C56.4011016,67.6999688 56.8280391,67.8630234 57.2547656,67.8630234 C57.6814922,67.8630234 58.1084297,67.7001797 58.4341172,67.3744922 L63.3255469,62.4828516 C63.9769219,61.8314766 63.9769219,60.7755234 63.3255469,60.1245703 Z" id="Path"></path>
            </g>
        </g>
    </g>
</svg>