<svg xmlns="http://www.w3.org/2000/svg" width="98" height="98" viewBox="0 0 98 98">
    <g fill="#FFF" fill-rule="nonzero">
        <path d="M98 37.937h-3.161V33.39a7.894 7.894 0 0 0-5.988-7.668l-6.659-1.664V23.3a11.104 11.104 0 0 0 4.743-9.072v-2.764c0-6.14-4.81-11.28-10.724-11.457-3.064-.109-5.88 1.017-8.046 3.119a10.979 10.979 0 0 0-3.359 7.94v3.162a11.1 11.1 0 0 0 4.742 9.07v.76l-6.658 1.664a7.893 7.893 0 0 0-5.987 7.668v4.547h-3.161v9.484h3.161v28.45h7.903v1.581c0 2.47 1.192 4.805 3.162 6.29v.422l-5.333 1.521a7.9 7.9 0 0 0-4.151 2.878 7.901 7.901 0 0 0-4.152-2.878L49 84.164v-.423c1.969-1.484 3.161-3.818 3.161-6.289v-2.834c0-4.248-3.163-7.849-7.2-8.2a7.939 7.939 0 0 0-6.043 2.045 7.931 7.931 0 0 0-2.563 5.828v3.161c0 2.47 1.191 4.805 3.161 6.29v.422l-5.333 1.521a7.9 7.9 0 0 0-4.15 2.878 7.901 7.901 0 0 0-4.153-2.878l-5.332-1.521v-.423c1.97-1.484 3.162-3.818 3.162-6.289v-2.834c0-4.248-3.163-7.849-7.2-8.2a7.937 7.937 0 0 0-6.044 2.045 7.931 7.931 0 0 0-2.563 5.828v3.161c0 2.47 1.192 4.805 3.162 6.29v.422L5.73 85.685A7.94 7.94 0 0 0 0 93.287V98h88.516v-4.713c0-3.51-2.357-6.634-5.733-7.602l-5.331-1.521v-.423c1.968-1.484 3.16-3.818 3.16-6.289v-1.58H94.84V47.42H98v-9.484zM60.065 33.39a4.736 4.736 0 0 1 3.59-4.6l9.055-2.263v-5.004l-.79-.457a7.933 7.933 0 0 1-3.952-6.838v-3.161c0-2.156.851-4.17 2.4-5.671 1.548-1.502 3.595-2.282 5.748-2.228 4.221.127 7.658 3.848 7.658 8.296v2.764a7.928 7.928 0 0 1-3.957 6.838l-.79.458.007 5.003 9.052 2.263a4.736 4.736 0 0 1 3.591 4.6v4.547H60.065V33.39zM28.452 94.839H3.162v-1.552a4.763 4.763 0 0 1 3.438-4.56l7.626-2.18v-4.558l-.786-.457c-1.487-.866-2.375-2.391-2.375-4.08v-3.161c0-1.326.56-2.6 1.538-3.496a4.725 4.725 0 0 1 3.633-1.227c2.418.21 4.312 2.428 4.312 5.05v2.834c0 1.689-.888 3.214-2.376 4.08l-.785.457v4.558l7.623 2.18a4.762 4.762 0 0 1 3.442 4.56v1.552zm28.451 0h-25.29v-1.552a4.763 4.763 0 0 1 3.439-4.56l7.625-2.18v-4.558l-.785-.457c-1.488-.866-2.376-2.391-2.376-4.08v-3.161c0-1.326.56-2.6 1.54-3.496a4.72 4.72 0 0 1 3.632-1.227c2.418.21 4.312 2.428 4.312 5.05v2.834c0 1.689-.888 3.214-2.376 4.08l-.785.457v4.558l7.623 2.18a4.762 4.762 0 0 1 3.441 4.56v1.552zm20.549-17.387c0 1.689-.889 3.214-2.377 4.08l-.785.457v4.558l7.623 2.18a4.762 4.762 0 0 1 3.442 4.56v1.552h-25.29v-1.552a4.763 4.763 0 0 1 3.439-4.56l7.625-2.18v-4.558l-.786-.457c-1.487-.866-2.375-2.391-2.375-4.08v-3.161c0-1.326.56-2.6 1.539-3.496a4.721 4.721 0 0 1 3.633-1.227c2.418.21 4.312 2.428 4.312 5.05v2.834zm14.225-4.742H80.371c-.78-3.368-3.545-5.995-6.957-6.29a7.93 7.93 0 0 0-6.042 2.045 7.904 7.904 0 0 0-2.4 4.245h-4.907V47.42h31.612v25.29zm3.162-28.45H56.903v-3.162H94.84v3.161z"/>
        <path d="M3.176 41.6h22.236v9.827a6.383 6.383 0 0 0-4.765 6.173c0 3.53 2.85 6.4 6.353 6.4 3.504 0 6.353-2.87 6.353-6.4a6.384 6.384 0 0 0-4.765-6.173V41.6h22.236v-32H54V0H0v9.6h3.176v32zm27 16c0 1.765-1.424 3.2-3.176 3.2-1.752 0-3.176-1.435-3.176-3.2 0-1.765 1.424-3.2 3.176-3.2 1.752 0 3.176 1.435 3.176 3.2zm17.471-19.2H6.353V9.6h41.294v28.8zM3.177 3.2h47.647v3.2H3.176V3.2z"/>
        <path d="M44 13H34v23h10V13zm-3.333 19.714h-3.334V16.286h3.334v16.428zM31 16H21v18h10V16zm-3.333 15h-3.334V19h3.334v12zM20 21H10v13h10V21zm-3.333 9.75h-3.334v-6.5h3.334v6.5z"/>
    </g>
</svg>
